<?xml version="1.0" encoding="UTF-8"?>
<svg width="103px" height="93px" viewBox="0 0 103 93" version="1.1" xmlns="http://www.w3.org/2000/svg" xmlns:xlink="http://www.w3.org/1999/xlink">
    <!-- Generator: Sketch 52.6 (67491) - http://www.bohemiancoding.com/sketch -->
    <title>2</title>
    <desc>Created with Sketch.</desc>
    <g id="LP-SPRINT" stroke="none" stroke-width="1" fill="none" fill-rule="evenodd">
        <g id="Desktop-HD" transform="translate(-1000.000000, -2466.000000)">
            <g id="3-Como-Trabalhamos" transform="translate(208.000000, 2156.000000)">
                <g id="Cardss" transform="translate(50.000000, 199.000000)">
                    <g id="1" transform="translate(332.000000, 0.000000)">
                        <g id="2" transform="translate(410.000000, 111.000000)">
                            <g id="azul" opacity="0.55" transform="translate(10.000000, 4.000000)" fill="#009CD5">
                                <path d="M22.7651241,8.03711889 C20.6698524,4.56413307 15.8594802,8.12573579 14.3867168,10.6438496 C12.954144,13.0942562 12.0913851,18.7657376 15.5236651,19.7504805 C15.8496558,19.8440758 16.2756765,19.6947215 16.4346528,19.3372669 C17.3018774,17.3876951 16.6320335,15.0617505 17.8091725,13.2177225 C19.1077765,11.1825209 21.5969164,11.7401104 22.7651241,9.73975815 C23.042886,9.26481141 23.0509242,8.51106994 22.7651241,8.03711889" id="Fill-1"></path>
                                <path d="M37.6005492,8.28518179 C36.49713,6.93134339 34.3136175,8.11107397 34.2923199,9.63701895 C34.2416113,13.3142962 36.3024089,16.5573045 34.7608674,20.2375836 C33.6158671,22.9722771 31.0206008,25.2997185 28.4009944,26.621537 C25.4933631,28.0904467 22.0441639,28.5017014 18.8393802,27.9193407 C16.4723026,27.4900749 14.3263145,26.1252297 11.8933157,26.2182873 C11.2929259,26.2403009 10.7969957,26.7986467 10.9795467,27.4020204 C12.0535549,30.9582226 16.5666206,32.2660325 19.9093317,32.7733467 C24.0643946,33.4037371 28.3523141,32.433136 31.9404549,30.2958124 C39.4493848,25.8250438 43.6318304,15.6857648 37.6005492,8.28518179" id="Fill-3"></path>
                                <path d="M92.8972211,16.2933037 C92.3104727,13.3849735 89.1201521,11.118998 87.2087443,9.06484192 C84.3008587,5.93878095 81.1373893,3.19596539 78.1101649,0.21965584 C77.4925873,-0.38723151 76.5647291,0.379259331 76.9396514,1.11422356 C79.3602375,5.84617151 81.7320937,10.0451226 85.0178852,14.2864376 C85.5578927,14.9829788 86.1008837,15.6785347 86.6627699,16.3573422 C86.4091752,16.3809871 86.1555805,16.4036469 85.9029804,16.4272919 C84.1685916,16.5839397 82.5754203,16.6391113 81.0180506,17.061765 C79.5412345,15.975082 76.8491529,16.6046291 76.8650648,18.9770069 C76.936668,29.199512 76.7377702,41.4456317 66.9301202,47.5381502 C58.4391735,52.8119619 46.5868542,53.2434824 36.9621901,54.9508457 C27.7751012,56.5803776 18.1932002,57.6798683 11.1740972,64.3723777 C5.42296756,69.8570236 1.96115152,77.4509971 2.19982887,85.3365919 C2.2505478,87.0153841 4.69400715,87.3897627 5.17533981,85.7346154 C7.58797,77.4529675 11.3302319,68.7407844 19.4054822,64.4856765 C24.2685332,61.9231538 30.0783376,61.4601066 35.4247102,60.5586424 C41.0445673,59.6108735 46.6554739,58.6020218 52.2643916,57.5921849 C60.8985447,56.0375287 70.0856336,53.8454437 75.718419,46.6022038 C81.1234665,39.6525555 81.9250246,30.8241179 81.9717655,22.3168577 C86.6150344,22.7404966 93.9543629,21.536574 92.8972211,16.2933037" id="Fill-5"></path>
                                <path d="M67.3300617,17.1396466 C65.0041791,16.6696283 61.8920698,15.970601 59.653647,17.0586434 C58.9940547,17.3786559 58.8920183,18.5657022 59.4185989,19.0617215 C61.1322633,20.6747844 64.0102355,21.2138054 66.1411557,21.8748312 C68.9480669,22.7438651 70.1296845,17.7056687 67.3300617,17.1396466" id="Fill-7"></path>
                                <path d="M87.4861802,75.8871935 C87.2889648,74.372798 86.5432745,73.1058137 85.4296449,72.1061929 C84.7820718,71.5245773 83.7400678,71.2512279 82.8315031,70.9309901 C83.266162,70.1897544 83.7793146,69.4854309 84.1374422,68.6963091 C85.069555,66.6392054 83.003208,63.7121723 80.7612314,65.2634799 C77.8579452,67.2707023 74.5543411,72.8733669 78.9666689,75.163915 C80.0498821,75.7255781 82.1201538,75.1040575 82.1319278,77.0753654 C82.1358525,77.8006391 79.3807232,80.0433011 78.8312672,80.6418764 C77.9491941,81.6025897 76.7089935,83.7105723 75.2480292,83.7414987 C73.8351424,83.7714275 71.5450883,80.7685748 70.7974357,79.7569826 C69.9938563,78.6705685 68.3543189,78.1059125 67.3034843,79.2990725 C65.3352545,81.5357488 62.6154474,83.679646 62.3681922,86.7912398 C62.304416,87.5993164 63.1286,87.9873927 63.7791166,87.8836397 C65.7777628,87.5663948 67.3348818,86.0011204 68.749731,84.403922 C70.403986,86.3512869 72.4369732,88.109103 74.7760858,88.8253981 C78.2298091,89.8838787 80.713154,85.8734243 82.8040303,83.6916175 C84.8762643,81.5287655 87.9286885,79.2801177 87.4861802,75.8871935" id="Fill-9"></path>
                                <path d="M30.4295928,71.8089974 C30.0779596,70.9086797 29.2613308,70.3209877 28.3281908,70.3209877 C27.1462833,70.3209877 26.2372852,71.2445037 25.4154082,72.0144687 C24.7772202,72.6109982 24.1369328,73.1346185 23.395879,73.5886437 C22.6506265,74.045983 21.742678,74.420471 21.1926607,75.1318877 C20.6006573,75.8985386 20.625849,76.9778151 21.4865631,77.5334713 C24.2555434,79.3219551 31.9893748,75.8101638 30.4295928,71.8089974" id="Fill-11"></path>
                                <path d="M81.6415509,75.0868418 C80.3541451,75.6191746 79.7697697,75.9840882 78.7651582,76.9735654 C77.1801264,78.5344733 77.35712,79.3274587 75.7345141,77.592114 C74.430299,76.1976228 73.4009677,74.5895969 71.2117846,74.7239332 C69.2569451,74.8442344 67.5700678,76.8342166 66.2589311,78.0622912 C64.6491796,79.5710686 62.2365298,81.1409991 62.3700166,83.5700805 C62.4224225,84.5254725 63.4586753,84.9204614 64.1567617,84.3199579 C65.5143716,83.1520339 70.2328817,78.8933719 71.9177813,79.8547789 C73.4860037,80.7500202 73.6046586,82.9164441 75.7839537,83.567073 C79.3683206,84.6367511 82.9121471,80.5976387 84.1352815,77.6151718 C84.7018586,76.2337131 82.998172,74.5264388 81.6415509,75.0868418" id="Fill-13"></path>
                                <path d="M83.0657734,63.3208235 C83.040599,63.2306494 83.0154247,63.1415489 82.9902504,63.0513748 C82.8089952,62.408348 82.3185992,61.8007467 81.6791712,61.6536771 C81.6036482,61.6365011 81.5281252,61.6193251 81.4536092,61.6021491 C80.6772329,61.423948 79.7629012,61.5602826 79.2080589,62.2344409 C78.1537579,63.5140536 77.1065058,64.8151362 76.1498812,66.1784819 C75.328191,67.349671 74.4491034,68.4972431 74.4007687,70.0183934 C74.3655246,71.1316134 75.5497252,71.7413618 76.4066594,71.2454045 C78.7408233,69.8960143 80.632926,67.7253962 82.4726661,65.7147297 C83.0385851,65.0963934 83.3034191,64.1645949 83.0657734,63.3208235" id="Fill-15"></path>
                                <path d="M83.4027311,8.32234195 C80.8337161,6.30830661 77.2786745,9.54819136 79.7081014,11.9763915 C81.0762628,13.3442123 81.3098996,12.8830501 79.8724392,13.5145779 C79.0626302,13.870975 78.0696737,13.7818758 77.2271952,14.1891868 C75.7550853,14.9000228 74.7650988,16.0857285 74.3285147,17.6611213 C73.6375041,20.1588384 73.7325428,22.9718299 73.1761704,25.5263356 C72.6960269,27.7332562 72.0683755,29.915699 71.2546066,32.0256874 C69.390462,36.8585889 66.3561533,41.4565033 62.048722,44.4829415 C57.3195564,47.8060508 51.4360665,49.0632319 45.8178931,50.0256999 C34.7191543,51.9261581 22.7363575,51.9741347 12.4751473,57.1242688 C2.99899636,61.8798204 0.213174308,73.786813 0.000327207348,83.5143002 C-0.0283824016,84.8292488 1.84071214,84.986886 2.2396767,83.8139087 C4.25429926,77.8853798 5.25319565,70.3755835 8.87060638,65.1725772 C12.6582948,59.7257719 20.4791882,58.1885646 26.6468042,57.2515535 C38.2573661,55.4891502 50.7905953,56.0697641 61.5428389,50.7149954 C62.0724817,50.4506349 62.5882646,50.1686504 63.0921678,49.8729583 C63.295115,50.2959351 63.6485402,50.6327499 64.1890728,50.7238074 C67.7658941,51.326941 70.6140853,48.5247197 72.6485076,45.9320286 C74.8086582,43.178763 75.7263757,40.0906408 76.8371405,36.8478187 C77.1479963,35.9382227 76.4639156,35.1304546 75.625397,34.943444 C76.5936038,32.6954006 77.3628234,30.358258 77.9419655,27.9995749 C78.5359574,25.5792077 78.6092164,23.0442843 79.1923184,20.6444784 C79.884319,17.7981971 81.646495,19.0064225 83.8640648,17.8207167 C88.0883373,15.5628822 86.5122787,10.7603332 83.4027311,8.32234195" id="Fill-17"></path>
                                <path d="M33.6882391,18.709898 C30.7250806,19.1572578 28.4634579,21.2433967 25.9099479,22.5614446 C23.094746,24.0135156 19.8900256,24.4784371 17.0697911,25.8778231 C16.0220166,26.3972782 16.2957867,27.879851 17.3948931,28.1636102 C23.3554315,29.7044138 33.0964126,26.7161608 35.8773933,21.3256592 C36.6383131,19.8514051 35.3942696,18.452019 33.6882391,18.709898" id="Fill-19"></path>
                            </g>
                            <g id="preto" opacity="0.65" fill="#000000">
                                <path d="M11.7667592,90.5263108 C11.2162286,90.5263108 10.7568,90.0938161 10.7293714,89.5380312 C10.7068408,89.0752032 10.6950857,88.6104183 10.6950857,88.1436763 C10.6950857,83.6396656 11.4003918,79.6620849 12.7914122,76.3205258 C19.5300245,60.1313323 34.6323918,58.6449989 47.9568,57.3338161 C53.4523102,56.7936871 58.6421878,56.2829129 63.0944327,54.8513753 C72.8305959,51.719214 84.0048,45.5811172 84.0048,25.7509452 C84.0048,25.1070957 83.9979429,24.4632462 83.9910857,23.8213538 C83.9842286,23.1755473 83.9773714,22.5326763 83.9773714,21.8898054 L83.978351,21.3575043 C83.9803102,20.8134613 84.4025143,20.3604183 84.9471673,20.324214 C87.5440653,20.1451495 90.1008,19.9347731 92.7153306,19.685257 L81.6586776,2.96278387 L68.7486367,19.4054075 L76.6980245,19.5727301 C76.9840653,19.5786011 77.2544327,19.7018914 77.4464327,19.9132462 C77.6384327,20.1246011 77.7344327,20.4064075 77.7128816,20.6911495 C77.6531265,21.4719882 77.6188408,22.2586978 77.5835755,23.0493215 C77.4699429,25.6403753 77.3514122,28.3194935 76.3581061,30.9907839 C72.5386776,41.2630204 62.6222694,45.2259237 54.4093714,47.5293 C52.5775347,48.0430097 49.9355755,48.3756978 46.8763102,48.7612247 C36.9109224,50.0176118 21.8516571,51.9139344 10.6118204,62.3691495 C4.87043265,67.7097731 2.07957551,75.195257 2.07957551,85.2532032 C2.07957551,86.3266118 2.13639184,87.4205688 2.24806531,88.5027839 C2.30684082,89.0732462 1.89051429,89.5840204 1.32039184,89.6427301 C0.74635102,89.6916548 0.237942857,89.2875366 0.179167347,88.7160957 C0.0596571429,87.563429 -9.79591837e-05,86.3980419 -9.79591837e-05,85.2532032 C-9.79591837e-05,74.5866333 3.00822857,66.6040742 9.19435102,60.8495473 C20.9269224,49.9383538 36.3858612,47.990171 46.6167184,46.7014935 C49.5927184,46.3257516 52.1641469,46.0018699 53.8470857,45.5302355 C65.4973714,42.2620634 71.6462694,37.6964075 74.4087184,30.2666978 C75.2893714,27.9016763 75.3941878,25.5004505 75.5058612,22.9583215 C75.5254531,22.5131065 75.5450449,22.0688699 75.5695347,21.6265903 L66.6248816,21.4387194 C66.2310857,21.4299129 65.8754939,21.1999667 65.7070041,20.8437946 C65.5385143,20.4895796 65.5845551,20.0688269 65.8284735,19.7596226 L80.9122286,0.54785914 C81.1189224,0.285622581 81.4617796,0.135912903 81.7723102,0.150590323 C82.1073306,0.164289247 82.4139429,0.337482796 82.5981061,0.615375269 L95.4003918,19.9758699 C95.6002286,20.2801817 95.6276571,20.6657086 95.471902,20.9935043 C95.3151673,21.3222785 94.9997388,21.5453753 94.6372898,21.5815796 C91.7259429,21.8770849 88.9086367,22.1217086 86.0570449,22.3271925 C86.0599837,22.8164398 86.0648816,23.3076441 86.0697796,23.7988484 C86.0776163,24.4485688 86.0834939,25.0982892 86.0834939,25.7509452 C86.0834939,46.9216548 74.138351,53.4805043 63.7321469,56.8279344 C59.0683102,58.3279667 53.769698,58.8495043 48.1605551,59.4003968 C34.7930449,60.716472 20.9719837,62.0756011 14.7104327,77.1189774 C13.4261878,80.2051495 12.7747592,83.9146226 12.7747592,88.1436763 C12.7747592,88.5771495 12.7845551,89.0076871 12.8061061,89.4382247 C12.8335347,90.0106441 12.3917388,90.4969559 11.817698,90.5253323 C11.8010449,90.5253323 11.7834122,90.5263108 11.7667592,90.5263108" id="Fill-21"></path>
                                <path d="M30.1628674,5.33952016 C30.0645117,5.33952016 29.9651724,5.34048582 29.8668167,5.34338278 C23.0665023,5.51430358 17.3392488,11.3883782 17.3599035,18.1701677 C17.3805582,24.8650484 23.1068282,30.6657333 29.8638661,30.8376197 C33.4449978,30.9264599 37.04285,29.5079139 39.7220598,26.938308 C42.2773413,24.4884433 43.7389073,21.2409481 43.7300553,18.0301479 L43.7280882,17.7539708 C43.7074335,16.1123586 43.5126892,14.7923093 43.1320525,13.7233301 C41.58295,9.37498913 37.2474299,6.20667765 31.8162271,5.45346736 C31.2723199,5.37718068 30.7175937,5.33952016 30.1628674,5.33952016 M30.1884399,32.8915663 C30.0625446,32.8915663 29.9356657,32.889635 29.8097704,32.8857723 C21.9531156,32.6868476 15.2964005,25.9504438 15.2727952,18.1769273 C15.2482062,10.3087768 21.9068884,3.4931893 29.8137046,3.29426453 C30.576945,3.27302014 31.3529716,3.31840589 32.1083436,3.4236622 C38.315573,4.28502576 43.295323,7.97189356 45.1021176,13.0464065 C45.565373,14.346177 45.7915912,15.8352158 45.8161801,17.7346577 L45.8181472,18.0195257 C45.8269992,21.7855771 44.137248,25.5690103 41.1806751,28.4051368 C38.1945954,31.2683015 34.2072546,32.8915663 30.1884399,32.8915663" id="Fill-24"></path>
                                <path d="M29.7809755,10.799496 C29.7270906,10.799496 29.6732057,10.8004516 29.6193208,10.8004516 C25.936188,10.8912312 22.8338146,13.9978049 22.8457891,17.5850327 C22.8557677,21.1254374 25.9571432,24.1918769 29.6183229,24.2826565 C31.5601751,24.3275686 33.519989,23.5755312 34.9788728,22.2109704 C36.3659101,20.9123442 37.1602135,19.1989986 37.1552241,17.5085867 L37.1542263,17.3604726 C37.1422518,16.4813438 37.0384735,15.7837742 36.8349083,15.2266741 C35.9976966,12.9342501 33.6357417,11.2600831 30.6700764,10.8587417 C30.3777009,10.8195631 30.0783403,10.799496 29.7809755,10.799496 M29.7929499,26.313253 C29.7161141,26.313253 29.6392782,26.3113419 29.5634402,26.3094307 C24.7876413,26.191895 20.7412843,22.1985479 20.7273141,17.5907662 C20.7123461,12.9294723 24.7597009,8.89121314 29.5654359,8.77367744 C30.0334363,8.76221054 30.5054281,8.78896663 30.9664434,8.85012342 C34.719427,9.35848922 37.7339879,11.5458 38.8346369,14.5577717 C39.1180316,15.3356096 39.2567353,16.2185608 39.2717033,17.3356277 L39.2727012,17.50572 C39.2786884,19.7379428 38.2528795,21.982588 36.4597098,23.6615329 C34.6505741,25.3538559 32.2317407,26.313253 29.7929499,26.313253" id="Fill-26"></path>
                                <path d="M20.804821,40.5662651 C20.7646571,40.5662651 20.7244931,40.564295 20.6833729,40.55937 C10.6854206,39.3320492 5.45454545,29.0002934 5.45454545,19.4279792 C5.45454545,18.7493082 5.48132141,18.0686673 5.53391705,17.4057564 C5.57886241,16.8314964 6.07421768,16.4089277 6.62695,16.448328 C7.18542003,16.4956084 7.60235999,16.9999329 7.55645834,17.5751779 C7.50864413,18.1819432 7.48473702,18.8054537 7.48473702,19.4279792 C7.48473702,28.0783253 12.1007213,37.4014322 20.9234003,38.4829717 C21.4799577,38.5509373 21.877772,39.0710219 21.8108321,39.645282 C21.7496299,40.1762016 21.3116517,40.5662651 20.804821,40.5662651" id="Fill-28"></path>
                                <path d="M3.31205649,20.8313253 C3.050914,20.8313253 2.78977151,20.7430822 2.57659397,20.5623939 C2.10227393,20.1621484 2.04791366,19.4583046 2.45401688,18.9908263 C3.60197795,17.6724323 4.8202876,16.3225229 6.40632852,14.6143886 C6.61417662,14.3916798 6.90516397,14.2603656 7.21213963,14.253012 C7.52231296,14.2582646 7.81649796,14.3612149 8.03500495,14.5744691 C8.27163202,14.8034809 8.50932498,15.0461495 8.74914971,15.2919695 C9.54749961,16.1092688 10.4535042,17.0358213 11.1942961,17.2543281 C11.7922591,17.4318648 12.1312114,18.0527181 11.9521423,18.6431064 C11.7730732,19.2334948 11.1420676,19.5644065 10.5430387,19.3900213 C9.29808189,19.0223417 8.26310492,18.0064955 7.26863168,16.9916998 C6.07910099,18.2838309 5.10061607,19.3742636 4.17116199,20.4426354 C3.94732557,20.6989606 3.63075691,20.8313253 3.31205649,20.8313253" id="Fill-30"></path>
                                <path d="M66.9345118,82.8755203 L72.0818943,87.488065 L78.8364722,81.0516898 C79.0335343,80.8636759 79.2989246,80.7586935 79.5752077,80.7586935 C79.8683253,80.762511 80.1366863,80.8732197 80.331768,81.0688687 L85.3246696,86.0631676 C86.6833092,84.7594771 88.095423,83.565541 89.4689165,82.4040539 C89.9125539,82.0299348 90.3542108,81.6558158 90.7938872,81.2788335 L85.3157572,76.3599311 C85.1058216,76.1719172 84.9850097,75.9094612 84.9810486,75.6336439 C84.9770876,75.3587809 85.0899774,75.0925073 85.2929812,74.8987671 L91.2989209,69.1753178 L86.5258575,64.3022259 L80.1218324,70.3730715 C79.7217665,70.7538713 79.0800767,70.7615063 78.6691179,70.3921592 L71.3936621,63.8584367 C70.8094075,64.480696 70.2043573,65.0962746 69.5735603,65.7366672 C68.8526495,66.4715439 68.1109432,67.2255084 67.3296264,68.06155 L74.018847,74.7527461 C74.4189129,75.1526336 74.4100005,75.7882543 73.9990417,76.1776435 L66.9345118,82.8755203 Z M72.1046703,89.9036145 C71.8481924,89.9036145 71.5907243,89.8139022 71.3887108,89.632569 L64.6984999,83.6380743 C64.4885644,83.4491059 64.3677524,83.18665 64.3637913,82.9108326 C64.35884,82.6331064 64.4727202,82.3677873 64.6777044,82.174047 L71.7838254,75.4360861 L65.1411471,68.7907005 C64.7618767,68.4118095 64.748013,67.8153186 65.1084685,67.420203 C66.1561658,66.2692142 67.1177103,65.2909692 68.0485567,64.3442189 C68.9239484,63.4528229 69.7518075,62.6101006 70.5261925,61.7463818 C70.713352,61.5392802 70.9797325,61.4133013 71.264928,61.3980311 C71.5600261,61.390396 71.8293774,61.482017 72.0373325,61.6681222 L79.3652721,68.2486096 L85.8168298,62.1329079 C86.017853,61.9420308 86.2832433,61.8284589 86.5723998,61.8418203 C86.8556148,61.8475466 87.1239758,61.9611185 87.3180672,62.1596307 L93.531962,68.5043849 C93.9231155,68.903318 93.9122226,69.5322579 93.5062152,69.918784 L87.5487983,75.5973772 L93.0665388,80.5506375 C93.2814257,80.7443777 93.4022376,81.0144688 93.4012474,81.2979212 C93.3992669,81.5813737 93.2744938,81.8505104 93.0576264,82.0413875 C92.3327546,82.6770082 91.5950093,83.3011762 90.8552835,83.927253 C89.2550199,85.2786628 87.6022724,86.6768374 86.078259,88.2153067 C85.8802066,88.4157276 85.6068943,88.5292995 85.3207085,88.5292995 C85.0325422,88.5292995 84.7592299,88.4176364 84.5611775,88.2200786 L79.5563927,83.2133728 L72.8434058,89.6106181 C72.6394118,89.8062671 72.3720411,89.9036145 72.1046703,89.9036145 Z" id="Fill-32"></path>
                                <path d="M33.064038,72.1043084 C33.0188182,72.1043084 32.9735984,72.1052208 32.9293617,72.1070456 C31.008503,72.1800378 29.3756749,73.7685304 29.3589632,75.5769119 C29.3383194,77.9008008 31.2218225,79.1562665 33.0915631,79.1945874 C34.1581607,79.2183099 35.21886,78.7986048 36.0131557,78.0449604 C36.8162988,77.2831044 37.2311413,76.3040967 37.1829724,75.2885928 C37.1760911,75.1681557 37.1633116,75.0513682 37.1377526,74.9382303 C36.8025362,73.4245547 35.3515703,72.3214602 33.439559,72.1243813 C33.312747,72.1116077 33.187901,72.1043084 33.064038,72.1043084 M33.1731554,81.1325301 C33.1299017,81.1325301 33.087631,81.1316177 33.0453603,81.1316177 C29.7276029,81.0622751 27.2454289,78.6672189 27.272954,75.5604887 C27.298513,72.7046692 29.7964157,70.2877153 32.8418712,70.1718402 C33.1112239,70.1636286 33.3904071,70.1709278 33.6695902,70.1992122 C36.4977941,70.4902686 38.6614634,72.1964611 39.1814912,74.5458972 C39.226711,74.7484506 39.2552191,74.9701644 39.2670156,75.2037394 C39.3407435,76.7374878 38.6978359,78.2666742 37.5044262,79.3989656 C36.3385417,80.5047973 34.766662,81.1325301 33.1731554,81.1325301" id="Fill-34"></path>
                                <path d="M54.124991,65.8001441 C53.9080083,65.8001441 53.6890349,65.7343893 53.5009168,65.5979727 C53.0301239,65.2584032 52.9285999,64.6057625 53.2739807,64.1425348 C53.8034982,63.4310093 54.3031558,62.6802271 54.7590186,61.9117795 C55.0536374,61.4161651 55.7015997,61.2512874 56.2042432,61.5388419 C56.7078821,61.830322 56.8770888,62.4682415 56.58247,62.9648373 C56.0897798,63.7941327 55.5493136,64.6057625 54.9769967,65.3751916 C54.7709626,65.6529319 54.4494698,65.8001441 54.124991,65.8001441 M47.5727091,72.0380153 C47.2342956,72.0380153 46.9018541,71.8780447 46.6968154,71.5806761 C46.3703459,71.10469 46.4967533,70.4569564 46.9794902,70.134071 C47.7180278,69.6414008 48.4436261,69.09966 49.1343877,68.5235696 C49.5802972,68.1525949 50.2481661,68.2075541 50.6224116,68.6472278 C50.9996431,69.0869016 50.9429091,69.7434679 50.4969996,70.1144427 C49.7495039,70.7376409 48.9641856,71.3245269 48.1639373,71.8593978 C47.9827866,71.9810932 47.7767525,72.0380153 47.5727091,72.0380153 M39.2377844,75.6506024 C38.7570382,75.6506024 38.3230727,75.3257542 38.2096047,74.844861 C38.0772253,74.2844733 38.4305687,73.725067 38.9989043,73.5945388 C39.8708167,73.3943302 40.739743,73.1421067 41.5827907,72.8437567 C42.1332102,72.6513994 42.7373778,72.9311026 42.9334585,73.471862 C43.1305346,74.0145843 42.8448738,74.6103029 42.296445,74.804623 C41.3777519,75.1294713 40.4282035,75.4052488 39.4776598,75.6231228 C39.3970378,75.6417697 39.3164158,75.6506024 39.2377844,75.6506024" id="Fill-36"></path>
                                <path d="M50.0664706,31.4048134 C49.8110483,31.4048134 49.5556261,31.3103225 49.3534579,31.1193304 C48.7055335,30.5051398 48.0142169,29.8959753 47.2992319,29.3069152 C46.8485448,28.9369936 46.7785255,28.2655053 47.1404559,27.8071241 C47.5043586,27.3477377 48.1631311,27.2763669 48.612832,27.6462886 C49.3662783,28.2665105 50.09507,28.9088473 50.7794832,29.5572155 C51.2025572,29.958299 51.2272118,30.6328029 50.8327373,31.0640431 C50.6266244,31.2902181 50.3475337,31.4048134 50.0664706,31.4048134 M55.7942404,38.5348525 C55.437241,38.5348525 55.0891172,38.3478812 54.8928662,38.0111319 C54.4461238,37.2401267 53.9471135,36.4721371 53.4116144,35.7272677 C53.0694078,35.2528029 53.1690126,34.5843303 53.6354787,34.2365235 C54.1019448,33.8887168 54.7577587,33.989239 55.0979929,34.4647089 C55.6749119,35.2658708 56.2113972,36.0931684 56.6946285,36.924487 C56.9894982,37.4321241 56.8238189,38.0855183 56.326781,38.3860797 C56.1601155,38.4866019 55.9756987,38.5348525 55.7942404,38.5348525 M58.9520089,47.1445783 C58.454971,47.1445783 58.0131595,46.7816932 57.9234166,46.2640039 C57.7675992,45.3753877 57.5605,44.4837559 57.3080364,43.6152441 C57.1433432,43.0513146 57.4589229,42.4572285 58.0131595,42.2903616 C58.5644377,42.1204791 59.1492461,42.4431554 59.3139392,43.0090953 C59.5890852,43.9519935 59.8149219,44.9220326 59.9835597,45.8910666 C60.0851369,46.4710796 59.7054552,47.0249569 59.1364257,47.1274895 C59.074296,47.138547 59.0131524,47.1445783 58.9520089,47.1445783" id="Fill-38"></path>
                            </g>
                        </g>
                    </g>
                </g>
            </g>
        </g>
    </g>
</svg>