<?xml version="1.0" encoding="UTF-8"?>
<svg width="104px" height="78px" viewBox="0 0 104 78" version="1.1" xmlns="http://www.w3.org/2000/svg" xmlns:xlink="http://www.w3.org/1999/xlink">
    <!-- Generator: Sketch 52.6 (67491) - http://www.bohemiancoding.com/sketch -->
    <title>5</title>
    <desc>Created with Sketch.</desc>
    <g id="LP-SPRINT" stroke="none" stroke-width="1" fill="none" fill-rule="evenodd">
        <g id="Desktop-HD" transform="translate(-997.000000, -2971.000000)">
            <g id="3-Como-Trabalhamos" transform="translate(208.000000, 2156.000000)">
                <g id="Cardss" transform="translate(50.000000, 199.000000)">
                    <g id="5" transform="translate(657.000000, 498.000000)">
                        <g transform="translate(82.000000, 118.000000)">
                            <g id="azul" opacity="0.55" transform="translate(6.000000, 7.000000)" fill="#009CD5">
                                <path d="M78.9440169,2.15647037 C78.5964954,1.60519763 77.6587865,1.35865347 77.1844396,1.93260828 C77.1165331,2.01446094 77.0576142,2.10025831 76.9937022,2.18309714 C76.7600239,0.963196635 75.8293054,-0.0693303115 74.1795768,0.00364676013 C61.5130164,0.565767447 48.8294795,0.913887803 36.149937,0.990809581 C29.9324973,1.02828429 23.7170549,0.981933991 17.4996153,1.01842253 C11.9542503,1.05195253 5.72582576,0.246246215 0.538967167,2.49867367 C-0.220986508,2.82904285 -0.137102002,4.01837188 0.538967167,4.37438165 C5.53808425,7.00747329 11.9822118,6.51931585 17.4996153,6.74317795 C23.7160563,6.99563917 29.9295015,7.02719682 36.149937,7.00451476 C48.8374685,6.95816445 61.5100205,6.58933439 74.1795768,5.90394162 C74.6519264,5.87830103 75.0653572,5.76489071 75.4218663,5.5883651 C74.9455222,7.50056161 74.8985868,9.56265697 74.7577807,11.5498029 C74.4282344,16.2144184 74.1995493,20.8780478 74.0317802,25.5505527 C73.7152161,34.3926125 73.9998242,43.1419717 74.0557472,51.9682527 C63.5931524,52.9278025 53.0346896,52.7009819 42.5371429,52.7305672 C37.0107518,52.746346 31.4853593,52.7029543 25.9589682,52.6408251 C22.9451178,52.606309 19.9292701,52.6171569 16.9184155,52.7621249 C13.8736077,52.9090652 10.8967063,53.8942557 7.88185727,53.9642742 C7.03502322,53.9830115 7.07696547,55.1437415 7.88185727,55.2344697 C10.9256665,55.5756868 13.8436489,56.7857256 16.9184155,57.173293 C19.9162879,57.5519848 22.9411233,57.737386 25.9589682,57.8705199 C31.7330183,58.1259396 37.5130602,58.2935897 43.2911048,58.4316544 C54.3249132,58.6929912 65.5973929,59.1288813 76.5393278,57.4494225 C78.5186027,57.14568 78.9979427,54.9336858 78.3068941,53.3696097 C78.3478378,53.203932 78.3757993,53.0283926 78.3777965,52.8360881 C78.4836508,44.0009316 79.1447406,35.1273141 79.4892662,26.2872267 C79.6520421,22.1107686 79.8517671,17.9362829 80.0165403,13.7598248 C80.1623395,10.0301047 81.0371351,5.47495478 78.9440169,2.15647037" id="Fill-1"></path>
                                <path d="M35.6717672,19.6446064 C34.7485302,19.3537205 33.9320141,19.8647363 33.40445,20.545763 C31.851962,22.5495342 33.1285864,25.1979714 32.8778928,27.5280065 C32.5375939,30.6815631 30.9196637,33.7289857 28.401653,35.7347224 C25.8776014,37.7453727 22.6528159,38.4676737 19.4401121,38.3890559 C16.5958976,38.3202654 13.7396015,36.561192 10.9779447,36.8727151 C10.656775,36.9090758 10.2933197,37.1341193 10.3295645,37.5055884 C10.7071151,41.339189 15.979735,43.0245581 19.2749966,43.5375393 C23.596189,44.2107042 28.1912314,43.0422471 31.7019486,40.506823 C35.0898359,38.0608266 37.4830033,34.3048611 38.4304036,30.3091113 C39.229804,26.9354248 39.8600618,20.9663682 35.6717672,19.6446064" id="Fill-3"></path>
                                <path d="M25.7841425,11.3278097 C25.7932249,11.3127925 25.8012982,11.2987764 25.8103807,11.2837592 C25.0131437,10.7030942 23.9949005,10.455811 22.9595016,10.4548099 C20.0652287,10.0633616 16.72087,10.7941986 15.2454771,13.3681462 C14.2918202,15.0320517 15.5512528,16.6448988 17.2597619,16.8501338 C17.6170048,16.8931831 17.970211,16.9051969 18.3193806,16.9092015 C18.3385547,16.9342301 18.3536921,16.9602599 18.3738753,16.9852886 C19.6565186,18.635178 21.7283255,18.7843489 23.3783033,17.7842035 C23.5892179,17.8122356 23.8011417,17.8412689 24.0130654,17.8672987 C25.7427669,18.0895532 27.3251309,16.352564 27.5108165,14.8037903 C27.6904471,13.3040729 26.993117,12.0596478 25.7841425,11.3278097" id="Fill-5"></path>
                                <path d="M96.472583,17.7050003 C95.4579717,16.7211857 93.4734116,16.2975336 92.2432561,17.1759058 C91.2402959,17.8914072 90.5878377,18.8733389 89.6674057,19.6481516 C89.6809986,19.6029621 89.3508858,19.7780716 89.1217488,19.8430316 C89.2081606,19.818554 89.8645025,19.910816 89.0023256,19.8505632 C88.6993986,19.8298514 88.4149191,19.7978421 88.1100503,19.7903105 C86.5167708,19.7507696 85.5914842,21.2504984 85.8779055,22.6316045 C86.3653073,24.9833449 89.2003933,25.9031408 91.3713701,25.6056429 C93.5656489,25.3043791 96.0832441,23.8328938 97.01824,21.8059535 C97.6619598,20.411667 97.6522506,18.8488612 96.472583,17.7050003" id="Fill-7"></path>
                                <path d="M52.3713648,53.024225 C50.2791682,53.6707793 49.2370895,55.0856604 47.5991066,56.4241921 C45.4697288,58.1628337 43.4910856,58.7253069 40.7527399,59.0152416 C36.2256767,59.4946002 32.9406668,60.2600277 28.9401699,62.3630205 C24.8582763,64.5075705 20.097072,64.2128036 15.6242732,64.988862 C12.5854632,65.5165431 8.97185184,66.1582652 8.05739512,69.4151979 C7.91771437,69.9148519 8.38197701,70.2492433 8.85427883,70.1815918 C10.9575293,69.8781269 12.7954868,68.7966706 14.8645707,68.3521041 C16.9658114,67.899806 19.1534732,68.1249886 21.2838559,68.0689346 C25.8953305,67.947162 29.1110025,66.9149946 32.9999558,64.6496385 C37.1632461,62.2248183 42.2389833,64.620645 46.7881543,62.9061647 C50.0520613,61.6768418 54.1440039,58.9756172 55.016255,55.5679184 C55.3920866,54.100849 53.9842252,52.5265038 52.3713648,53.024225" id="Fill-10"></path>
                                <path d="M90.9838302,22.910646 C90.9218023,22.8262379 90.8607437,22.7407876 90.7987158,22.6553374 C90.1387005,21.7456051 88.5860655,21.6403554 87.7244596,22.2291283 C86.6787086,22.9439924 86.4635494,24.1851049 85.3208798,24.5769255 C83.8777627,25.0708695 82.3542032,24.8134767 80.9198088,25.4970786 C78.8951804,26.4609988 76.5788273,28.823385 76.9112579,31.3754291 C76.9752241,31.8662468 77.5160296,32.2163844 77.9405328,32.2184685 C79.0754489,32.2226368 79.7325566,31.5359088 80.6765432,30.9304626 C82.1506743,29.9842576 83.2671759,30.0957598 84.9584044,30.1384849 C87.4550261,30.2020515 90.3015237,29.3569279 91.4403165,26.7142233 C92.0538109,25.2907475 91.8560971,24.1132017 90.9838302,22.910646" id="Fill-12"></path>
                                <path d="M72.2016396,46.0264227 C71.4908081,46.028422 71.2267283,46.3463117 70.6280811,46.5622368 C69.8189643,46.8551353 70.4573227,46.8331429 69.152808,47.1220427 C65.9123697,47.8397937 62.16462,47.7028412 58.8656075,47.9287629 C52.492944,48.366611 46.1123381,48.6884993 39.728754,48.8934283 C33.3431842,49.0983572 26.9576145,49.1663336 20.5700592,49.1633346 C14.2311502,49.1603357 7.23899106,48.3606131 1.03013641,49.7781214 C-0.416346039,50.1090066 -0.268421616,52.1752899 1.03013641,52.5821488 C7.10198723,54.4834893 14.2668903,54.0076544 20.5700592,54.0656342 C27.4460629,54.1276127 34.3290161,53.9976578 41.2020415,53.7627393 C48.0760597,53.5268211 54.9461067,53.1579491 61.8062259,52.6531242 C65.4626397,52.3842175 73.1279046,53.5448149 74.4900006,49.0513735 C74.9407234,47.5618901 73.7096745,46.0214244 72.2016396,46.0264227" id="Fill-14"></path>
                            </g>
                            <g id="preto" opacity="0.65" fill="#000000">
                                <path d="M6.09335965,60.7444898 C5.81748999,60.7444898 5.55253604,60.6377201 5.35605334,60.4467101 C5.15460895,60.2527615 5.04148254,59.9873066 5.0404902,59.7100972 C5.0027814,51.515279 4.90751706,43.2097729 4.8172144,35.1775581 C4.71599604,26.2559224 4.61180067,17.0316093 4.58401523,7.91896355 C4.58203056,7.34495405 5.05239825,6.87869377 5.63291533,6.87673469 C6.21640942,6.87673469 6.68776945,7.34005636 6.68975412,7.91210678 C6.71753956,17.0159366 6.82173493,26.2363316 6.92394563,35.1530696 C7.01027894,42.8473437 7.1005816,50.7914001 7.14126741,58.6512162 L78.5964701,57.6853914 C78.64311,46.3981704 78.8306616,34.9483461 79.014244,23.8648691 C79.1005773,18.6037684 79.1869106,13.3416881 79.2593512,8.08058738 C79.2682822,7.50755742 79.7267419,7.05599022 80.3271057,7.05599022 C80.9086151,7.06382653 81.3730288,7.53596404 81.3660824,8.108994 C81.2936418,13.3730333 81.2063162,18.6351136 81.1199828,23.8981734 C80.9314388,35.3107753 80.7369408,47.1112744 80.6982397,58.7139067 C80.696255,59.2810594 80.2348183,59.742422 79.6602553,59.7502583 C79.6602553,59.7502583 6.10725237,60.7444898 6.09335965,60.7444898" id="Fill-16"></path>
                                <path d="M2.5159918,6.88971845 L84.9417356,7.08667953 C84.8899632,5.58056415 84.8630813,4.14402209 84.8610901,2.72805805 L2.20535702,2.08817949 C2.33877068,3.7481401 2.43534623,5.38556288 2.5159918,6.88971845 M86.0389136,9.16897959 C86.0359267,9.16897959 1.50941564,8.96711897 1.50941564,8.96711897 C0.947883543,8.96515916 0.485913872,8.53106084 0.457040767,7.97937382 C0.350508968,5.91275226 0.219086562,3.50904306 0.00403171481,1.13179133 C-0.0218545168,0.839779364 0.0777079124,0.549727215 0.279819643,0.335127821 C0.481931375,0.118568615 0.788583656,0.00293971773 1.06437158,0 L85.9283993,0.656536959 C86.5118351,0.661436489 86.9807742,1.12983151 86.9767917,1.70405638 L86.9738048,2.55755442 C86.9738048,4.33706355 87.0136298,6.14498996 87.095271,8.08716347 C87.1072185,8.36937637 86.999691,8.64570984 86.8005662,8.85051017 C86.6014413,9.0543306 86.326649,9.16897959 86.0389136,9.16897959" id="Fill-18"></path>
                                <path d="M25.803996,18.1352841 C25.605229,18.1352841 25.4064621,18.1392206 25.2086841,18.1480776 C23.7322711,18.2149977 22.3062916,18.4885829 20.9732677,18.9629284 C15.7707167,20.809136 12.410468,25.9659208 12.4124458,32.0999359 C12.4154125,39.8479066 18.0886752,45.8421768 25.6101735,46.0439213 C29.4549783,46.1265873 33.1198052,44.6425355 35.9460532,41.8131927 C38.8405346,38.9139775 40.4257254,35.0168653 40.2961808,31.1207373 C40.1794918,27.6477805 38.7515345,24.5527256 36.1655868,22.1721412 C33.4263611,19.6518118 29.5064006,18.1352841 25.803996,18.1352841 M25.9800184,48.1371429 C25.8386071,48.1371429 25.6971958,48.1351746 25.5538068,48.1312381 C17.0107849,47.9029225 10.3169876,40.8615494 10.3140209,32.0999359 C10.3120432,25.0723405 14.2181592,19.1440063 20.2672001,16.9966581 C21.798002,16.4514561 23.4286819,16.137522 25.1147395,16.0617449 C29.5874896,15.8600004 34.2580177,17.5723679 37.5905774,20.6388834 C40.5977923,23.4072108 42.2591278,27.008103 42.3936168,31.0518489 C42.5419503,35.5207344 40.7352481,39.9797786 37.4353217,43.2854351 C34.3015289,46.4237913 30.2480682,48.1371429 25.9800184,48.1371429" id="Fill-20"></path>
                                <path d="M26.0617412,25.030042 C25.9599739,25.030042 25.8602022,25.0320286 25.7594326,25.0360018 C25.0101465,25.0697736 24.2877988,25.2088343 23.6103484,25.4492106 C20.9953299,26.3779372 19.3061936,28.9863179 19.3071913,32.0953171 C19.3091867,36.0158345 22.1716392,39.0493436 25.966958,39.1506592 C27.922485,39.1963506 29.7632744,38.4394633 31.1949995,37.0051518 C32.6656356,35.5321021 33.4707939,33.5564473 33.4049446,31.5827792 C33.3311134,29.3766811 32.2346215,27.9185307 31.327696,27.0831734 C29.9348819,25.8018287 27.9424393,25.030042 26.0617412,25.030042 M26.1535312,41.2604082 C26.0727161,41.2604082 25.9919009,41.2604082 25.910088,41.2574283 C21.0222683,41.1273072 17.1910317,37.1024943 17.190034,32.0953171 C17.1890363,28.0834169 19.4289129,24.6953031 22.8989756,23.463623 C23.7749718,23.152723 24.7048449,22.9729375 25.6646495,22.9312193 C28.2008482,22.8189774 30.8687458,23.7894222 32.7654074,25.5356269 C34.4904616,27.1238983 35.4442799,29.1909358 35.5211041,31.5122556 C35.6069079,34.0640188 34.5772631,36.6078356 32.6975626,38.4921076 C30.9086545,40.2830103 28.5939491,41.2604082 26.1535312,41.2604082" id="Fill-22"></path>
                                <path d="M21.9010683,25.2146939 C21.4881334,25.2146939 21.1001667,24.9581974 20.9465165,24.5401669 C20.2262812,22.5831576 19.4820381,20.5595766 19.4820381,18.2305495 C19.4820381,17.656859 19.9381871,17.1918367 20.5009309,17.1918367 C21.0636747,17.1918367 21.5198237,17.656859 21.5198237,18.2305495 C21.5198237,20.1816849 22.1680355,21.9448534 22.8546597,23.8117952 C23.0524843,24.348284 22.7864774,24.9474285 22.2583049,25.1481223 C22.1411467,25.194135 22.0201471,25.2146939 21.9010683,25.2146939" id="Fill-24"></path>
                                <path d="M30.8663377,25.2146939 C30.8159873,25.2146939 30.7656369,25.211632 30.7142795,25.2044875 C30.129208,25.1197746 29.7233838,24.5706714 29.8069654,23.9787014 C30.0013179,22.5967577 30.7867841,21.4138384 31.4806125,20.3697259 C31.8159462,19.8645102 32.1321467,19.3878723 32.3557024,18.9357297 C32.6185315,18.4019361 33.2610025,18.1855609 33.7886746,18.4519473 C34.3173538,18.7193545 34.5308395,19.3695008 34.2670034,19.9053357 C33.9830272,20.4819961 33.6114412,21.0392643 33.2529464,21.5791818 C32.6608258,22.4712193 32.048565,23.3948966 31.922689,24.2848928 C31.8461564,24.8248102 31.3899818,25.2146939 30.8663377,25.2146939" id="Fill-26"></path>
                                <path d="M28.5504972,46.9910204 C27.925744,46.9910204 27.3865574,46.6167208 27.3150566,46.112068 C27.1743992,45.1009004 27.0091267,44.1046302 26.8438543,43.10836 C26.6762376,42.0990546 26.509793,41.0897491 26.3656192,40.0655461 C26.2906019,39.5227185 26.7817306,39.0338944 27.4650911,38.9733733 C28.143763,38.9184388 28.7614833,39.3039115 28.8388449,39.8467391 C28.9795023,40.8579068 29.1447747,41.8541769 29.3100471,42.8504471 C29.4776638,43.8597526 29.6441084,44.8690581 29.7882822,45.893261 C29.8644716,46.4360886 29.3721708,46.9249128 28.6899825,46.9854338 C28.6430967,46.9891582 28.5962109,46.9910204 28.5504972,46.9910204" id="Fill-28"></path>
                                <path d="M69.990616,20.6302041 C67.3192996,20.6302041 64.60096,20.6248534 61.8826204,20.6195027 C59.1652813,20.6152221 56.4489427,20.6098714 53.7786268,20.6098714 C53.1923379,20.6098714 52.7161032,20.1004836 52.7161032,19.4733802 C52.7161032,18.8462768 53.1923379,18.3379592 53.7786268,18.3379592 C56.4499432,18.3379592 59.1682828,18.3433099 61.8866224,18.3486606 C64.6039615,18.3540113 67.3213006,18.359362 69.990616,18.359362 C70.5769049,18.359362 71.0521391,18.8676796 71.0521391,19.4947831 C71.0521391,20.1218865 70.5769049,20.6302041 69.990616,20.6302041" id="Fill-30"></path>
                                <path d="M52.6112373,26.3608163 C52.069863,26.3608163 51.6120037,25.9282982 51.5727025,25.3620742 C51.5324188,24.7705271 51.9647322,24.2559622 52.53853,24.2134194 C54.5075212,24.0685714 56.5619925,24.0685714 58.5486693,24.0685714 C59.1244322,24.0685714 59.5921167,24.5507228 59.5921167,25.1442957 C59.5921167,25.7368557 59.1244322,26.2190071 58.5486693,26.2190071 C56.5983462,26.2190071 54.5821935,26.2190071 52.6868921,26.3577776 C52.6613463,26.3598034 52.6367831,26.3608163 52.6112373,26.3608163" id="Fill-32"></path>
                                <path d="M64.0471825,26.3608163 C63.5918204,26.3608163 63.1767219,26.0406202 63.0607244,25.5588299 C62.9245951,24.9922524 63.2553318,24.4176949 63.8008076,24.275053 C64.3424488,24.1344061 64.9070978,24.0685714 65.5781578,24.0685714 C66.0565276,24.0685714 66.5262696,24.1024863 66.9797144,24.1354036 C67.6191386,24.1812884 68.207754,24.2271732 68.8049974,24.174306 C69.3543079,24.1324111 69.8556855,24.5583418 69.9026597,25.1418767 C69.9486752,25.7244141 69.5326181,26.2361294 68.9727624,26.2840092 C68.2451417,26.3468514 67.5223143,26.2969766 66.8387918,26.2471018 C65.8638376,26.1772771 64.9770798,26.1513422 64.294516,26.3288965 C64.2120715,26.3508414 64.1286683,26.3608163 64.0471825,26.3608163" id="Fill-34"></path>
                                <path d="M70.0246096,32.0914286 C65.8002138,32.0914286 61.5322377,31.9796239 57.4056557,31.8715461 C56.1786247,31.8389364 54.9496568,31.8063267 53.7187519,31.7774438 C53.1522064,31.7634682 52.7028438,31.3097277 52.7164021,30.7637483 C52.730929,30.2177689 53.1841654,29.787321 53.7700799,29.7994331 C55.0029217,29.8292477 56.2328581,29.8618574 57.4618261,29.8944671 C61.5748496,30.0025449 65.828299,30.1143496 70.0246096,30.1143496 C70.5921235,30.1143496 71.0521391,30.5569097 71.0521391,31.1028891 C71.0521391,31.6488685 70.5921235,32.0914286 70.0246096,32.0914286" id="Fill-36"></path>
                                <path d="M58.5613018,37.8220408 C58.5126707,37.8220408 58.4630671,37.8182691 58.414436,37.8126116 C56.5421403,37.5523649 54.432525,37.5306777 52.602052,37.5306777 C52.032096,37.5306777 51.570101,37.0827895 51.570101,36.5302368 C51.570101,35.9776842 52.032096,35.5297959 52.602052,35.5297959 C54.5035264,35.5297959 56.6997049,35.5524261 58.7062224,35.8305882 C59.2703426,35.9088508 59.6623089,36.4161432 59.5815814,36.9630383 C59.5076622,37.4618444 59.0670648,37.8220408 58.5613018,37.8220408" id="Fill-38"></path>
                                <path d="M71.1357069,38.9681633 C71.0735715,38.9681633 71.0114361,38.9632146 70.9493007,38.9523274 C70.2638072,38.8325685 69.5262001,38.7771429 68.625237,38.7771429 C68.0700273,38.7771429 67.516822,38.7969377 66.9616123,38.8167326 C65.9955074,38.8513736 65.0263959,38.8850248 64.0302254,38.82663 C63.4449502,38.791989 62.9969742,38.2941482 63.0320506,37.7151486 C63.0661248,37.1371386 63.542162,36.6897748 64.1575027,36.7303542 C65.0825181,36.7838004 65.9844833,36.7491594 66.883442,36.7174876 C67.4647085,36.696703 68.0439706,36.6759184 68.625237,36.6759184 C69.6534774,36.6759184 70.5093421,36.7412414 71.3191064,36.8827747 C71.8983685,36.9847182 72.283207,37.5290769 72.1819865,38.1011484 C72.0907878,38.6098763 71.6418096,38.9681633 71.1357069,38.9681633" id="Fill-40"></path>
                                <path d="M11.3742225,77.9363265 C11.0467294,77.9363265 10.7232302,77.7894928 10.5165501,77.5132134 C10.1720833,77.0543579 10.2779195,76.4129262 10.7511869,76.0806182 C14.4294933,73.501367 18.202653,71.3268748 21.4076919,69.5407193 C21.6233581,69.4199678 21.877964,69.3774633 22.1215869,69.4199678 C23.8948421,69.7242615 25.6631051,69.682723 27.5352073,69.6411845 C29.1377268,69.6044761 30.790169,69.5658356 32.4605834,69.7619359 C33.6537366,68.9929907 34.8149392,68.4964607 35.9401974,68.0153869 C37.1553166,67.4956726 38.3025408,67.0059047 39.4637434,66.1944549 C39.6444637,66.0688734 39.8611283,66.0002866 40.0847821,66.0002866 C42.9723126,66.0389271 46.5427859,66.121038 49.1257877,66.1828628 C51.4521868,64.1069038 53.8115348,62.1903366 56.3016803,60.1675082 L56.705056,59.8390643 C57.153362,59.4739119 57.8213281,59.5309066 58.1977455,59.9646458 C58.5741628,60.398385 58.5162524,61.0456128 58.0679464,61.4088332 L57.6645707,61.7372772 C55.0815689,63.8354545 52.6413461,65.8177104 50.2520444,67.9690183 C50.0493582,68.1515945 49.7588079,68.2404676 49.504202,68.2433656 C47.0010765,68.1825069 43.3786835,68.0984639 40.4122752,68.0549934 C39.1731931,68.8751373 37.9660616,69.3909875 36.7968714,69.8904155 C35.6047167,70.3995036 34.4794585,70.8815435 33.3372265,71.6649789 C33.116568,71.8185748 32.8449884,71.8852296 32.5724103,71.8446571 C30.9359434,71.6147463 29.3074641,71.6524207 27.5861285,71.6910612 C25.8168671,71.7316337 23.9886969,71.7731722 22.1385607,71.4997909 C19.0523377,73.2241217 15.4698829,75.3029788 11.9952612,77.7411922 C11.8075518,77.8725698 11.5898887,77.9363265 11.3742225,77.9363265" id="Fill-42"></path>
                                <path d="M80.1361363,38.9681633 C79.8519148,38.9681633 79.5696948,38.8516263 79.359531,38.6206151 C78.959219,38.1792185 78.9832377,37.4861848 79.4115716,37.0736646 C80.26924,36.2486244 81.0948836,35.3214855 81.8925052,34.4242542 C82.5960536,33.6342782 83.3226199,32.8174884 84.0902182,32.0471071 C84.2943773,31.840847 84.5465738,31.7346231 84.8618195,31.7366857 C85.9536705,31.7366857 87.0355137,31.6985276 88.0823296,31.6614008 C88.7938842,31.6366495 89.5054388,31.6118983 90.2159926,31.5964288 C90.9495644,30.6239127 91.7351767,29.6905859 92.4987719,28.784073 L93.2503577,27.8889043 C93.6326556,27.4299757 94.3011767,27.3773794 94.7475246,27.7703048 C95.1928717,28.1632302 95.2439115,28.8542014 94.8626143,29.31313 L94.1030222,30.219643 C93.2523592,31.2292859 92.3726736,32.2729618 91.5960683,33.3393263 C91.3979139,33.6105583 91.0896736,33.7724724 90.7594162,33.7765976 C89.8927407,33.7879419 89.0240636,33.8178496 88.1553866,33.8487887 C87.2096495,33.8817903 86.2348897,33.9168545 85.269137,33.9251049 C84.650655,34.5645111 84.045183,35.2441379 83.4577252,35.9041701 C82.6330824,36.8313091 81.7794171,37.7904183 80.860701,38.6742427 C80.6565419,38.8701897 80.3963391,38.9681633 80.1361363,38.9681633" id="Fill-44"></path>
                                <path d="M95.398591,21.4639172 L95.2693848,21.4685801 C93.8272453,21.5562412 92.6276158,22.7844294 92.6435181,24.1497046 C92.6614082,25.6492692 94.1293889,26.5864971 95.1352092,26.6601697 C96.5306357,26.7618193 97.3883658,26.2983345 97.8614591,25.8917361 C98.41307,25.4170605 98.7331037,24.7679952 98.7390671,24.112402 C98.740061,23.8904515 98.6993114,23.6479846 98.6168182,23.3952595 C98.1417371,21.9432557 96.583312,21.4191541 95.398591,21.4639172 M95.5059315,28.6530612 C95.3290184,28.6530612 95.1511115,28.6465333 94.9712167,28.6334774 C92.8611808,28.477739 90.5652867,26.728247 90.534476,24.1730187 C90.5056531,21.7483496 92.5659944,19.6500782 95.1292458,19.4934073 C95.1998122,19.4887445 95.2753482,19.4868793 95.3508841,19.4850142 C95.3816948,19.4859468 95.4254261,19.4840816 95.4622001,19.4840816 C97.909166,19.4840816 99.9794462,20.8129868 100.633428,22.8161366 C100.778537,23.2609701 100.851091,23.7011408 100.848109,24.1263905 C100.837176,25.3321971 100.268669,26.5053639 99.2876963,27.3502678 C98.3007601,28.198902 96.9729183,28.6530612 95.5059315,28.6530612" id="Fill-46"></path>
                                <path d="M11.368438,77.9363265 C10.7961145,77.9363265 10.3271272,77.5041798 10.3142102,76.962356 C10.3032804,76.4120954 10.7653124,75.9583883 11.3475721,75.9471393 L86.0188995,74.4988385 C86.5753251,74.4754032 87.0820699,74.9234859 87.0959806,75.4728091 C87.1069103,76.0221322 86.6448783,76.4767768 86.0626187,76.4880258 C86.0626187,76.4880258 11.3912912,77.9363265 11.368438,77.9363265" id="Fill-48"></path>
                                <path d="M86.0937265,76.7902041 C85.6874913,76.7902041 85.3058192,76.5227416 85.1556067,76.0895134 C84.8447896,75.1986498 84.804166,74.2701584 84.804166,73.5613321 C84.804166,73.3070902 84.8098344,73.0528483 84.8155028,72.8036912 C84.8202265,72.5779244 84.8258949,72.3562255 84.8258949,72.1385944 C84.8258949,71.5426514 85.274643,71.0595918 85.8282565,71.0595918 C86.38187,71.0595918 86.8306181,71.5426514 86.8306181,72.1385944 C86.8306181,72.372497 86.8258945,72.6114843 86.8202261,72.8545396 C86.8155024,73.0874252 86.809834,73.3233616 86.809834,73.5613321 C86.809834,74.1206642 86.8362865,74.7684726 87.0318462,75.3318726 C87.2264612,75.8901878 86.9647702,76.511555 86.4451671,76.7210503 C86.3299097,76.7688478 86.2108733,76.7902041 86.0937265,76.7902041" id="Fill-50"></path>
                                <path d="M71.0521391,76.7902041 C70.4191916,76.7902041 69.9061369,76.3486727 69.9061369,75.8039625 L69.9061369,73.1919559 C69.9061369,72.6472456 70.4191916,72.2057143 71.0521391,72.2057143 C71.6850866,72.2057143 72.1981414,72.6472456 72.1981414,73.1919559 L72.1981414,75.8039625 C72.1981414,76.3486727 71.6850866,76.7902041 71.0521391,76.7902041" id="Fill-52"></path>
                                <path d="M58.4461144,76.7902041 C57.8131669,76.7902041 57.3001122,76.3074657 57.3001122,75.7119191 L57.3001122,73.2839993 C57.3001122,72.6894689 57.8131669,72.2057143 58.4461144,72.2057143 C59.079062,72.2057143 59.5921167,72.6894689 59.5921167,73.2839993 L59.5921167,75.7119191 C59.5921167,76.3074657 59.079062,76.7902041 58.4461144,76.7902041" id="Fill-54"></path>
                                <path d="M44.6940875,76.7902041 C44.06114,76.7902041 43.5480853,76.3220973 43.5480853,75.7446014 L43.5480853,73.251317 C43.5480853,72.6748065 44.06114,72.2057143 44.6940875,72.2057143 C45.327035,72.2057143 45.8400898,72.6748065 45.8400898,73.251317 L45.8400898,75.7446014 C45.8400898,76.3220973 45.327035,76.7902041 44.6940875,76.7902041" id="Fill-56"></path>
                                <path d="M33.2872731,77.9363265 C32.7029872,77.9363265 32.2293766,77.4681827 32.2293766,76.8906411 C32.2293766,76.6688888 32.2383503,76.4461509 32.247324,76.223413 C32.2562976,76.0302421 32.2642742,75.8380568 32.2642742,75.6439003 C32.2642742,75.2595296 32.2273825,74.9776578 32.1426311,74.7302807 C31.9581722,74.1823061 32.2562976,73.5889955 32.8116684,73.4056802 C33.3660421,73.2233505 33.9652841,73.5190203 34.1507401,74.0669949 C34.3561375,74.6770602 34.3800673,75.2585441 34.3800673,75.6439003 C34.3800673,75.8666382 34.3710936,76.0893761 34.36212,76.3111284 C34.3541434,76.5042993 34.3451697,76.6974702 34.3451697,76.8906411 C34.3451697,77.4681827 33.8715591,77.9363265 33.2872731,77.9363265" id="Fill-58"></path>
                                <path d="M20.5566368,77.9363265 C19.9631261,77.9363265 19.4820381,77.4037678 19.4820381,76.7467585 C19.4820381,76.2870762 19.521538,75.8935434 19.5590122,75.5123434 C19.593448,75.1815964 19.6248453,74.8687882 19.6248453,74.5414048 C19.6248453,73.8843955 20.1059333,73.3518367 20.699444,73.3518367 C21.2929546,73.3518367 21.7740426,73.8843955 21.7740426,74.5414048 C21.7740426,75.001087 21.7345428,75.3957411 21.6960557,75.7758198 C21.6626328,76.1065668 21.6312355,76.4182539 21.6312355,76.7467585 C21.6312355,77.4037678 21.1501475,77.9363265 20.5566368,77.9363265" id="Fill-60"></path>
                            </g>
                        </g>
                    </g>
                </g>
            </g>
        </g>
    </g>
</svg>