<?xml version="1.0" encoding="UTF-8"?>
<svg width="124px" height="96px" viewBox="0 0 124 96" version="1.1" xmlns="http://www.w3.org/2000/svg" xmlns:xlink="http://www.w3.org/1999/xlink">
    <!-- Generator: Sketch 52.6 (67491) - http://www.bohemiancoding.com/sketch -->
    <title>4</title>
    <desc>Created with Sketch.</desc>
    <g id="LP-SPRINT" stroke="none" stroke-width="1" fill="none" fill-rule="evenodd">
        <g id="Desktop-HD" transform="translate(-662.000000, -2967.000000)">
            <g id="3-Como-Trabalhamos" transform="translate(208.000000, 2156.000000)">
                <g id="Cardss" transform="translate(50.000000, 199.000000)">
                    <g id="4" transform="translate(332.000000, 498.000000)">
                        <g transform="translate(72.000000, 114.000000)">
                            <g id="azul" opacity="0.55" transform="translate(11.006160, 8.816327)" fill="#009CD5">
                                <path d="M19.7202501,28.6724246 C19.4054655,26.8105898 16.6341063,26.1465788 15.0256721,26.9742676 C15.011031,26.9817075 15.000573,26.9891474 14.9869777,26.9965873 C14.8667112,26.9119584 14.7474904,26.8254696 14.6240865,26.7445607 C14.3521796,26.6171524 14.0698147,26.5315936 13.7696712,26.4860242 C12.8828363,26.353036 11.8401777,26.5641431 11.3915313,27.3471925 C10.3561933,29.1513681 11.5274848,31.6074649 13.4705736,32.557912 C14.7757269,33.1968134 16.4688705,33.2591226 17.7708865,32.561632 C18.3962724,32.2259065 18.9526359,31.7739326 19.3301682,31.2094303 C19.879211,30.3882514 19.8771195,29.5996221 19.7202501,28.6724246" id="Fill-1"></path>
                                <path d="M30.4850267,28.8938855 C27.1733228,32.515249 23.302828,35.3876534 19.5186248,38.5131975 C16.8309566,40.7339239 15.1366944,43.1220154 15.3734702,46.5404486 C15.0419841,46.97769 14.7020793,47.4463124 14.316924,47.9337635 C12.69843,49.9829405 10.7463452,52.598021 8.53959496,54.2727185 C5.96347446,53.0655974 3.84617281,50.7977996 1.24584857,49.6471642 C0.540782909,49.3344006 -0.0979855308,49.8438182 0.0125098337,50.5885931 C0.200878122,51.8448778 0.872269003,53.4338007 1.84883756,54.9484553 C0.801762437,55.7528541 0.234552899,57.213115 1.02591018,58.6137521 C1.46052528,59.3825858 2.03404883,60.0175273 2.57179294,60.7141848 C2.78541731,60.9474499 2.96852392,61.2037278 3.13584547,61.4715121 C3.11900808,61.5039391 3.1053277,61.5290438 3.08322863,61.5750692 C2.50549572,63.0771715 1.09325973,63.9893115 0.747040923,65.662963 C0.469224007,67.0092065 1.58364868,68.2560769 2.99272766,67.8951957 C3.40734836,67.7895465 3.8314401,67.6232274 4.25132248,67.4129749 C4.06190186,67.9140243 3.93983079,68.4255341 3.92404574,68.9454121 C3.89984199,69.7864219 4.67541421,70.5521175 5.51938833,70.5301508 C7.92923961,70.469481 10.1843974,68.2477086 11.886026,66.7309619 C13.2172321,65.5437154 15.4944889,63.2278001 14.529496,61.2874104 C17.2624147,60.008113 19.7080455,57.6001469 21.3823133,55.4986683 C22.7408801,53.7915437 23.418585,52.014335 24.0289404,49.9526056 C24.7645238,47.4714172 25.9547167,44.863659 25.0318174,42.3395833 C24.7613668,41.6021306 23.9910563,40.9358081 23.1765476,40.8730462 C24.0194693,40.1397776 24.8981706,39.438936 25.717941,38.691023 C28.4340222,36.2098347 31.7646682,33.4158827 31.9172571,29.4838477 C31.9456702,28.7756839 30.9701539,28.3635472 30.4850267,28.8938855" id="Fill-3"></path>
                                <path d="M71.5405302,59.8608527 C62.9471351,60.1195276 54.3821358,59.819187 45.7897924,59.8964422 C38.3069867,59.963281 30.4329506,60.9077046 23.1362948,59.532735 C22.4190392,59.3981893 21.9163292,59.8868938 22.0278089,60.4485134 C23.1278812,66.0152307 36.6705502,64.9171647 41.2422658,64.9579624 C51.3795483,65.0491062 61.440057,64.2479086 71.5405302,63.6333388 C74.4411034,63.4571275 74.5084118,59.771445 71.5405302,59.8608527" id="Fill-5"></path>
                                <path d="M65.929895,50.793873 C64.9749379,47.4138703 63.6523125,43.7929365 63.1228702,40.3342827 C62.9532526,39.2252037 61.4678728,39.6542998 61.3570821,40.5772048 C61.1109894,42.6042109 60.5521337,44.4490254 60.5344856,46.5148592 C60.5197788,48.4084572 60.775676,50.293095 61.0472603,52.1608079 C61.5110125,55.3536412 66.8534777,54.061375 65.929895,50.793873" id="Fill-7"></path>
                                <path d="M53.760639,50.7373907 C53.2038924,49.1829495 52.7008578,47.613814 52.2876878,46.013191 C51.8869128,44.4639977 51.1886554,42.9053582 50.8519218,41.3593137 C50.6866538,40.6015105 49.4388802,40.5605766 49.3025341,41.3593137 C49.0174467,43.0355072 48.5051159,44.3737331 48.4493379,46.1307449 C48.39356,47.9087485 48.4462391,49.6783554 48.5681243,51.4511111 C48.8521787,55.5497558 55.0208077,54.2577119 53.760639,50.7373907" id="Fill-9"></path>
                                <path d="M40.3086843,50.5040155 C39.7877156,49.6495049 39.2891437,48.7668125 38.8733425,47.8519124 C38.4458561,46.9088305 38.1040617,45.9264955 37.1595016,45.4031203 C36.4710439,45.0216603 35.7329238,45.1545171 35.1593714,45.6698404 C33.4095008,47.2409725 34.2596049,50.9337871 34.8867149,52.8672558 C35.4495558,54.6044589 37.1906624,55.5938393 38.8898967,54.8540686 C40.4664356,54.1676419 41.2668772,52.0771606 40.3086843,50.5040155" id="Fill-11"></path>
                                <path d="M112.143857,72.8744231 C111.415249,71.4956263 110.476424,69.8986254 109.203011,68.8539865 C109.430839,68.5746431 109.619044,68.2373228 109.752218,67.8357008 C111.404243,62.8475766 111.605656,57.6370318 110.378469,52.5245207 C109.80835,50.1485207 108.865122,47.9106112 107.702871,45.7496529 C106.250058,43.0489821 103.993795,41.3528933 102.392399,38.8345863 C101.984071,38.1936777 101.076062,38.7534186 101.368826,39.4069768 C101.685804,40.1153494 101.882814,40.9586502 102.033598,41.8367372 C101.280777,40.4684816 100.362863,39.2045846 99.2226251,38.1230513 C98.8682267,37.7867851 98.2551836,38.036613 98.2485799,38.5088614 C98.1836435,43.1143379 99.8202595,47.6765952 100.379372,52.2356902 C100.67874,54.6802083 100.819619,57.1299972 100.777795,59.5924355 C100.741475,61.6901462 100.326543,63.6845526 100.798707,65.6905544 C98.5666579,66.7436263 96.3918407,67.9158144 94.3193807,69.2250389 C91.9420501,70.7250602 88.7667729,72.5286697 87.8730727,75.2346112 C87.6496476,75.9134683 88.2538858,76.621841 88.9736887,76.6176245 C92.0895326,76.5997043 95.1470439,74.1783769 97.8083335,72.7848224 C100.081106,71.5947141 102.866765,70.7166272 105.169253,69.4052944 C105.272711,69.4674878 105.381672,69.5233565 105.492834,69.5739546 C105.257303,71.0275943 105.592991,72.5170744 106.093771,73.9222243 C103.780276,74.5979191 101.46458,76.220219 99.5528099,77.1931773 C96.1838242,78.9082403 93.6557092,81.0133299 91.177122,83.7603823 C90.219586,84.820833 91.6437832,86.1279492 92.7598078,85.2762154 C95.493738,83.1869377 99.0773437,81.9251489 102.244917,80.553731 C104.429639,79.6071258 107.582904,78.9482971 109.352695,77.2648579 C109.774231,77.2838321 110.222182,77.2100433 110.68334,77.023463 C112.426715,76.3182527 112.973722,74.4440167 112.143857,72.8744231" id="Fill-13"></path>
                                <path d="M98.6103113,15.2870415 C97.9780864,10.957871 97.465993,5.93301582 95.1554346,2.37496573 C94.9230634,2.0166462 94.5039185,2.28276655 94.3960632,2.61489313 C93.0562024,6.73661547 93.6770279,11.7321346 93.8243425,16.0613051 C93.9927019,21.0138677 94.2776854,25.9580486 94.4828735,30.9085158 C94.6635092,35.2659747 100.432452,35.2303523 100.145715,30.9085158 C99.7984732,25.6730693 99.3661752,20.4648635 98.6103113,15.2870415" id="Fill-16"></path>
                                <path d="M82.0998626,29.5246495 C80.1807507,25.7507864 78.7726951,19.7262262 73.9833976,18.773842 C72.631537,18.5046664 71.1566836,19.6581216 71.6306301,21.1726395 C72.1798566,22.9325505 72.9475013,24.5973312 73.4553768,26.3745386 C74.1297167,28.7365813 74.7563438,31.0672742 75.7116586,33.3320245 C77.5491288,37.691804 84.3338785,33.9157788 82.0998626,29.5246495" id="Fill-18"></path>
                                <path d="M81.8046976,34.5146151 C81.2679135,34.0375047 80.148395,33.9776077 79.8100331,34.7686608 C79.1364422,36.3425054 79.0936248,37.7583459 79.5270205,39.4189378 C79.8862689,40.7955355 80.2152319,42.0368486 81.4214296,42.8970931 C81.5718126,43.0044945 81.8600469,43.0096581 82.0093856,42.8970931 C84.4813075,41.0382215 83.9424348,36.4137622 81.8046976,34.5146151" id="Fill-20"></path>
                                <path d="M88.1933404,34.4057595 C87.398689,33.7712725 86.4020714,34.4896755 86.1198852,35.3206488 C85.1959377,38.0468962 86.873011,40.4988815 87.4968407,43.0347827 C87.8969977,44.6588648 90.1148492,44.2884063 90.1582625,42.6448802 C90.2365951,39.6443707 90.7415102,36.4422581 88.1933404,34.4057595" id="Fill-22"></path>
                                <path d="M95.5873868,37.5435411 C95.5236863,36.9751146 95.4020021,36.5767539 95.0769663,36.1220127 C94.9642654,35.9648867 94.8474812,35.8105334 94.7323303,35.655256 C94.2774435,35.0406159 93.157785,35.1681653 92.8654161,35.9279158 C92.7951822,36.1099972 92.7241317,36.2920785 92.6547145,36.4750841 C92.4480962,37.0204039 92.4121626,37.4400228 92.4889299,38.017692 C92.555897,38.515874 92.6351143,39.0112831 92.7077982,39.5076165 C92.8335658,40.3644155 93.7147559,40.8662946 94.4048445,40.761852 C95.0916664,40.6574094 95.8381054,39.9078258 95.7458214,39.0427083 C95.6935543,38.5426778 95.6429206,38.0426474 95.5873868,37.5435411" id="Fill-24"></path>
                                <path d="M65.022193,20.9410237 C65.0067844,20.9333094 64.9693634,20.9465339 64.936345,20.9641665 C64.9583573,20.9608604 64.9770678,20.9586563 65.022193,20.9410237" id="Fill-26"></path>
                                <path d="M66.2088094,20.1839861 C65.8961824,20.4222978 65.5790246,20.6180891 65.2709284,20.8722222 C65.2863332,20.8722222 65.2990195,20.8751887 65.3089873,20.8840883 C65.4603169,20.8623338 65.4258826,20.867278 65.2256201,20.8959545 C65.0471056,21.0126382 65.0951323,20.9493521 65.1766872,20.9038652 C65.1594701,20.9058429 65.1495023,20.9078206 65.1304728,20.9107872 C65.0779152,20.9177091 65.0425748,20.9236421 65.005422,20.9285864 C64.9329288,20.9038652 64.8441246,20.8929879 64.879465,20.9196868 C64.9320226,20.9592406 64.6529237,20.7515831 64.6411436,20.7416947 C63.8881203,20.1345439 62.6657034,20.9463856 62.7381966,21.9332528 C62.8460302,23.4115759 63.6633913,24.8058473 65.0344193,25.2112737 C65.7675069,25.4288196 66.5866803,25.3783885 67.2971138,25.1054673 C68.3355792,24.7049851 68.9463346,23.8674334 69.2607739,22.7441056 C69.7655079,20.9424302 67.7139498,19.0389037 66.2088094,20.1839861" id="Fill-28"></path>
                                <path d="M64.936345,20.9861633 C64.964961,20.9641224 64.9814702,20.953102 65.0001807,20.9387755 C64.979269,20.953102 64.9550554,20.9685306 64.936345,20.9861633" id="Fill-30"></path>
                                <path d="M64.936345,20.9842946 C65.0210924,20.9280906 65.0254949,20.9192742 64.936345,20.9842946" id="Fill-32"></path>
                                <path d="M85.6893353,1.58845155 C83.6035917,0.102289412 80.7774091,0.224536604 78.2985029,0.191196461 C74.7694247,0.144722322 71.2413893,0.0214648225 67.7123112,0.00529990457 C60.4049084,-0.0270299313 53.0933342,0.0982481826 45.7848886,0.119464637 C42.0044783,0.130578018 38.224068,0.125526482 34.4426148,0.151794473 C32.1983547,0.166949084 29.5536318,0.0143926709 27.5304605,1.14391631 C22.677978,3.85457098 24.4195739,9.57695193 24.979596,13.8111501 C25.0525971,14.3617676 25.8618656,14.5638291 26.0422824,13.9505725 C26.6930344,11.7238551 26.6262906,9.74567326 27.0027673,7.49470844 C27.6441335,3.65453013 31.1836404,3.815169 34.4426148,3.8424473 C39.7362321,3.88791113 45.0288065,3.92832342 50.3213809,3.98389033 C55.6149982,4.04046754 60.9075726,4.12230244 66.200147,4.16776627 C68.7218111,4.18999303 71.2403465,4.15160135 73.7620105,4.1172509 C75.5463642,4.09300352 81.152843,3.1433146 82.1613,5.00632139 C83.9633825,8.33225325 89.3790158,4.21929195 85.6893353,1.58845155" id="Fill-34"></path>
                            </g>
                            <g id="preto" opacity="0.65" fill="#000000">
                                <path d="M29.4940622,42.3069088 C28.8900955,42.3069088 28.3908447,41.8309885 28.3728632,41.2282259 L27.3859966,9.23987845 C27.3817656,9.13819502 27.3934007,9.0365116 27.4187863,8.93692474 C27.480135,8.69162658 27.4854236,8.46939064 27.4854236,8.20522339 L27.4854236,8.05427068 C27.4854236,4.05926521 31.3916385,1.49516565 35.167752,1.32534385 C42.0768762,1.01610045 49.0008087,0.976265704 54.2619819,0.976265704 C56.8523746,0.976265704 59.4406519,0.986748532 62.0257559,0.997231359 C70.7838007,1.03392125 79.4868432,1.0066659 88.172962,0.976265704 C91.7332975,0.963686312 95.2915177,0.951106919 98.8497378,0.942720657 C103.085966,0.942720657 105.964063,5.10754793 106.005314,8.99667685 C106.118492,19.7835061 106.424177,29.3752931 106.940352,38.3202896 C106.975257,38.933535 106.501392,39.4587246 105.883675,39.4943663 C105.254322,39.5289596 104.733917,39.0593289 104.697954,38.4471318 C104.180722,29.467542 103.873978,19.8411617 103.759743,9.01973907 C103.731184,6.19356884 101.756393,3.16822489 98.8645461,3.16822489 C95.2978641,3.17661115 91.7407017,3.18814226 88.1803661,3.20072165 C79.4889587,3.23112185 70.7795697,3.25732892 62.0162363,3.22168731 C59.4343055,3.21120448 56.8492014,3.20072165 54.2619819,3.20072165 C49.0251366,3.20072165 42.1329362,3.2405564 35.2703523,3.54875152 C32.546685,3.67035231 29.729937,5.39058427 29.729937,8.05427068 L29.729937,8.20522339 C29.729937,8.53752902 29.7225329,8.89604171 29.6336832,9.31430652 L30.6163189,41.1600875 C30.6353581,41.7743812 30.1488,42.2880397 29.4940622,42.3069088" id="Fill-36"></path>
                                <path d="M34.9833978,70.5306122 C31.4813182,70.5306122 28.6321686,67.5815085 28.6321686,63.9570142 C28.6321686,63.7369774 28.6436235,63.5149033 28.6665334,63.2928292 L28.6165483,61.726086 C28.5978039,61.1291344 29.0768276,60.6309956 29.6870621,60.6126592 C30.2993793,60.5963602 30.8065196,61.0629196 30.825264,61.6598712 L30.8773318,63.2989413 C30.8794145,63.3498757 30.8773318,63.4008102 30.8710836,63.4517446 C30.8523392,63.6208469 30.8419257,63.7899492 30.8419257,63.9570142 C30.8419257,66.4996611 32.9569194,68.6103841 35.4155604,68.345525 C35.4540906,68.3404316 35.4936621,68.3383942 35.534275,68.3383942 L80.3375679,68.1855909 C80.9498851,68.1855909 81.4434878,68.6674306 81.4455705,69.2633635 C81.4486945,69.8603151 80.9550919,70.3462296 80.3448574,70.348267 L35.5977977,70.5000516 C35.3905679,70.5204254 35.1854208,70.5306122 34.9833978,70.5306122" id="Fill-39"></path>
                                <path d="M1.14461847,59.5102041 C0.756604375,59.5102041 0.377212815,59.3176896 0.162727245,58.9684284 C-0.161695651,58.4392767 0.0139885087,57.7533782 0.556130425,57.4367288 C7.16745948,53.564348 8.5815553,46.8389662 9.94930499,40.3355546 C11.7266251,31.8828027 13.564303,23.1428571 27.4724527,23.1428571 C28.1040534,23.1428571 28.6160164,23.6425531 28.6160164,24.2590201 C28.6160164,24.8754872 28.1040534,25.3751832 27.4724527,25.3751832 C15.4310819,25.3751832 14.0008188,32.1752564 12.1900864,40.784755 C10.7921578,47.4354454 9.20668912,54.9740166 1.7320287,59.3513534 C1.547722,59.4586565 1.34509242,59.5102041 1.14461847,59.5102041" id="Fill-41"></path>
                                <path d="M19.8311159,69.4285714 C19.4120626,69.4285714 19.0109536,69.1961259 18.8188436,68.7997233 C18.5539006,68.2507783 18.7913993,67.5928744 19.3497851,67.3324109 C27.5144631,63.5198893 31.3387202,60.2231062 32.4238255,50.7685922 C32.4565475,50.4811484 32.6032689,50.2175718 32.8312677,50.0359737 C35.8395847,47.6388793 42.8853799,42.0249049 42.8853799,37.8201314 C42.8853799,36.4742304 42.760825,36.3652715 41.2197223,36.3652715 C38.9977899,36.3652715 37.1906885,37.8554134 35.2769767,39.4316845 C33.1468771,41.1874784 30.9439446,43.003459 27.9219054,43.003459 C24.6824229,43.003459 22.3992686,39.8260118 21.9485488,38.2071947 C21.7859942,37.6198547 22.1374923,37.0148737 22.7338779,36.8540297 C23.3334302,36.6952612 23.9467047,37.0397786 24.1092594,37.6260809 C24.4090355,38.7032169 26.0261379,40.8004151 27.9219054,40.8004151 C30.1290601,40.8004151 31.9308837,39.3154618 33.8382622,37.7443791 C35.9746951,35.9833967 38.1829054,34.1632653 41.2197223,34.1632653 C43.2484891,34.1632653 45.1252567,34.6063646 45.1252567,37.8201314 C45.1252567,42.9048772 38.2409606,48.5551712 34.5950915,51.464891 C33.325265,61.5005189 28.7621231,65.374265 20.311391,69.321688 C20.1551697,69.3943272 19.992615,69.4285714 19.8311159,69.4285714" id="Fill-43"></path>
                                <path d="M14.4397064,79.3469388 C14.1771289,79.3469388 13.9124591,79.2498189 13.7000955,79.0512143 C13.2439847,78.6256329 13.204232,77.8934146 13.6132671,77.4165452 C15.484786,75.2351678 17.3845503,73.2545774 19.2738533,71.5173324 C18.9338625,71.1561338 18.5959639,70.7916615 18.2570191,70.4271893 C17.1889248,69.2748458 16.084216,68.0843091 14.8989556,66.9854361 C11.9112206,64.2147922 9.10028078,61.4179585 6.38244618,58.7127886 C5.47650132,57.8103378 4.5684642,56.9067958 3.6489197,55.99998 C3.20327014,55.5602126 3.18443988,54.8269031 3.60602854,54.3620373 C4.02761721,53.8971714 4.73061368,53.8775292 5.17521711,54.3172967 C6.09685386,55.2273861 7.00698323,56.1331106 7.91502035,57.0366526 C10.6192553,59.7276365 13.4155493,62.5113753 16.375039,65.2547385 C17.6220208,66.4114469 18.7560211,67.6336293 19.853407,68.8165274 C20.4591138,69.4701767 21.0627283,70.1205524 21.6809886,70.7556508 C21.9027673,70.9837188 22.0230717,71.3001767 22.0115643,71.6253646 C21.9990108,71.9505524 21.8567377,72.256098 21.6182211,72.465615 C19.5081855,74.3228959 17.3719968,76.507547 15.268238,78.9606418 C15.0485516,79.2159907 14.7451751,79.3469388 14.4397064,79.3469388" id="Fill-45"></path>
                                <path d="M87.685321,62.8163265 C87.2318638,62.8163265 86.8107244,62.5181797 86.6652949,62.0507021 C86.0967062,60.2306558 85.6604178,58.375289 85.2392784,56.5822526 C84.7949106,54.6905265 84.334384,52.7343923 83.7233783,50.8478603 C83.6233956,50.5382863 83.493115,50.1476827 83.341626,49.6905935 C82.0115525,45.6837908 79.2443532,37.3471063 79.2443532,33.0224188 C79.2443532,30.1230187 80.2078233,28.6530612 82.1085054,28.6530612 C86.222947,28.6530612 89.1194169,37.9558661 92.2138325,49.1940284 C92.7258654,51.056667 93.1692232,52.6647901 93.4934097,53.627794 C93.6863057,54.202272 93.3903972,54.8307697 92.8308977,55.0302269 C92.2724082,55.229684 91.6614026,54.9253041 91.4674966,54.3487484 C91.1231116,53.3254918 90.6726843,51.6893201 90.1515621,49.7944774 C88.7245356,44.6158641 84.9373103,30.857478 82.1085054,30.857478 C81.8560238,30.857478 81.3884277,30.857478 81.3884277,33.0224188 C81.3884277,36.9814349 84.1778454,45.3887604 85.3705688,48.9779498 C85.5240777,49.4412721 85.6553682,49.8381086 85.7563609,50.1507992 C86.3966544,52.1256325 86.8672803,54.1274756 87.3227573,56.0638719 C87.7348074,57.8184712 88.1609965,59.6343621 88.705347,61.3764954 C88.8871338,61.9561677 88.5770863,62.5763547 88.0135471,62.7633457 C87.9044751,62.7986663 87.7933831,62.8163265 87.685321,62.8163265" id="Fill-47"></path>
                                <path d="M99.021018,54 C98.5337748,54 98.0828611,53.6768653 97.9354059,53.1763872 C97.6864417,52.3331905 97.4876977,51.3953381 97.2953648,50.4868616 C96.4619224,46.5668128 95.7748667,44.1873661 93.2499636,44.1873661 C92.8161462,44.1873661 91.7583154,44.2841977 91.2817573,45.1828822 C90.9857784,45.744288 90.2955172,45.9542712 89.7463,45.6528964 C89.1949458,45.3493456 88.9887222,44.6497643 89.2857696,44.0883584 C90.0187716,42.7044278 91.4997346,41.877551 93.2499636,41.877551 C97.7858136,41.877551 98.7432039,46.3807656 99.5114668,49.9983515 C99.7037997,50.902476 99.8843789,51.7565527 100.107699,52.5137978 C100.288278,53.1241634 99.9474213,53.7671689 99.3469154,53.9510402 C99.2389953,53.9847681 99.1289381,54 99.021018,54" id="Fill-49"></path>
                                <path d="M105.640358,52.8979592 C105.200244,52.8979592 104.782294,52.639831 104.603926,52.2141277 C104.211306,51.2742496 103.932672,50.2313285 103.663538,49.2227551 C102.811806,46.0388272 102.161661,44.0862123 99.651848,44.0862123 C99.0840266,44.0862123 98.3135627,44.2621142 97.862894,45.1010308 C97.5737062,45.6422673 96.8940092,45.8462719 96.3494073,45.5610819 C95.8026945,45.274851 95.5947747,44.6066321 95.8839626,44.0674772 C96.6312071,42.6758749 98.0043216,41.877551 99.651848,41.877551 C104.016051,41.877551 105.020821,45.638104 105.82928,48.6596609 C106.092082,49.6411725 106.340109,50.5685605 106.67468,51.3720885 C106.911096,51.9362235 106.63774,52.581544 106.065697,52.814692 C105.92638,52.8708974 105.781786,52.8979592 105.640358,52.8979592" id="Fill-51"></path>
                                <path d="M117.713515,78.244898 C117.095537,78.244898 116.583994,77.7719001 116.562272,77.1699028 C115.841116,56.9851653 109.769937,44.1030531 105.907842,44.1030531 C105.273572,44.1030531 104.785923,44.3358813 104.460099,44.7952451 C104.098435,45.300755 103.380537,45.4297544 102.857047,45.0815609 C102.332471,44.7333673 102.19997,44.0401266 102.559462,43.5335679 C103.320803,42.4659142 104.508973,41.877551 105.907842,41.877551 C112.359148,41.877551 118.17184,57.6752597 118.865845,77.0933422 C118.887566,77.7079248 118.390142,78.2228737 117.7537,78.2438492 C117.740667,78.244898 117.726548,78.244898 117.713515,78.244898" id="Fill-53"></path>
                                <path d="M100.168437,85.9591837 C99.8166076,85.9591837 99.4719587,85.7864676 99.2616819,85.467047 C97.8133361,83.263357 95.1135867,82.7556135 92.2548475,82.2187372 L91.6178626,82.098044 C88.3642133,81.4737692 87.7897985,79.1962067 87.0615226,76.3130975 C86.6194284,74.5609663 86.06758,72.3812068 84.833614,69.6968251 C84.2612507,68.4545183 83.3647534,67.1310557 82.4980025,65.8512923 C80.8978471,63.4925741 79.2443532,61.0527 79.2443532,58.6149069 C79.2443532,56.5849734 81.7594692,50.8104315 82.1318131,50.1476597 C82.4303036,49.6180666 83.0960093,49.4359865 83.6170856,49.7366788 C84.1391875,50.0384116 84.3207436,50.7136689 84.0222531,51.2422216 C83.5934935,52.0059177 81.4220006,57.3112131 81.4220006,58.6149069 C81.4220006,60.3670382 82.8806038,62.5187054 84.2909972,64.6006618 C85.209035,65.9542977 86.1578451,67.3547542 86.8061132,68.7635343 C88.1262414,71.6341579 88.7057849,73.924206 89.1704454,75.7647762 C89.9151331,78.7155151 90.2105464,79.5811761 92.0230301,79.9286891 L92.6507834,80.0473013 C95.6808213,80.6164318 99.1150009,81.2625563 101.07314,84.242428 C101.407531,84.7501715 101.272134,85.4358333 100.771572,85.7739821 C100.585913,85.8988371 100.375636,85.9591837 100.168437,85.9591837" id="Fill-55"></path>
                                <path d="M100.796979,95.877551 C100.411265,95.877551 100.035168,95.6793934 99.8225444,95.3207712 C99.1739901,94.2265966 98.5671056,93.1022675 97.9794534,92.0156315 C97.3223514,90.8008392 96.6428118,89.545123 95.9216023,88.3604851 C95.7613335,88.0987878 95.7132529,87.7832434 95.788045,87.4838531 C95.8617686,87.1855397 96.0530227,86.9303041 96.3158635,86.7752242 C101.716921,83.5993177 107.332739,80.6829546 112.762646,77.8613625 L116.016102,76.1694842 C116.569563,75.8787094 117.256582,76.097329 117.543998,76.6584166 C117.832481,77.2195042 117.615584,77.908748 117.058917,78.1995228 L113.802256,79.893555 C108.730283,82.5277589 103.496973,85.2459644 98.4506437,88.170943 C98.9784622,89.087422 99.4806377,90.0157473 99.9699917,90.9225338 C100.370664,91.6613171 100.778815,92.4184084 101.201924,93.1647302 C107.441722,89.4729678 113.447528,86.5339888 119.529194,84.1937905 C120.11364,83.9676324 120.768605,84.2648688 120.992982,84.8539569 C121.21629,85.443045 120.922463,86.1042884 120.338017,86.3293696 C114.059754,88.7449539 107.858421,91.81532 101.377152,95.7160095 C101.195514,95.8258577 100.994643,95.877551 100.796979,95.877551" id="Fill-57"></path>
                                <path d="M97.9520902,38.5714286 C97.3575132,38.5714286 96.8679227,38.0979823 96.8502517,37.4986306 L96.1298988,12.454884 C96.0727279,10.4799367 94.4823383,8.92953024 92.5094237,8.92536808 L38.8332557,8.82131395 C38.1555211,8.82131395 37.5016943,9.09809792 37.0339326,9.58090906 C36.5630526,10.0647607 36.3052639,10.728626 36.3260533,11.4028968 L37.0817483,36.1781837 C37.1004587,36.7879409 36.6223024,37.2967656 36.0131728,37.3154953 C35.4144379,37.345671 34.8947027,36.8545355 34.8770317,36.2458189 L34.1213368,11.4715725 C34.0818369,10.2021122 34.5662301,8.95242215 35.4508193,8.04090802 C36.3322902,7.13251552 37.563023,6.6122449 38.8290978,6.6122449 C38.8374136,6.6122449 92.5135816,6.71733956 92.5135816,6.71733956 C95.6860449,6.72358281 98.2431419,9.21567908 98.3346153,12.391411 L99.0549682,37.4351575 C99.0726392,38.0449147 98.5934434,38.5537394 97.9520902,38.5714286" id="Fill-59"></path>
                                <path d="M78.1327898,63.9183673 L40.9546097,63.9183673 C37.8566899,63.9183673 35.3182187,61.3138636 35.2951702,58.1115693 L35.219739,47.4433919 C35.2155483,46.808781 35.7100421,46.2900461 36.3239687,46.2857143 C36.942086,46.2857143 37.4397227,46.7947026 37.4439133,47.4271475 L37.5193446,58.095325 C37.5329641,60.038144 39.0740666,61.6203395 40.9546097,61.6203395 L78.1327898,61.6203395 C78.7467164,61.6203395 79.2443532,62.1347425 79.2443532,62.7693534 C79.2443532,63.4039643 78.7467164,63.9183673 78.1327898,63.9183673" id="Fill-61"></path>
                                <path d="M47.3415797,16.5306122 L40.7077017,16.5306122 C40.1091794,16.5306122 39.6221766,16.0372386 39.6221766,15.4285714 C39.6221766,14.8199042 40.1091794,14.3265306 40.7077017,14.3265306 L47.3415797,14.3265306 C47.9411251,14.3265306 48.4271047,14.8199042 48.4271047,15.4285714 C48.4271047,16.0372386 47.9411251,16.5306122 47.3415797,16.5306122" id="Fill-63"></path>
                                <path d="M42.4897959,22.0408163 C42.2644346,22.0408163 42.040178,22.0352545 41.8159214,22.0222768 C41.1696647,21.9861248 40.6813818,21.5170752 40.7255703,20.9747946 C40.7686541,20.432514 41.3210103,20.016302 41.975,20.0598699 C42.7924871,20.1052916 43.6287544,20.0320606 44.5346185,19.9551216 C45.8934147,19.8392497 47.3947189,19.7586028 48.5855988,19.9588295 C49.2197037,20.0654317 49.6317614,20.583611 49.5047195,21.1166218 C49.3776776,21.6487057 48.7568292,21.9953945 48.1260384,21.8878654 C47.2168602,21.7349144 46.0160378,21.8053646 44.771027,21.9119667 C44.0286603,21.9750011 43.2608852,22.0408163 42.4897959,22.0408163" id="Fill-65"></path>
                                <path d="M41.6607435,25.3469388 C41.2279839,25.3469388 40.8385888,25.0614333 40.743895,24.6444781 C40.6350413,24.1647285 40.9580623,23.6925142 41.465161,23.5895313 C42.4395338,23.391938 43.3926669,23.3458888 44.3139404,23.301514 C44.986532,23.2688609 45.6219541,23.2387196 46.2547212,23.1524819 C46.7653598,23.0804775 47.2432539,23.4204049 47.3167079,23.9068526 C47.391047,24.392463 47.0335115,24.8429086 46.5202179,24.9115639 C45.8024918,25.008686 45.0945007,25.0430136 44.4095192,25.076504 C43.5227603,25.1192042 42.6846757,25.1593927 41.858981,25.3268445 C41.7926069,25.3402407 41.7262327,25.3469388 41.6607435,25.3469388" id="Fill-67"></path>
                                <path d="M46.3754535,63.9183673 C45.8648328,63.9183673 45.4437947,63.4528419 45.4258782,62.8616657 C45.385566,61.4846579 45.3300248,60.1282485 45.2744836,58.7780187 C45.21088,57.2269538 45.1445889,55.6316021 45.1051725,54.029041 L42.6326933,54.1577814 C42.6282141,54.85092 42.6246308,55.5450885 42.6246308,56.2382271 C42.6246308,58.0962093 42.6524014,60.2920064 42.8647121,62.480594 C42.922045,63.0810395 42.5457982,63.6207194 42.0244275,63.6876645 C41.5012652,63.7546095 41.0318525,63.3220416 40.9745197,62.7215961 C40.7523549,60.4269264 40.7227926,58.1569748 40.7227926,56.2382271 C40.7227926,55.538909 40.7272717,54.8406208 40.7317509,54.1413027 L40.7380216,53.1000499 C40.7398133,52.5171132 41.1402474,52.0392286 41.646389,52.0145104 L45.9920401,51.7971966 C46.2581004,51.7827776 46.4981817,51.8909196 46.6845135,52.0927846 C46.8708452,52.2946497 46.9792402,52.5747889 46.9837193,52.869347 C47.0150732,54.8148727 47.0956975,56.7768771 47.1736344,58.6750263 C47.2291756,60.0355554 47.2856126,61.4012341 47.3259247,62.7885412 C47.3438413,63.3920764 46.9326572,63.8977689 46.4077033,63.9173374 C46.3969534,63.9183673 46.3862035,63.9183673 46.3754535,63.9183673" id="Fill-69"></path>
                                <path d="M53.4861019,63.9183673 C52.8749373,63.9183673 52.3795393,63.414854 52.3795393,62.7936774 C52.3795393,59.6241931 52.1907666,56.3338656 52.0092945,53.152721 C51.9050002,51.3231124 51.8007059,49.4966838 51.7297857,47.6819155 C51.7183133,47.3819275 51.8257365,47.0882997 52.0280675,46.8678139 C52.2303984,46.648388 52.5109501,46.5201246 52.807146,46.5127044 C53.8041996,46.4872637 54.7929097,46.4459226 55.7816197,46.4056416 C56.8975689,46.3590003 58.0145609,46.3123591 59.1430254,46.2879784 C59.4360924,46.2667779 59.7260306,46.3961013 59.938791,46.6070469 C60.1515514,46.8179925 60.2714898,47.1063202 60.2735757,47.4084282 L60.2735757,47.9882637 C60.2735757,49.0705525 60.2652322,50.1560213 60.2558457,51.2425502 C60.2475021,52.323779 60.2381157,53.4071278 60.2381157,54.4894166 C60.2381157,56.6720146 60.2714898,59.5393909 60.5290968,62.3569458 C60.5854157,62.9760023 60.1379931,63.5240369 59.5299573,63.5812784 C58.9271362,63.6342798 58.3816769,63.1837678 58.325358,62.5657714 C58.0583645,59.655994 58.0239474,56.7207759 58.0239474,54.4894166 C58.0239474,53.4007676 58.0333339,52.3110586 58.0427204,51.2234697 C58.050021,50.3372861 58.0573216,49.4521626 58.0594075,48.5691591 C57.3283044,48.5924797 56.5992871,48.6232206 55.8713128,48.6529013 C55.245547,48.679402 54.6176952,48.7048427 53.9898435,48.7271033 C54.0555489,50.1539013 54.1379414,51.5870594 54.2192909,53.0223376 C54.4038919,56.236343 54.5926646,59.5595314 54.5926646,62.7936774 C54.5926646,63.414854 54.0972666,63.9183673 53.4861019,63.9183673" id="Fill-71"></path>
                                <path d="M72.5351005,63.9183673 C71.9467765,63.9183673 71.4653281,63.4091899 71.4561673,62.7727182 C71.4297029,61.0926522 71.4195243,59.4180731 71.4195243,57.7456887 C71.4195243,54.4162831 71.4622745,51.0462749 71.5019711,47.7860032 C71.5304712,45.4958023 71.5599892,43.2012119 71.5742393,40.9000373 L67.1506134,40.9000373 C67.4315432,47.0584502 67.7287587,54.8409633 67.7287587,62.5005717 C67.7287587,63.1436276 67.2452745,63.6659734 66.6488077,63.6659734 C66.0523409,63.6659734 65.5688567,63.1436276 65.5688567,62.5005717 C65.5688567,54.3767779 65.2309267,46.0982557 64.9377826,39.7938933 C64.9225147,39.4756574 65.0293901,39.1651031 65.2329624,38.9335591 C65.4375526,38.702015 65.7205181,38.5714286 66.0156979,38.5714286 L72.6613153,38.5714286 C72.9483522,38.5714286 73.2231748,38.6943335 73.4267471,38.9138065 C73.6293015,39.1343769 73.7422841,39.4317628 73.7412663,39.7412198 C73.7290519,42.4429326 73.6964804,45.1314771 73.662891,47.8178268 C73.6221765,51.0693195 73.5804442,54.4316462 73.5804442,57.7456887 C73.5804442,59.4049047 73.5896049,61.0674129 73.6160693,62.7343104 C73.6262479,63.3773664 73.1509066,63.9073937 72.5351005,63.9183673" id="Fill-73"></path>
                                <path d="M77.6683703,34.1632653 C76.0342251,34.1632653 74.4469736,33.4996 73.3011351,32.3351319 C72.1104416,31.1268945 71.4865508,29.4921605 71.5436389,27.7342616 C71.6404847,24.715195 74.1594946,22.1633406 77.1576362,22.0452652 C77.4777371,22.0320326 77.8059933,22.0483189 78.128133,22.094124 C78.719402,22.1745375 79.3636813,22.263094 80.0140772,22.5786404 C82.3740561,23.7207149 83.6982949,25.8216432 83.6452845,28.3409251 C83.6350902,28.7623322 83.5841188,29.1796678 83.4923701,29.5837708 C83.3588249,30.1649869 82.7818279,30.5324458 82.1966754,30.3970662 C81.6145813,30.2637224 81.2496256,29.6855599 81.3821514,29.1033259 C81.4422977,28.8417278 81.4759389,28.5689328 81.4810361,28.2941021 C81.5269104,26.1636548 80.1934968,25.0663676 79.0680468,24.5228135 C78.7275574,24.3558793 78.3248828,24.3009131 77.8590036,24.2378038 C77.6347292,24.2062492 77.4379793,24.1970882 77.2432683,24.2042134 C75.3858681,24.2775016 73.7659948,25.9254682 73.7058485,27.8044962 C73.6681296,28.9659105 74.0728431,30.0377504 74.8435316,30.821527 C75.5989288,31.5879994 76.641805,32.014496 77.7264778,32.0022813 C78.0312872,31.9971919 78.32998,31.9615657 78.6144008,31.8933669 C79.1964949,31.7539158 79.7785891,32.1152673 79.916212,32.6954655 C80.053835,33.2756638 79.6949959,33.8589157 79.1129017,33.9963311 C78.6765859,34.0991381 78.220901,34.1551222 77.7590995,34.1622474 C77.7285167,34.1632653 77.6979338,34.1632653 77.6683703,34.1632653" id="Fill-75"></path>
                                <path d="M74.510218,21.4178087 C74.0592468,21.4178087 73.6326239,21.1420003 73.4611278,20.6915488 C73.2388181,20.10905 73.5288793,19.4552031 74.1079433,19.2326396 C74.6330177,19.0292442 75.1771472,18.8695096 75.7223353,18.7576954 C76.3246888,18.6331025 76.9228079,19.0271144 77.0477247,19.6383654 C77.171583,20.2506813 76.7798945,20.8470238 76.1711893,20.9726816 C75.7466835,21.0589383 75.3232364,21.1845962 74.9124927,21.342201 C74.7801655,21.393316 74.6436038,21.4178087 74.510218,21.4178087 M82.502782,21.9140508 C82.3238756,21.9140508 82.142852,21.8714549 81.9734731,21.7798737 C81.8316184,21.704266 81.6876463,21.6307881 81.5426157,21.55944 C81.3160715,21.4476258 81.0747067,21.3539148 80.8047591,21.2719178 C80.2108746,21.0908852 79.8752928,20.4604661 80.0552578,19.8630587 C80.2352228,19.2656514 80.866159,18.9302088 81.4558091,19.1091115 C81.8411459,19.2262502 82.192607,19.3636219 82.5281888,19.5276161 C82.6986263,19.6128079 82.8690638,19.6979997 83.0342081,19.787451 C83.5815135,20.0824276 83.7868853,20.7671565 83.4936482,21.3177083 C83.2914522,21.6978766 82.9039981,21.9140508 82.502782,21.9140508 M69.5103664,25.7689787 C69.3208738,25.7689787 69.129264,25.7210583 68.9535334,25.6198931 C68.414697,25.310008 68.2283803,24.6188897 68.536438,24.0779219 C68.81062,23.5944586 69.1239709,23.1280336 69.466963,22.6903608 C69.8512413,22.2005081 70.5573393,22.1174461 71.0453621,22.5040038 C71.5323263,22.8905615 71.6148985,23.6019129 71.2295616,24.0917656 C70.9553796,24.4410519 70.7055458,24.8137659 70.4864119,25.1992587 C70.2789229,25.5645184 69.8999377,25.7689787 69.5103664,25.7689787 M87.141645,26.6698817 C86.7192565,26.6698817 86.3138059,26.4281501 86.1221961,26.0170997 C85.9379966,25.6188282 85.7188627,25.2301407 85.4722048,24.8638161 C85.1239196,24.3473409 85.2594226,23.6445087 85.7728522,23.2941576 C86.2852232,22.9459362 86.9849696,23.0790483 87.3332548,23.5965884 C87.6466057,24.0619484 87.9239635,24.5549959 88.1589766,25.060822 C88.4215138,25.6262825 88.1780318,26.2992975 87.6159057,26.563392 C87.4624062,26.635805 87.3004377,26.6698817 87.141645,26.6698817 M68.400935,32.3180965 C67.8599813,32.3180965 67.3846619,31.9240846 67.2936208,31.370338 C67.2057555,30.8293702 67.1528246,30.2734939 67.138004,29.7197473 C67.1210661,29.0967825 67.6101475,28.5760477 68.2304975,28.5590094 C68.8434372,28.5302572 69.367453,29.0350184 69.3843909,29.6579833 C69.3960357,30.1105646 69.4383804,30.5642108 69.511425,31.0050783 C69.6109351,31.6205889 69.1970155,32.2020227 68.5840758,32.303188 C68.522676,32.3127721 68.4612762,32.3180965 68.400935,32.3180965 M87.8032811,33.2967371 C87.7207089,33.2967371 87.6370781,33.287153 87.5523887,33.2679849 C86.9479179,33.1284833 86.5699914,32.5225568 86.7076117,31.9145005 C86.8050045,31.4832171 86.8727561,31.0380901 86.9066318,30.5908333 C86.953211,29.9678684 87.4962819,29.5046381 88.1123975,29.5504287 C88.7306302,29.5983491 89.1932462,30.1425115 89.146667,30.7644115 C89.1032637,31.3224176 89.0206915,31.878294 88.8978918,32.4181969 C88.7793266,32.9421263 88.3156521,33.2967371 87.8032811,33.2967371 M71.5482055,38.1686418 C71.278258,38.1686418 71.0072519,38.0717362 70.7912938,37.8747302 C70.3826674,37.5009513 69.9983892,37.0909658 69.6479867,36.6586176 C69.2562981,36.1740893 69.3293427,35.462738 69.8110138,35.068726 C70.2926849,34.6725843 70.9998415,34.748192 71.3915301,35.2327202 C71.6710052,35.5777469 71.9780043,35.9046704 72.3040586,36.2028416 C72.7624401,36.6224111 72.7963159,37.338022 72.3792205,37.7991225 C72.1569107,38.0440489 71.8530875,38.1686418 71.5482055,38.1686418 M77.6331404,40.7755102 C77.6077335,40.7755102 77.5823267,40.7744453 77.5569199,40.7723155 C77.0032628,40.736109 76.4496057,40.6562417 75.9097107,40.5369732 C75.3041813,40.4027962 74.9209617,39.8000644 75.0532889,39.1909432 C75.1856161,38.580757 75.7847938,38.1941994 76.3924404,38.3294413 C76.8232978,38.4242172 77.2658,38.488111 77.7072436,38.5179281 C78.3254764,38.5594591 78.794444,39.0982971 78.7531579,39.721262 C78.7129305,40.3176044 78.2196146,40.7755102 77.6331404,40.7755102" id="Fill-77"></path>
                            </g>
                        </g>
                    </g>
                </g>
            </g>
        </g>
    </g>
</svg>