<?xml version="1.0" encoding="UTF-8"?>
<svg width="107px" height="97px" viewBox="0 0 107 97" version="1.1" xmlns="http://www.w3.org/2000/svg" xmlns:xlink="http://www.w3.org/1999/xlink">
    <!-- Generator: Sketch 52.6 (67491) - http://www.bohemiancoding.com/sketch -->
    <title>icon</title>
    <desc>Created with Sketch.</desc>
    <g id="LP-SPRINT" stroke="none" stroke-width="1" fill="none" fill-rule="evenodd">
        <g id="Desktop-HD" transform="translate(-338.000000, -2464.000000)">
            <g id="3-Como-Trabalhamos" transform="translate(208.000000, 2156.000000)">
                <g id="Cardss" transform="translate(50.000000, 199.000000)">
                    <g id="0">
                        <g id="icon" transform="translate(80.000000, 109.000000)">
                            <g id="azul" opacity="0.55" transform="translate(20.000000, 5.000000)" fill="#009CD5">
                                <path d="M19.9408,59.6567 C19.0398,60.3457 17.9388,61.4737 16.9088,61.9267 C15.2858,62.6407 13.3238,61.9057 11.6358,61.7777 C9.2088,61.5927 6.7608,62.0577 5.1888,64.0557 C1.8768,68.2657 5.6748,75.4497 8.8918,78.5887 C9.8138,79.4887 11.2208,78.7867 11.3078,77.5887 C11.5048,74.8637 10.4248,72.3937 9.9068,69.7617 C9.6898,68.6587 9.3868,68.1117 10.1948,67.5857 C10.7858,67.1997 12.6728,67.6247 13.4418,67.4677 C16.5688,66.8257 20.4958,63.9087 21.4028,60.7797 C21.6238,60.0167 20.6558,59.1097 19.9408,59.6567" id="Fill-1"></path>
                                <path d="M23.8088,40.5394 C23.2308,39.7404 22.1078,39.4424 21.3438,40.2214 C18.9508,42.6634 19.0408,45.9414 18.4418,49.1324 C18.0868,51.0274 18.0008,53.3784 16.6408,54.7964 C15.1268,56.3744 12.8928,55.9674 10.7808,56.2244 C6.5658,56.7374 -0.3232,59.3184 0.2788,64.6834 C0.3238,65.0874 0.8568,65.4504 1.1848,65.0594 C4.1008,61.5744 6.9058,60.7154 11.3578,60.7674 C14.4078,60.8024 17.8418,61.2794 20.3888,59.2094 C22.7958,57.2544 23.5878,53.5954 24.2058,50.7214 C24.9218,47.3894 25.9598,43.5094 23.8088,40.5394" id="Fill-3"></path>
                                <path d="M28.7001,18.6267 C27.7251,15.5007 23.4631,16.2687 23.1911,19.3727 C22.9831,21.7457 23.5151,24.2737 21.5721,26.0907 C19.6461,27.8927 17.3621,26.5277 15.1311,27.0487 C14.5921,27.1747 14.4101,27.8007 14.6421,28.2507 C16.4331,31.7267 21.8061,32.3567 24.8241,30.3057 C28.3941,27.8777 29.9691,22.6937 28.7001,18.6267" id="Fill-5"></path>
                                <path d="M52.7658,6.8116 C49.2108,6.1146 46.1138,9.0606 43.8148,11.4946 C41.2128,14.2496 38.6818,17.6686 38.9138,21.6356 C39.0268,23.5516 39.8168,25.2076 40.4788,26.9756 C40.8608,27.9966 41.4488,29.2316 41.2818,30.3446 C41.0528,31.8706 39.7828,32.5206 38.7778,33.3256 C36.5458,35.1136 35.4768,36.7966 35.9888,39.7396 C36.0388,40.0226 36.4818,40.0046 36.5438,39.7396 C37.5308,35.5106 41.3788,36.4256 43.6108,33.7266 C45.3118,31.6696 45.1818,28.8566 44.6508,26.3976 C44.2478,24.5316 43.3858,22.6156 43.9178,20.6826 C44.4308,18.8226 45.9328,17.0846 47.2178,15.7286 C49.4308,13.3946 52.7698,12.0346 54.0008,8.9876 C54.3418,8.1446 53.6248,6.9796 52.7658,6.8116" id="Fill-7"></path>
                                <path d="M86.4115,8.9412 C86.0895,7.9972 85.3615,7.0392 84.3115,6.8412 C83.7095,6.7272 83.1695,6.7592 82.6875,6.8952 C81.8255,3.2392 79.5955,0.1332 75.3875,0.2232 C74.5255,0.2412 74.3245,1.5102 75.1825,1.7432 C79.0125,2.7842 76.4565,11.6232 75.4205,13.6552 C73.7385,16.9522 69.8995,18.4082 68.3885,21.6732 C67.8935,22.7412 67.9895,24.3382 69.2365,24.9102 C69.7635,25.1512 70.2825,25.3142 70.7955,25.4212 C68.6205,26.2002 66.3195,26.4962 64.2245,27.4722 C64.0535,27.5522 64.0455,27.8032 64.1665,27.9242 C68.1945,31.9602 76.1795,29.3812 80.0325,26.4032 C84.8735,22.6612 88.4945,15.0432 86.4115,8.9412" id="Fill-9"></path>
                                <path d="M80.8782,52.5251 C80.6262,51.6421 79.8892,51.2191 79.1312,51.2191 C80.2812,48.4121 80.7502,44.5091 78.2932,42.4891 C77.7332,42.0291 76.9192,41.7951 76.2562,42.2271 C74.2122,43.5591 73.5332,45.9561 72.9092,48.2001 C72.6442,49.1531 72.4852,50.1551 72.0842,51.0641 C71.7872,51.7391 71.1822,52.4101 71.5232,53.2331 C72.4162,55.3881 74.2322,55.6021 75.8602,54.8771 C73.9512,58.6281 72.7062,62.7081 70.1752,66.2271 C67.0702,70.5421 63.1872,74.3431 58.9752,77.5741 C54.3972,81.0861 49.2702,84.1611 43.6752,85.7111 C37.4952,87.4231 31.9872,86.8591 25.8362,85.4011 C25.7182,85.3731 25.5742,85.5131 25.6612,85.6281 C29.2772,90.4101 35.7532,92.0171 41.6332,91.8421 C48.8062,91.6281 55.6522,88.1831 61.3422,84.0271 C66.5892,80.1951 71.4082,75.7261 75.1862,70.4151 C78.6452,65.5511 82.6312,58.6611 80.8782,52.5251" id="Fill-11"></path>
                                <path d="M79.784,36.5785 C79.445,35.8215 78.96,35.5225 78.272,35.1025 C77.73,34.7715 77.272,34.3445 76.846,33.8765 C75.999,32.9445 74.325,34.1875 75.075,35.2425 C75.559,35.9245 76.1,36.5475 76.737,37.0925 C77.515,37.7575 78.236,38.1475 79.269,37.8455 C79.847,37.6765 80.011,37.0855 79.784,36.5785" id="Fill-14"></path>
                                <path d="M56.9644,46.4881 C54.4564,48.6231 52.6614,51.7061 50.5344,54.2321 C48.5014,56.6471 46.3654,58.9681 44.2294,61.2921 C42.8534,62.7881 39.8694,67.1671 37.8324,67.3111 C36.8514,67.3801 34.9094,65.1281 34.0934,64.4821 C32.9014,63.5381 31.7284,62.5971 30.4074,61.8461 C30.1034,61.6731 29.6714,61.9631 29.7904,62.3211 C30.8194,65.4211 33.3954,68.4671 36.0734,70.3201 C38.7074,72.1421 40.6214,70.5981 42.7594,68.7421 C46.0964,65.8431 49.2094,62.7021 52.1424,59.3981 C54.8924,56.2991 58.5354,52.8071 60.1934,48.9801 C61.1114,46.8601 58.8214,44.9081 56.9644,46.4881" id="Fill-16"></path>
                                <path d="M47.2256,45.1782 C46.1816,43.5642 43.8986,43.5672 42.5486,44.7852 C41.8856,45.3832 41.2516,46.2252 40.7806,46.9792 C40.4306,47.5402 40.5876,47.6852 39.9736,47.2742 C38.6236,46.3722 35.2116,44.3252 34.8836,47.3372 C34.8466,47.6762 35.1566,48.0232 35.4676,48.1052 C35.7526,48.1792 36.1366,49.2492 36.2736,49.4962 C36.6286,50.1322 37.0216,50.7932 37.5226,51.3292 C38.6676,52.5532 40.3776,53.3982 42.0776,53.0432 C44.8246,52.4712 49.0926,48.0652 47.2256,45.1782" id="Fill-18"></path>
                                <path d="M58.2961,63.0223 C58.1421,62.2153 57.0551,62.0293 56.5221,62.5543 C54.8601,64.1943 54.1561,66.6383 53.2931,68.7613 C52.3881,70.9843 51.0001,73.4783 51.6701,75.8903 C52.0821,77.3743 53.8041,77.6503 54.8851,76.7393 C56.7331,75.1813 57.0111,72.1833 57.5051,69.9223 C57.9981,67.6683 58.7361,65.3273 58.2961,63.0223" id="Fill-20"></path>
                            </g>
                            <g id="preto" opacity="0.65" fill="#000000">
                                <path d="M17.4545,56.95 C16.9275,56.95 16.4125,56.813 15.9235,56.542 C14.6755,55.848 14.1855,54.355 13.6175,52.626 C12.4205,48.978 10.7815,43.981 1.0085,43.493 C0.4225,43.464 -0.0275,42.966 0.0015,42.38 C0.0305,41.795 0.5395,41.354 1.1145,41.373 C12.3435,41.934 14.4035,48.213 15.6345,51.965 C16.0455,53.215 16.4325,54.396 16.9535,54.686 C17.1225,54.78 17.2915,54.828 17.4545,54.828 C18.2045,54.828 18.9365,52.816 19.5815,51.041 C20.9545,47.264 22.8355,42.092 28.6005,41.861 C28.6145,41.86 28.6695,41.859 28.6835,41.859 C29.4115,41.859 30.0035,42.221 30.5255,42.541 C30.7595,42.684 31.0005,42.833 31.1755,42.891 C31.7315,43.077 32.0315,43.678 31.8455,44.233 C31.6605,44.79 31.0595,45.089 30.5035,44.904 C30.0995,44.77 29.7365,44.547 29.4165,44.352 C29.1925,44.214 28.8165,43.984 28.6835,43.982 C24.3435,44.155 22.8735,48.198 21.5765,51.766 C20.6075,54.432 19.6915,56.95 17.4545,56.95" id="Fill-22"></path>
                                <path d="M26.4151,83.7534 C25.9391,83.7534 25.5071,83.4314 25.3861,82.9504 C24.5601,79.6424 23.9981,77.6454 23.6271,76.3244 C23.0241,74.1814 22.8621,73.6054 22.8621,72.0074 C22.8621,65.6684 29.2051,65.6684 32.2541,65.6684 L33.2811,65.6704 C38.5751,65.6704 43.7441,64.6304 43.7441,52.2074 C43.7441,45.6944 39.9311,42.7784 36.1511,42.7784 C34.1571,42.7784 31.9551,43.4924 29.9511,44.7884 C29.4591,45.1054 28.8021,44.9664 28.4841,44.4734 C28.1651,43.9814 28.3061,43.3244 28.7981,43.0064 C31.1411,41.4904 33.7521,40.6554 36.1511,40.6554 C40.8301,40.6554 45.8661,44.2704 45.8661,52.2074 C45.8661,65.9414 39.5041,67.7934 33.2811,67.7934 L32.2541,67.7914 C26.8191,67.7914 24.9851,68.8544 24.9851,72.0074 C24.9851,73.3124 25.0901,73.6854 25.6701,75.7504 C26.0451,77.0834 26.6111,79.0984 27.4451,82.4344 C27.5881,83.0034 27.2421,83.5794 26.6731,83.7214 C26.5871,83.7434 26.5001,83.7534 26.4151,83.7534" id="Fill-24"></path>
                                <path d="M18.9745,72.7218 C14.3525,72.7218 11.1315,67.8028 11.1315,63.3868 C11.1315,60.3808 12.4705,57.5998 14.8045,55.7568 C15.2645,55.3948 15.9325,55.4718 16.2955,55.9318 C16.6585,56.3928 16.5795,57.0598 16.1195,57.4228 C14.2985,58.8608 13.2545,61.0348 13.2545,63.3868 C13.2545,66.7918 15.7005,70.5998 18.9745,70.5998 C20.1125,70.5998 21.5665,70.2968 22.1445,69.7188 C22.5595,69.3048 23.2305,69.3048 23.6455,69.7188 C24.0595,70.1338 24.0595,70.8048 23.6455,71.2198 C22.2155,72.6498 19.5035,72.7218 18.9745,72.7218" id="Fill-26"></path>
                                <path d="M24.6125,68.0769 C24.5015,68.0769 24.3885,68.0599 24.2765,68.0219 C21.3245,67.0379 19.4165,64.4349 19.4165,61.3929 C19.4165,60.1479 19.7565,58.8959 20.3985,57.7719 C20.6895,57.2629 21.3395,57.0869 21.8465,57.3769 C22.3555,57.6679 22.5325,58.3169 22.2415,58.8249 C21.7825,59.6289 21.5395,60.5169 21.5395,61.3929 C21.5395,63.5069 22.8775,65.3179 24.9485,66.0089 C25.5045,66.1939 25.8045,66.7949 25.6195,67.3519 C25.4715,67.7959 25.0565,68.0769 24.6125,68.0769" id="Fill-28"></path>
                                <path d="M28.1534,49.5961 C27.9514,49.5961 27.7464,49.5391 27.5654,49.4181 C27.0784,49.0921 26.9464,48.4341 27.2714,47.9461 C28.1614,46.6121 28.5574,45.3641 28.5574,43.8971 C28.5574,43.3111 29.0334,42.8361 29.6194,42.8361 C30.2054,42.8361 30.6804,43.3111 30.6804,43.8971 C30.6804,45.7821 30.1584,47.4421 29.0374,49.1231 C28.8334,49.4301 28.4964,49.5961 28.1534,49.5961" id="Fill-30"></path>
                                <path d="M34.7442,95.4841 C34.2682,95.4841 33.8362,95.1621 33.7152,94.6811 C33.5732,94.1121 33.9192,93.5361 34.4872,93.3931 C36.4432,92.6891 50.2762,79.1731 50.2762,73.7801 C50.2762,72.4801 49.7322,70.8041 49.1542,70.8041 C48.5262,70.8041 46.9962,71.7121 46.1732,72.2011 C45.0722,72.8541 44.6052,73.1201 44.1042,73.1201 C43.4932,73.1201 42.9522,72.8621 42.4752,72.6351 C42.2982,72.5511 42.0462,72.4311 41.8982,72.3891 C40.5902,73.4671 40.5512,74.1891 40.4872,75.3661 C40.3462,77.9711 40.1702,81.2121 28.6812,87.7781 C28.1712,88.0671 27.5242,87.8911 27.2332,87.3831 C26.9422,86.8741 27.1192,86.2251 27.6282,85.9341 C38.1132,79.9431 38.2542,77.3421 38.3672,75.2511 C38.4412,73.9001 38.5242,72.3671 40.6722,70.6501 C40.9982,70.3891 41.3962,70.2501 41.8232,70.2501 C42.4042,70.2501 42.9262,70.4991 43.3872,70.7191 C43.5792,70.8101 43.8512,70.9401 44.0152,70.9831 C44.2492,70.8751 44.7282,70.5901 45.0902,70.3761 C46.7072,69.4161 48.0332,68.6811 49.1542,68.6811 C51.5352,68.6811 52.3992,71.7301 52.3992,73.7801 C52.3992,80.1161 37.7322,94.7701 35.0022,95.4521 C34.9162,95.4741 34.8292,95.4841 34.7442,95.4841" id="Fill-32"></path>
                                <path d="M45.2404,85.2326 C45.1194,85.2326 44.9974,85.2126 44.8774,85.1686 C42.6694,84.3656 40.6514,83.1106 38.6994,81.8976 C38.1734,81.5706 37.6504,81.2456 37.1274,80.9316 C36.6254,80.6306 36.4624,79.9786 36.7634,79.4756 C37.0654,78.9726 37.7174,78.8086 38.2194,79.1116 C38.7524,79.4316 39.2844,79.7626 39.8194,80.0946 C41.6794,81.2506 43.6024,82.4466 45.6034,83.1736 C46.1534,83.3736 46.4384,83.9836 46.2374,84.5336 C46.0804,84.9656 45.6734,85.2326 45.2404,85.2326" id="Fill-34"></path>
                                <path d="M12.8169,42.2187 C12.7489,42.2187 12.6789,42.2127 12.6089,42.1987 C12.0339,42.0847 11.6609,41.5257 11.7749,40.9507 C15.4839,22.2497 30.9499,8.4057 49.3829,7.2847 C50.6859,7.2057 52.0099,7.1777 53.3119,7.1967 C53.8979,7.2067 54.3659,7.6897 54.3569,8.2757 C54.3469,8.8547 53.8739,9.3197 53.2959,9.3197 C52.0259,9.2987 50.7599,9.3267 49.5119,9.4027 C32.0399,10.4657 17.3789,23.6087 13.8569,41.3637 C13.7569,41.8687 13.3129,42.2187 12.8169,42.2187" id="Fill-36"></path>
                                <path d="M53.6548,92.1948 C53.3568,92.1948 53.0598,92.1918 52.7618,92.1858 C52.4328,92.1778 52.1058,92.1688 51.7808,92.1548 C51.1948,92.1288 50.7418,91.6338 50.7668,91.0478 C50.7928,90.4628 51.2908,90.0108 51.8728,90.0338 C52.1828,90.0478 52.4938,90.0568 52.8058,90.0638 C72.0468,90.4728 90.0598,77.1358 94.7498,59.0738 C94.8968,58.5068 95.4738,58.1678 96.0428,58.3128 C96.6098,58.4598 96.9508,59.0398 96.8038,59.6068 C94.4348,68.7328 88.7558,77.0548 80.8128,83.0388 C72.9548,88.9608 63.3428,92.1948 53.6548,92.1948" id="Fill-38"></path>
                                <path d="M54.7174,46.1796 C51.5434,46.1796 51.1664,35.4896 51.1664,35.3816 C51.1664,12.2346 59.9524,-0.0004 76.5724,-0.0004 C77.2704,-0.0004 77.9804,0.0216 78.6814,0.0626 C79.2664,0.0976 79.7124,0.5996 79.6784,1.1846 C79.6434,1.7696 79.1444,2.2126 78.5554,2.1816 C77.8964,2.1426 77.2284,2.1226 76.5724,2.1226 C61.1224,2.1226 53.2894,13.3126 53.2894,35.3816 C53.2894,37.1046 54.0444,42.5216 54.8304,43.9016 C55.0204,43.5046 55.1094,42.5556 55.1664,41.9516 C55.3034,40.5086 55.4574,38.8726 56.3034,37.5336 C57.0134,36.4106 58.1634,36.1586 59.0874,35.9546 C60.2974,35.6896 60.5544,35.5976 60.5544,34.5776 C60.5544,33.7486 60.1404,32.8316 59.7024,31.8596 C59.1874,30.7186 58.6544,29.5386 58.6544,28.2366 C58.6544,25.1706 61.9334,13.5966 72.3454,11.2536 C72.9194,11.1276 73.4854,11.4846 73.6134,12.0566 C73.7414,12.6276 73.3824,13.1956 72.8104,13.3246 C63.7864,15.3546 60.7774,25.6526 60.7774,28.2366 C60.7774,29.0816 61.1954,30.0076 61.6364,30.9876 C62.1484,32.1206 62.6764,33.2926 62.6764,34.5776 C62.6764,37.3406 60.7144,37.7716 59.5414,38.0286 C58.7924,38.1926 58.3224,38.3116 58.0974,38.6666 C57.5224,39.5776 57.3934,40.9446 57.2804,42.1516 C57.1194,43.8516 56.8994,46.1796 54.7174,46.1796" id="Fill-40"></path>
                                <path d="M53.1733,30.0084 C52.5873,30.0084 52.1123,29.5334 52.1123,28.9474 C52.1123,28.3614 52.5873,27.8864 53.1733,27.8864 C53.8593,27.8864 54.5763,27.8314 55.3353,27.7734 C56.5513,27.6794 57.8853,27.6004 58.9533,27.7084 C59.5363,27.7664 59.9623,28.2864 59.9043,28.8694 C59.8453,29.4534 59.3233,29.8834 58.7423,29.8194 C57.8363,29.7304 56.6243,29.8044 55.4973,29.8894 C54.7313,29.9484 53.9403,30.0084 53.1733,30.0084" id="Fill-42"></path>
                                <path d="M38.7922,19.3742 C37.3652,19.3742 36.0072,19.9592 34.9632,21.0242 C33.8922,22.1162 33.3012,23.6042 33.3402,25.1062 C33.4172,28.0832 36.0642,30.1462 38.4882,30.2062 C39.9542,30.2582 41.3972,29.6072 42.4992,28.4592 C43.6572,27.2532 44.2592,25.6252 44.1512,23.9932 C44.0872,23.0452 43.8022,22.2542 43.3042,21.6422 C42.4312,20.5712 41.3792,19.8832 40.0872,19.5422 C39.6752,19.4332 39.2502,19.3762 38.7922,19.3742 M38.6072,32.3312 C38.5502,32.3312 38.4922,32.3302 38.4342,32.3282 C35.0522,32.2452 31.3302,29.4802 31.2182,25.1612 C31.1642,23.0882 31.9772,21.0382 33.4472,19.5382 C34.9042,18.0512 36.8412,17.2412 38.8352,17.2512 C39.4412,17.2552 40.0452,17.3352 40.6302,17.4902 C42.3462,17.9442 43.7992,18.8902 44.9492,20.3022 C45.7312,21.2622 46.1752,22.4562 46.2682,23.8522 C46.4162,26.0782 45.6002,28.2932 44.0302,29.9292 C42.5592,31.4622 40.5912,32.3312 38.6072,32.3312" id="Fill-44"></path>
                                <path d="M37.3306,24.0094 C37.3306,24.0104 37.3306,24.0104 37.3306,24.0104 C37.3306,24.0104 37.3306,24.0104 37.3306,24.0094 Z M37.3206,24.0564 C37.2966,24.1764 37.2836,24.2954 37.2796,24.4104 C37.2716,24.7024 37.3166,25.1104 37.5766,25.3834 C37.8076,25.6254 38.1386,25.6814 38.3756,25.6854 C38.6976,25.6794 39.0116,25.5614 39.2456,25.3294 C39.4066,25.1704 39.5966,24.8954 39.5926,24.4874 C39.5896,24.1494 39.4746,23.8924 39.2406,23.6994 C38.9026,23.4194 38.3406,23.3084 37.7776,23.4144 C37.6646,23.6234 37.5366,23.7844 37.4296,23.9164 C37.3926,23.9634 37.3516,24.0074 37.3206,24.0564 Z M38.3956,27.8084 C38.3766,27.8084 38.3566,27.8084 38.3376,27.8084 C37.4306,27.7914 36.6156,27.4504 36.0416,26.8494 C35.4356,26.2144 35.1296,25.3494 35.1576,24.3484 C35.1666,24.0844 35.1996,23.8204 35.2566,23.5584 C35.3526,23.1164 35.6056,22.7994 35.7726,22.5914 C35.8106,22.5434 35.8516,22.4984 35.8816,22.4484 C36.1296,21.8914 36.7206,21.4514 37.3916,21.3274 C38.5936,21.1054 39.7576,21.3734 40.5916,22.0614 C41.3076,22.6524 41.7066,23.5064 41.7156,24.4684 C41.7236,25.3644 41.3776,26.2054 40.7396,26.8374 C40.1156,27.4564 39.2636,27.8084 38.3956,27.8084 Z" id="Fill-46"></path>
                                <path d="M30.8403,32.2055 C30.4793,32.2055 30.1283,32.0215 29.9293,31.6905 C29.6273,31.1875 29.7913,30.5355 30.2933,30.2345 C30.7193,29.9785 31.1493,29.6775 31.6043,29.3585 C32.0693,29.0335 32.5503,28.6975 33.0393,28.4035 C33.5423,28.1005 34.1933,28.2655 34.4953,28.7675 C34.7963,29.2695 34.6343,29.9215 34.1313,30.2235 C33.7063,30.4785 33.2763,30.7795 32.8213,31.0975 C32.3563,31.4235 31.8753,31.7605 31.3853,32.0545 C31.2143,32.1575 31.0263,32.2055 30.8403,32.2055" id="Fill-48"></path>
                                <path d="M80.1701,27.3223 C80.4241,27.3223 80.5721,27.3853 81.0611,27.5933 C82.0691,28.0233 84.7461,29.1633 87.0431,29.1633 C94.2901,29.1633 102.5531,21.0803 102.5531,13.9893 C102.5531,9.1993 99.3651,3.6053 90.3801,3.6053 C89.1971,3.6053 88.1141,3.7373 87.0701,4.0093 C77.3241,6.5523 75.0201,16.8203 74.9781,18.4583 C75.1881,19.7633 77.7551,26.4763 78.8941,27.4283 C79.0321,27.4193 79.1741,27.4013 79.3161,27.3863 C79.5741,27.3563 79.8661,27.3223 80.1701,27.3223 M87.0431,31.2863 C84.3131,31.2863 81.3461,30.0223 80.2291,29.5463 C80.1401,29.5083 80.0641,29.4763 80.0031,29.4503 C79.8551,29.4583 79.7061,29.4773 79.5581,29.4943 C79.2951,29.5243 79.0221,29.5563 78.7331,29.5563 C75.9161,29.5563 72.8551,19.0463 72.8551,18.5023 C72.8551,15.1763 76.2221,4.6463 86.5351,1.9563 C87.7561,1.6373 89.0141,1.4823 90.3801,1.4823 C97.4961,1.4823 104.6751,5.3493 104.6751,13.9893 C104.6751,22.2333 95.4471,31.2863 87.0431,31.2863" id="Fill-50"></path>
                                <path d="M93.1797,28.5527 C92.8777,28.5527 92.5787,28.4247 92.3687,28.1767 C91.2187,26.8187 89.4877,26.6207 87.4827,26.3907 C86.5797,26.2877 85.6467,26.1807 84.7207,25.9567 C79.7757,24.7637 78.8107,21.4967 77.9587,18.6137 C77.4367,16.8437 76.9417,15.1717 75.5597,14.0187 C75.1087,13.6437 75.0487,12.9747 75.4237,12.5247 C75.7987,12.0737 76.4667,12.0137 76.9187,12.3887 C78.7957,13.9537 79.4327,16.1097 79.9947,18.0127 C80.8157,20.7927 81.4637,22.9887 85.2187,23.8937 C86.0187,24.0867 86.8857,24.1857 87.7247,24.2827 C89.9717,24.5397 92.2957,24.8057 93.9887,26.8057 C94.3677,27.2527 94.3117,27.9237 93.8647,28.3017 C93.6647,28.4707 93.4217,28.5527 93.1797,28.5527" id="Fill-52"></path>
                                <path d="M101.5022,40.9923 C101.4882,40.9923 101.4732,40.9923 101.4592,40.9913 C96.1242,40.7783 92.4072,35.6653 92.0232,31.0493 C91.9752,30.4653 92.4082,29.9523 92.9932,29.9033 C93.5822,29.8653 94.0902,30.2893 94.1382,30.8733 C94.4482,34.5893 97.3672,38.7033 101.5442,38.8703 C102.1292,38.8943 102.5852,39.3883 102.5622,39.9733 C102.5392,40.5443 102.0692,40.9923 101.5022,40.9923" id="Fill-54"></path>
                                <path d="M93.0598,56.8312 C88.6618,56.8312 86.6828,51.6942 86.6828,48.0452 C86.6828,46.0132 87.6998,44.7802 88.9468,44.2512 C88.5598,43.7542 88.2708,43.1152 88.2708,42.2972 C88.2708,40.8842 89.4518,38.8402 91.5868,38.8402 C93.6378,38.8402 95.8578,40.5262 96.6408,42.6802 C96.8418,43.2312 96.5578,43.8392 96.0068,44.0402 C95.4548,44.2432 94.8468,43.9562 94.6468,43.4052 C94.1648,42.0812 92.7638,40.9622 91.5868,40.9622 C90.7038,40.9622 90.3928,42.0622 90.3928,42.2972 C90.3928,42.9582 91.0218,43.3742 91.6668,43.7432 C91.9858,43.9262 92.7338,44.3552 92.5098,45.1962 C92.2758,46.0712 91.4688,46.0712 90.4468,46.0712 C90.0618,46.0712 88.8058,46.2132 88.8058,48.0452 C88.8058,50.7322 90.1578,54.7092 93.0598,54.7092 C94.0158,54.7092 95.6828,53.2352 95.6828,52.3912 C95.6828,52.3662 95.6798,52.3422 95.6738,52.3162 C95.5308,51.7472 95.8768,51.1712 96.4458,51.0292 C97.0148,50.8862 97.5898,51.2332 97.7328,51.8012 C97.7808,51.9952 97.8058,52.1942 97.8058,52.3912 C97.8058,54.5932 95.0448,56.8312 93.0598,56.8312" id="Fill-56"></path>
                                <path d="M89.0526,53.2578 C88.5766,53.2578 88.1446,52.9358 88.0236,52.4548 C87.8816,51.8858 88.2276,51.3098 88.7956,51.1668 C89.3406,51.0308 89.8186,50.6998 90.3716,50.3178 C91.0036,49.8798 91.7206,49.3838 92.6406,49.1528 C93.2106,49.0108 93.7856,49.3568 93.9276,49.9248 C94.0696,50.4938 93.7236,51.0698 93.1556,51.2118 C92.6106,51.3478 92.1326,51.6788 91.5796,52.0618 C90.9476,52.4998 90.2306,52.9958 89.3106,53.2258 C89.2246,53.2478 89.1376,53.2578 89.0526,53.2578" id="Fill-58"></path>
                                <path d="M57.6544,73.3761 C57.4034,73.3761 57.1524,73.2881 56.9514,73.1091 C53.6614,70.1971 50.2974,66.9261 46.3654,62.8161 C45.9604,62.3921 45.9744,61.7201 46.3984,61.3151 C46.8214,60.9101 47.4934,60.9251 47.8994,61.3481 C51.4954,65.1081 54.6074,68.1541 57.6204,70.8631 C65.1244,63.4851 68.8974,58.9371 72.2384,54.9101 C73.2384,53.7041 74.1944,52.5521 75.2064,51.3751 C69.6644,47.6421 65.1224,43.6541 61.6914,39.5091 C61.3184,39.0581 61.3814,38.3881 61.8334,38.0151 C62.2844,37.6411 62.9524,37.7041 63.3274,38.1561 C66.8274,42.3861 71.5554,46.4621 77.3794,50.2701 C77.6374,50.4381 77.8084,50.7101 77.8504,51.0141 C77.8914,51.3181 77.7994,51.6271 77.5974,51.8571 C76.2994,53.3391 75.1204,54.7601 73.8714,56.2651 C70.3944,60.4571 66.4534,65.2081 58.3954,73.0741 C58.1904,73.2751 57.9224,73.3761 57.6544,73.3761" id="Fill-60"></path>
                                <path d="M46.7658,49.7791 C46.4948,49.7791 46.2228,49.6751 46.0158,49.4681 C45.6008,49.0541 45.6008,48.3821 46.0158,47.9681 C46.8658,47.1171 47.6678,46.2121 48.4438,45.3371 C49.4758,44.1721 50.5438,42.9681 51.7268,41.8921 C52.1608,41.4991 52.8318,41.5301 53.2258,41.9641 C53.6198,42.3981 53.5888,43.0681 53.1548,43.4631 C52.0568,44.4611 51.0728,45.5701 50.0318,46.7451 C49.2358,47.6441 48.4118,48.5731 47.5158,49.4681 C47.3088,49.6751 47.0378,49.7791 46.7658,49.7791" id="Fill-62"></path>
                                <path d="M60.5409,47.3279 C60.4459,47.3279 60.3519,47.3309 60.2579,47.3369 C57.9029,47.4919 55.9739,49.7159 55.9599,52.2939 C55.9449,54.9869 58.2499,57.3719 60.8919,57.3989 C62.6369,57.3829 63.8129,56.5419 64.4869,55.8059 C65.5809,54.6119 66.1419,52.9329 65.9849,51.3159 C65.8439,49.8619 64.8659,48.5919 63.3009,47.8319 C62.6199,47.5009 61.8329,47.3959 60.7829,47.3349 C60.7019,47.3299 60.6209,47.3279 60.5409,47.3279 M60.9379,59.5209 L60.8709,59.5209 C57.0369,59.4819 53.8159,56.1669 53.8369,52.2819 C53.8579,48.5519 56.6179,45.4489 60.1209,45.2189 C60.3799,45.2029 60.6399,45.2019 60.9029,45.2149 C61.9809,45.2789 63.1229,45.3849 64.2289,45.9229 C66.4739,47.0129 67.8839,48.9039 68.0979,51.1109 C68.3109,53.3189 67.5459,55.6099 66.0519,57.2399 C64.7019,58.7129 62.8879,59.5209 60.9379,59.5209" id="Fill-64"></path>
                                <path d="M61.8063,53.2903 C61.6193,53.2903 61.4303,53.2413 61.2603,53.1393 C59.3653,51.9993 57.6233,50.6413 56.0843,49.1023 C55.6693,48.6873 55.6693,48.0163 56.0843,47.6013 C56.4983,47.1873 57.1703,47.1873 57.5843,47.6013 C58.7913,48.8083 60.1333,49.8943 61.5833,50.8373 C62.4943,49.7333 63.3753,48.6183 64.1893,47.3973 C64.5143,46.9093 65.1713,46.7763 65.6613,47.1023 C66.1483,47.4273 66.2803,48.0863 65.9553,48.5743 C64.9073,50.1463 63.7803,51.5213 62.6213,52.9093 C62.4133,53.1583 62.1123,53.2903 61.8063,53.2903" id="Fill-66"></path>
                                <path d="M71.6634,80.1676 C71.5844,80.1676 71.5044,80.1586 71.4234,80.1406 C70.8524,80.0086 70.4964,79.4386 70.6284,78.8686 C71.3124,75.9046 72.4134,73.0746 73.4774,70.3376 C74.1504,68.6086 74.8454,66.8216 75.4114,65.0536 C75.5904,64.4956 76.1894,64.1876 76.7454,64.3666 C77.3034,64.5446 77.6114,65.1416 77.4324,65.7006 C76.8474,67.5306 76.1394,69.3486 75.4554,71.1076 C74.4184,73.7746 73.3454,76.5316 72.6964,79.3446 C72.5834,79.8356 72.1464,80.1676 71.6634,80.1676" id="Fill-68"></path>
                            </g>
                        </g>
                    </g>
                </g>
            </g>
        </g>
    </g>
</svg>