<?xml version="1.0" encoding="UTF-8"?>
<svg width="103px" height="99px" viewBox="0 0 103 99" version="1.1" xmlns="http://www.w3.org/2000/svg" xmlns:xlink="http://www.w3.org/1999/xlink">
    <!-- Generator: Sketch 52.6 (67491) - http://www.bohemiancoding.com/sketch -->
    <title>icon</title>
    <desc>Created with Sketch.</desc>
    <defs>
        <polygon id="path-1" points="0.837305614 0.56415825 28.5981181 0.56415825 28.5981181 17.4610087 0.837305614 17.4610087"></polygon>
        <polygon id="path-3" points="0 0.589622507 82.1131396 0.589622507 82.1131396 88.0724417 0 88.0724417"></polygon>
    </defs>
    <g id="LP-SPRINT" stroke="none" stroke-width="1" fill="none" fill-rule="evenodd">
        <g id="Desktop-HD" transform="translate(-672.000000, -2466.000000)">
            <g id="3-Como-Trabalhamos" transform="translate(208.000000, 2156.000000)">
                <g id="Cardss" transform="translate(50.000000, 199.000000)">
                    <g id="1" transform="translate(332.000000, 0.000000)">
                        <g id="icon" transform="translate(82.000000, 111.000000)">
                            <g id="azul" opacity="0.548507463" transform="translate(7.000000, 18.000000)">
                                <path d="M71.5420528,7.49456564 C71.5330581,4.85959271 68.8556572,3.73830639 66.6899506,4.71281703 C63.1790475,6.29240292 59.3893108,7.66031233 56.0363134,9.55142212 C55.1948159,10.0256973 54.5362093,10.5359175 54.0275131,11.1409928 C53.533808,11.0271667 52.9921315,11.0241713 52.40848,11.2028981 C46.7908351,12.9202735 41.4110481,15.2127698 36.3080958,18.0733979 C35.0948204,17.0000383 32.8151819,17.414405 32.8491616,19.5092035 C32.8531592,19.7118937 32.8541586,19.9155824 32.8571568,20.1182726 C32.7132428,20.2081353 32.5673299,20.2930056 32.4244153,20.3838667 C30.0368412,21.9045427 30.7184341,25.6817699 32.9261156,26.5274774 C33.0110649,39.6614046 32.6972523,52.77037 31.5679268,65.8733445 C31.3820378,68.0290499 34.1623773,69.4928128 35.9033375,68.3595448 C39.0564544,66.3086792 42.3434912,64.5234076 45.873383,63.203425 C48.3459064,62.2778396 51.1222482,61.8904317 53.5068241,60.764153 C58.8346421,58.2499954 58.0730969,50.7604418 58.5098361,45.7880412 C58.6447555,44.2533866 58.7566887,42.7177336 58.8626254,41.1820805 C62.0477231,40.0518079 65.5056579,39.148189 68.5348488,37.667452 C71.0783297,36.4223549 71.693962,34.6470681 71.7469304,31.902263 C71.9008385,23.7786784 71.5700361,15.6211457 71.5420528,7.49456564" id="Fill-1" fill="#009CD5"></path>
                                <path d="M88.0955366,60.0550745 C87.3945482,57.1480204 83.9056289,57.3224639 82.3904925,59.3038587 C82.3804784,59.3169672 82.3724671,59.3290673 82.362453,59.3421757 C82.2623118,59.3885595 82.1621706,59.4288933 82.0640322,59.4873772 C81.1988123,59.9965906 80.678078,60.931325 80.2264412,61.9094181 C79.5294585,61.9467268 78.7854094,62.4650153 78.5190338,63.1022884 C77.3483832,65.9004414 77.4395117,69.5597197 77.311331,72.5585331 C77.265266,73.6556107 78.1975806,75.0733416 79.3451987,75.247785 C82.709943,75.7600235 86.0676773,72.4647571 88.1606284,70.018516 C90.6801809,67.0721365 88.8946634,63.3705077 88.0955366,60.0550745" id="Fill-3" fill="#009CD5"></path>
                                <path d="M69.8464314,49.1982317 C68.2711175,48.5626763 66.7181773,47.7970072 65.1174386,47.2084929 C64.0902811,45.9113593 62.1061381,45.3808957 60.7393066,46.2896899 C60.7260858,46.2896899 60.7138819,46.2876882 60.7006611,46.2876882 C59.551465,46.2766785 59.1121263,47.3536197 59.4355284,48.2363912 C59.1639927,49.0871346 59.1446699,49.9208633 59.4253585,50.7005446 C59.5748557,53.2938109 59.7274039,55.8860763 59.881986,58.4793426 C58.726688,58.5674196 57.4818951,58.9017117 55.9289549,59.4401823 C51.7308297,60.896455 47.6201654,62.6459839 43.6427266,64.6137035 C41.5670547,65.6406009 39.5859627,66.7886042 37.5875819,67.9496188 C35.5820822,69.1156378 34.6698442,68.3429626 32.5870534,67.4701999 C28.7499589,65.863796 24.7460784,64.2223615 20.558123,63.8530388 C19.9286077,63.7979907 19.6753777,64.6267149 20.064884,65.025063 C23.1717814,68.203841 27.3587197,70.3577233 31.2873432,72.3854954 C34.7095067,74.1510383 37.0495954,74.9917731 40.7402437,73.2572573 C45.094985,71.2104685 49.306331,69.010546 53.8288753,67.317066 C55.5160579,66.6855141 58.6605838,64.8859414 60.4525161,65.0430788 C62.2220747,65.1982143 62.6461586,66.375243 64.7279324,65.5965625 C66.9998828,64.745819 67.8043201,61.7732212 65.7611918,60.2829188 C65.8039053,60.1938409 65.8527207,60.1117692 65.8903493,60.0156853 C66.2656177,59.0408333 65.8893323,57.5775545 66.327654,56.7588391 C66.5839349,56.280421 67.9975478,55.7469548 68.4368865,55.4807221 C69.1457269,55.0513469 69.8393125,54.6299786 70.5013715,54.1295413 C72.4590728,52.6452441 72.1356707,50.1220391 69.8464314,49.1982317" id="Fill-5" fill="#009CD5"></path>
                                <g id="Group-9" transform="translate(67.369876, 63.296478)">
                                    <mask id="mask-2" fill="white">
                                        <use xlink:href="#path-1"></use>
                                    </mask>
                                    <g id="Clip-8"></g>
                                    <path d="M24.2147689,0.609780326 C22.585191,0.342043498 20.8243443,1.2665116 20.869468,3.02038184 C20.8910042,3.86336482 21.1863588,4.49681463 21.331985,5.27286341 C21.4817134,6.06540322 21.7391231,6.19151115 21.8601365,6.19636145 C21.7606594,6.23807407 21.5340158,6.37388261 21.1002137,6.77354773 C19.4162824,8.31788479 15.5284725,9.01050833 13.3553601,9.92527582 C12.2262441,10.4006057 10.7248583,11.4861039 9.54036337,11.5928106 C7.93847495,11.7363797 7.49749414,11.1873251 6.06892144,10.3530727 C4.43524138,9.40047284 3.29894665,8.4866754 1.41093347,9.14922705 C1.17813663,9.23071217 0.916624756,9.39853271 0.875603286,9.65462881 C0.426418185,12.442584 4.02912882,15.544839 6.40837411,16.8524812 C10.0490296,18.8517769 15.6587157,15.3954496 19.0214507,14.0839272 C22.2744533,12.8160575 27.0483269,11.8683079 28.2953796,8.30721412 C29.3260441,5.36210902 27.6749299,1.17823605 24.2147689,0.609780326" id="Fill-7" fill="#009CD5" mask="url(#mask-2)"></path>
                                </g>
                                <path d="M37.1500598,63.9357699 L37.0496273,63.7526268 C36.5870289,62.9099685 35.411258,62.1313602 34.4008457,62.2544564 C34.3359196,62.2614618 34.2709935,62.2694681 34.2060674,62.2774743 C34.1157796,62.2884829 34.0214339,62.3074978 33.9281026,62.3255119 C33.9118711,61.9352069 33.4644898,61.6089521 32.5758139,61.347748 C31.7500352,60.9144094 30.9201986,60.4890771 30.0852897,60.0717511 C30.0589135,60.0587409 30.0325372,60.0467315 30.006161,60.0327206 C30.5661485,53.5956916 30.7862886,47.0976149 31.2691764,40.6585843 C31.7845272,33.7952222 33.3478257,26.4835098 32.2988636,19.6491704 C32.1061142,18.3941899 30.0102189,18.1399913 29.4837089,19.2858866 C26.5965268,25.5737991 26.3317501,33.1327046 25.4714794,39.921008 C24.754249,45.5814303 24.0187582,51.3489363 23.6616647,57.0894211 C21.9441667,56.3538464 20.2155096,55.6442921 18.4645341,54.9917823 C13.0594371,52.9762076 6.9898622,50.8065125 1.14144177,50.9476227 C-0.0556330109,50.9766454 -0.406639684,52.4718135 0.55000567,53.1013053 C6.20973465,56.8272163 13.2034919,58.9118449 19.3329205,61.8241202 C20.7582511,62.5016495 22.1805383,63.1861843 23.5957241,63.8857308 C24.0897711,65.4439482 25.723068,66.0264033 27.1757893,65.7181624 C27.4781014,65.876286 27.7854859,66.0244017 28.085769,66.1845268 C30.381515,67.4104846 32.4885695,69.2239013 35.2103929,68.6404455 C37.3286066,68.1850898 38.097575,65.6601171 37.1500598,63.9357699" id="Fill-10" fill="#009CD5"></path>
                                <path d="M65.8902198,0.304281761 C60.1914525,2.9533891 54.3631679,5.30659615 48.5747347,7.75077254 C42.9267782,10.1359688 36.7209004,12.1922759 31.4814219,15.3921976 C30.3237353,16.0989595 31.1446766,17.6204468 32.3442073,17.4475051 C38.4125974,16.5698008 44.57962,14.0176608 50.3172424,11.8983749 C56.2132747,9.72010894 61.9967264,7.25793861 67.8339776,4.92972314 C71.194457,3.59017452 69.2347585,-1.25019443 65.8902198,0.304281761" id="Fill-12" fill="#009CD5"></path>
                            </g>
                            <g id="preto" opacity="0.64558069">
                                <g id="Group-16">
                                    <mask id="mask-4" fill="white">
                                        <use xlink:href="#path-3"></use>
                                    </mask>
                                    <g id="Clip-15"></g>
                                    <path d="M2.25379426,50.1679934 L39.7232,68.7764543 C44.3318017,66.8397737 49.0643835,64.9955503 53.6465633,63.2103419 C57.5753074,61.6798823 61.5670577,60.1258167 65.5649054,58.4802775 C65.558808,48.0109896 65.4825908,37.258429 64.4765233,26.7675023 C64.4206307,26.1940717 64.8565933,25.6845742 65.4500714,25.6314606 C66.0303386,25.5793306 66.5689403,26.0003053 66.6228005,26.5747194 C67.611592,36.857126 67.7111825,47.3500199 67.7203286,57.5842308 C71.5484659,55.9770515 75.3735546,54.275448 79.1478317,52.4233558 C79.4069703,52.2964732 79.6661089,52.1715578 79.9252474,52.0495932 C79.7545208,48.3808179 79.5634697,44.6992561 79.370386,41.015727 C79.0289328,34.4522586 78.6752849,27.6733848 78.454763,21.0213937 L42.1834921,2.75718788 C37.3716444,4.21191136 31.7996569,6.05613485 24.1738692,8.58099975 C21.8050377,9.36491768 19.2502362,10.2108015 16.4789778,11.1245528 C13.3306981,12.1612523 10.2525383,13.5087649 7.27701773,14.8110326 C5.7984035,15.4582321 4.27609139,16.1241197 2.74463321,16.7536146 C2.70398402,23.7301891 2.57898777,30.8051222 2.4570402,37.6548141 C2.38387166,41.7740717 2.30968689,45.9621803 2.25379426,50.1679934 Z M2.15928489,64.5135932 L39.7079566,85.848554 C47.000421,82.4915755 58.0946007,77.6129896 65.6268954,74.4497775 C65.5649054,70.0147889 65.5649054,65.5768495 65.5649054,61.2785793 L65.5649054,61.0326828 L65.5649054,60.7474429 C61.8343261,62.272001 58.1169578,63.7198394 54.4524335,65.1470225 C49.7289978,66.9873116 44.8439815,68.8905503 40.1164809,70.8872295 C39.8197418,71.0121449 39.4793049,71.0023091 39.1937443,70.8587056 L2.2243236,52.4990919 C2.18265818,56.0301652 2.15725243,59.5671399 2.15725243,63.0785414 L2.15928489,64.5135932 Z M39.6551126,88.0724417 C39.4660939,88.0724417 39.2770752,88.024246 39.1093973,87.9288381 L0.535349813,66.0115944 C0.206091386,65.8247131 0.00386167291,65.4824253 0.0028454432,65.1135806 L-0.000203245943,63.0785414 C-0.000203245943,59.001578 0.035364794,54.8941235 0.0882087391,50.8014227 C0.146133833,46.3516803 0.224383521,41.9471828 0.300600749,37.6194051 C0.426613233,30.5503735 0.555674407,23.2393798 0.591242447,16.0533015 C0.593274906,15.6342939 0.855462172,15.2556134 1.25585668,15.0952889 C2.97938227,14.4008773 4.71205393,13.6425326 6.38781673,12.9087775 C9.41110012,11.5858545 12.5370227,10.2176866 15.7838767,9.1475452 C18.5551351,8.23477753 21.1079041,7.38987727 23.4757194,6.60595934 C31.344386,4.0004404 37.029175,2.11884066 41.9680514,0.636576768 C42.240401,0.554939141 42.5330752,0.580512374 42.7851001,0.707394949 L80.0106107,19.4515907 C80.3561288,19.6256854 80.5786831,19.9669896 80.5908779,20.3446866 C80.8083511,27.1717561 81.1731775,34.1561992 81.524793,40.9104833 C81.7290552,44.8290894 81.9333174,48.7437611 82.1121738,52.6456462 C82.1304659,53.0646538 81.887587,53.4551374 81.4963386,53.63415 C81.0370027,53.8446374 80.5796994,54.0620098 80.1244285,54.2852838 C76.0208929,56.2986841 71.8685783,58.1320881 67.722361,59.8582813 L67.722361,61.0326828 L67.722361,61.2785793 C67.722361,65.7952056 67.722361,70.4652712 67.7934971,75.1156652 C67.7995945,75.5376235 67.5435046,75.921222 67.1431101,76.0894152 C59.4563486,79.3027902 47.5867855,84.5216967 40.1195296,87.9711323 C39.9721763,88.0389997 39.8136444,88.0724417 39.6551126,88.0724417 Z" id="Fill-14" fill="#000000" mask="url(#mask-4)"></path>
                                </g>
                                <path d="M40.4980845,37.7840909 C40.3272124,37.7840909 40.1563402,37.7442435 40.0007244,37.6655449 L1.69484205,18.188135 C1.16493486,17.919165 0.959481398,17.2816066 1.23409741,16.7635904 C1.50871342,16.244578 2.16270637,16.0443448 2.68956227,16.3113224 L40.5357171,35.5546288 C46.0971999,33.1588038 51.8448113,31.0289602 57.4083283,28.9678533 C64.7049775,26.2632109 72.2497981,23.4669195 79.4884728,20.0330697 L79.6542595,19.9543711 C80.1923034,19.7013401 80.8371425,19.9224932 81.095485,20.4484789 C81.3538275,20.9754607 81.127015,21.6070421 80.5910052,21.8600731 L80.4313211,21.9347869 C73.104159,25.4104765 65.513569,28.2246993 58.1721677,30.9452806 C52.4784623,33.0552005 46.5894745,35.2378419 40.935436,37.6934381 C40.7960938,37.7542054 40.6475977,37.7840909 40.4980845,37.7840909" id="Fill-17" fill="#000000"></path>
                                <path d="M39.1804184,88.5227273 C38.5026627,88.5227273 37.947816,88.0614981 37.9384515,87.4852096 C37.8600238,82.9492936 37.8202247,78.3112128 37.8202247,73.6999131 C37.8202247,61.3647608 38.1070126,48.8957032 38.6735648,36.6359345 C38.7004878,36.0556785 39.2834279,35.6142872 39.9635248,35.625198 C40.6494745,35.6480114 41.183251,36.1380054 41.1563281,36.7182615 C40.5909464,48.9502572 40.3041585,61.3925337 40.3041585,73.6999131 C40.3041585,78.3012939 40.3439576,82.9284639 40.4223853,87.454461 C40.4317498,88.035709 39.8850971,88.5138003 39.1804184,88.5227273" id="Fill-19" fill="#000000"></path>
                                <path d="M38.6692894,53.9772727 C38.4930103,53.9772727 38.3177501,53.936896 38.1587931,53.8561427 C34.1970973,51.8526904 29.480356,49.309921 24.487478,46.6171812 C16.1707699,42.1324859 7.56977332,37.494936 0.611331734,34.3253668 C0.0733236574,34.081184 -0.151865329,33.4707271 0.107968117,32.9631346 C0.366782608,32.455542 1.01381884,32.2430838 1.55182691,32.4882279 C8.57751951,35.6885603 17.2111226,40.3434145 25.5604373,44.8454141 C30.3668466,47.4372123 34.9144414,49.8896148 38.7630333,51.8469223 C44.1869291,50.0703485 48.3422263,48.7148457 51.588616,47.6554386 C63.1619033,43.8792578 63.1619033,43.8792578 68.0376015,41.9853994 C70.276245,41.1153781 73.6601935,39.8012134 79.7199171,37.5189697 C80.2721905,37.3103569 80.9029235,37.5651145 81.1250556,38.0880886 C81.3461687,38.6120241 81.0761458,39.2051767 80.5208154,39.4137895 C74.4723004,41.6921878 71.0954846,43.0034685 68.8609169,43.8725284 C63.9271383,45.7884979 63.9271383,45.7884979 52.2947516,49.5839056 C48.9607318,50.6711919 44.6678757,52.0718781 39.0238857,53.9205531 C38.9087438,53.9590071 38.7885071,53.9772727 38.6692894,53.9772727" id="Fill-21" fill="#000000"></path>
                                <path d="M53.5143407,82.0454545 C53.000411,82.0454545 52.5657626,81.6302751 52.5284537,81.0864484 C51.3812058,64.5133801 51.1965269,47.8652675 51.1685452,32.3437923 C51.1666798,31.7726769 51.6097226,31.3087674 52.1562977,31.3068182 C52.7038054,31.3068182 53.1468483,31.7687785 53.147781,32.3398939 C53.1757627,47.8233597 53.3595089,64.4276153 54.5030259,80.9363601 C54.5422002,81.5065009 54.1327353,82.0015976 53.587093,82.0425307 C53.5628422,82.0444799 53.5385915,82.0454545 53.5143407,82.0454545" id="Fill-23" fill="#000000"></path>
                                <path d="M12.0564876,72.3295455 C11.5412436,72.3295455 11.1227176,71.8619835 11.1235969,71.2863715 C11.134148,55.7694043 11.1851448,39.1336282 11.4823334,22.6147425 C11.4928845,22.0391305 11.9193237,21.5460294 12.4345678,21.5941608 C12.9498119,21.6059481 13.358666,22.0813682 13.3481149,22.6569802 C13.0509263,39.158185 12.9999295,55.7821739 12.9893784,71.2873538 C12.9893784,71.8629658 12.5717317,72.3295455 12.0564876,72.3295455" id="Fill-25" fill="#000000"></path>
                                <path d="M25.4361417,79.8863636 C24.8842323,79.8746862 24.4612229,79.4027215 24.4721158,78.8324714 C24.6872515,67.5111577 25.1647257,56.8184815 25.5133001,49.0111152 C25.727528,44.2194572 25.8818448,40.7570854 25.8818448,39.1991154 C25.8818448,37.1390138 25.7937935,35.0555574 25.7084654,33.0402195 C25.6685246,32.1001826 25.627676,31.1601458 25.5968127,30.2171895 C25.57775,29.6469394 25.9934975,29.1681629 26.5245287,29.1477273 C26.5363294,29.1477273 26.5481301,29.1477273 26.5599308,29.1477273 C27.076438,29.1477273 27.5030785,29.5856326 27.5221411,30.1432322 C27.5539122,31.0793765 27.5929453,32.0126016 27.6328861,32.9467997 C27.7191219,34.9845194 27.8089888,37.0923039 27.8089888,39.1991154 C27.8089888,40.8067147 27.6528565,44.2895221 27.4377208,49.1094006 C27.0900542,56.9050894 26.6134878,67.5821957 26.3992598,78.8752888 C26.3883668,79.4377539 25.9590032,79.8863636 25.4361417,79.8863636" id="Fill-27" fill="#000000"></path>
                                <path d="M75.6187656,86.414089 L85.7326399,92.695366 C89.3070253,90.6735643 93.0676946,88.8966175 96.7192695,87.1806346 C96.0688198,82.4664288 95.5007056,77.1905559 95.2588454,73.6166742 C94.0876243,72.8571243 92.9277244,72.0795852 91.7709121,71.3020461 C90.198306,70.247671 88.5783571,69.1603155 86.9604665,68.1429185 C83.37476,70.0238037 79.6614336,72.0655935 75.910027,74.2223152 C75.8523923,76.1801547 75.8112246,78.1429913 75.7700569,80.1088262 C75.7268308,82.2105804 75.6836047,84.3143335 75.6187656,86.414089 M85.7089685,95 C85.5041592,95 85.2993499,94.9440332 85.1202704,94.8320995 L73.9195688,87.8762223 C73.5953732,87.6753414 73.4039434,87.3225505 73.4162937,86.9487721 C73.4914248,84.6581297 73.5387676,82.3604916 73.5861105,80.0658516 C73.6313949,77.8981365 73.6766794,75.7324201 73.7446061,73.5756984 C73.7559272,73.2129135 73.9566197,72.8821095 74.2777278,72.6962197 C78.4305194,70.3006396 82.5400849,68.0399795 86.4921839,65.979201 C86.8410802,65.7963094 87.2630491,65.8122999 87.5954783,66.0191773 C89.4274409,67.1515061 91.2491115,68.3747811 93.0121182,69.5570803 C94.3078715,70.426565 95.604654,71.2960496 96.9168744,72.1405491 C97.2040191,72.3254395 97.3841278,72.6292594 97.4047116,72.9620621 C97.6321632,76.6658669 98.2692333,82.5703672 98.989668,87.6553533 C99.0545072,88.1100837 98.8095593,88.5538207 98.3845029,88.7537023 L97.9450377,88.9605796 C94.0505734,90.7914944 90.0223141,92.6853719 86.2657616,94.8510883 C86.0938865,94.9500296 85.9014275,95 85.7089685,95" id="Fill-29" fill="#000000"></path>
                                <path d="M86.0448079,95 C85.4733392,95 84.995067,94.5747457 84.9612705,94.0221111 L84.8947015,92.9785724 C84.7205982,90.2232381 84.5393258,87.3748183 84.5393258,84.5665722 C84.5393258,83.2212401 84.5792672,81.9934898 84.6611982,80.8137521 C84.6857775,80.4776641 84.8772912,80.173911 85.1763393,79.9975383 C88.4597241,78.0662567 91.9745639,76.0203329 96.2390723,73.5589532 C96.751141,73.2620591 97.4209269,73.4198147 97.7312406,73.9126785 C98.0415542,74.4035827 97.8756439,75.0434238 97.3615269,75.3393381 C93.3110632,77.6782367 89.9365303,79.6408734 86.7965248,81.4859283 C86.7401973,82.4569582 86.7125455,83.4701217 86.7125455,84.5665722 C86.7125455,87.312108 86.8917696,90.1281928 87.0648488,92.8521719 L87.1303936,93.8986502 C87.1662384,94.4718616 86.7094731,94.9637456 86.1103527,94.9980403 C86.0878217,94.9990202 86.0663148,95 86.0448079,95" id="Fill-31" fill="#000000"></path>
                                <path d="M85.7010388,83.125 C85.4938942,83.125 85.2847481,83.0629226 85.1006196,82.9325601 C83.113232,81.5234034 81.1308478,80.0231998 79.2135091,78.5726581 C77.8045253,77.5069963 76.3965423,76.4413344 74.9775515,75.4036074 C74.4982168,75.0528702 74.3841372,74.3679497 74.723374,73.8723652 C75.0616102,73.3778153 75.7240727,73.2609029 76.2034074,73.6106055 C77.6324052,74.6545403 79.0503952,75.7274445 80.4683853,76.8013833 C82.3727149,78.2415787 84.34209,79.7314361 86.3024587,81.120935 C86.7857962,81.4644298 86.9098828,82.1483157 86.5776509,82.6480387 C86.3715069,82.9584257 86.039275,83.125 85.7010388,83.125" id="Fill-33" fill="#000000"></path>
                            </g>
                        </g>
                    </g>
                </g>
            </g>
        </g>
    </g>
</svg>