<?xml version="1.0" encoding="UTF-8"?>
<svg width="96px" height="100px" viewBox="0 0 96 100" version="1.1" xmlns="http://www.w3.org/2000/svg" xmlns:xlink="http://www.w3.org/1999/xlink">
    <!-- Generator: Sketch 52.6 (67491) - http://www.bohemiancoding.com/sketch -->
    <title>3</title>
    <desc>Created with Sketch.</desc>
    <g id="LP-SPRINT" stroke="none" stroke-width="1" fill="none" fill-rule="evenodd">
        <g id="Desktop-HD" transform="translate(-343.000000, -2959.000000)">
            <g id="3-Como-Trabalhamos" transform="translate(208.000000, 2156.000000)">
                <g id="Cardss" transform="translate(50.000000, 199.000000)">
                    <g id="3" transform="translate(0.000000, 498.000000)">
                        <g transform="translate(85.000000, 106.000000)">
                            <g id="azul" opacity="0.55" transform="translate(1.000000, 2.000000)" fill="#009CD5">
                                <path d="M69.6885255,9.09606848 C59.8114262,3.85143909 48.8322063,3.39374878 37.9443049,4.6811334 C27.5623294,5.90791063 18.1701631,9.95606649 11.316023,18.1088058 C4.90902889,25.7307079 0.988628668,35.3035411 0.161513441,45.2024003 C-0.624665879,54.6111756 1.34760507,67.9771956 8.54707632,74.8226961 C10.032315,76.2354754 12.6658582,74.8404604 12.062316,72.7860787 C10.8153454,68.5404264 8.59535969,64.667823 7.45440252,60.3542485 C6.25991378,55.8358629 5.84215761,51.1983524 6.11401401,46.5378529 C6.62728729,37.723657 10.0344142,29.2177229 15.5408184,22.3147499 C18.2551838,18.9134212 21.1112505,15.4755191 24.9193394,13.2528997 C29.1052982,10.8087498 33.8622604,10.2517888 38.6213218,9.9278527 C48.18248,9.27789066 58.3702723,8.87349306 66.8796926,13.8788277 C69.9761265,15.7001844 72.8437392,10.7711314 69.6885255,9.09606848" id="Fill-1"></path>
                                <path d="M88.1755567,23.1955402 C86.7784077,20.664421 82.890007,22.9327979 84.3017859,25.463917 C93.6889138,42.2940799 91.4359195,64.3675743 78.5679363,78.9502959 C75.6555545,82.2507999 71.7065446,84.1967679 67.8014241,86.0705079 C63.2024316,88.2771246 58.4769955,90.245075 53.527932,91.5169152 C43.9610661,93.9747596 35.7767195,92.3857444 26.6790532,89.2391173 C25.4146177,88.8026092 24.6319216,90.4910688 25.4417874,91.3682722 C32.2582446,98.7459925 44.3947361,98.6758581 53.432838,96.6074166 C58.8176616,95.3753541 63.9663179,93.2566671 68.955091,90.9150155 C73.6658972,88.7010713 78.4885172,86.3499987 81.9944522,82.3826945 C96.3107889,66.1826945 98.5157138,41.9297997 88.1755567,23.1955402" id="Fill-3"></path>
                                <path d="M58.9137876,16.9319878 C58.630274,16.9031085 58.3478261,16.8792084 58.0653783,16.8602874 C58.0099546,16.5943984 57.8767245,16.3295052 57.645437,16.0885121 C55.4210271,13.7682069 51.4966011,13.8130197 48.8074846,15.3695162 C48.7893653,15.3794746 48.7808385,15.3944122 48.7637851,15.4053664 C47.9015198,15.1832943 47.0371229,14.9721764 46.15887,14.8068671 C42.4667973,14.1157548 38.7395518,13.9623955 35.1402072,15.0956605 C34.3749334,15.3366535 34.2395716,16.497802 35.1402072,16.6760572 C39.90345,17.6231002 44.4567222,18.2863291 49.0600889,19.8497965 C52.5134133,21.022895 56.5625427,22.3423818 59.9274023,20.428379 C61.7499902,19.3917105 60.8109844,17.1271723 58.9137876,16.9319878" id="Fill-6"></path>
                                <path d="M61.3932336,78.4705614 C56.4341353,79.1650267 51.8709943,81.5240215 46.7417414,82.0030385 C41.8939392,82.455808 37.0236637,81.4310616 32.2229483,81.9166404 C31.4770503,81.9910084 31.1699158,82.9282631 31.8366224,83.3744708 C36.4522009,86.4607402 42.7864485,86.897105 48.1671878,86.4607402 C53.139128,86.0571847 59.3545883,85.1275855 63.2927588,81.8061822 C64.9943053,80.3713184 63.0626755,78.2365212 61.3932336,78.4705614" id="Fill-8"></path>
                                <path d="M68.8033515,37.0031108 C68.5060186,36.7794261 68.034975,37.0808679 68.0573549,37.4313073 C68.2598397,40.6768658 69.2424238,43.7967348 69.3980174,47.052945 C68.907791,44.1194799 67.8996299,41.2318169 66.9266372,39.047163 C64.8399781,34.3636313 60.7828222,27.9236422 55.5150205,26.5080376 C55.1302994,26.4047165 54.7082784,26.7764592 54.8425578,27.1801568 C56.3324196,31.6442644 60.2489018,35.22535 62.1980844,39.5808108 C63.4524244,42.3853909 64.3625403,45.3486806 64.631099,48.4216824 C64.8612923,51.0473147 64.1227556,53.6292753 64.9326948,56.140935 C65.1426396,56.7896206 65.7959195,57.2902483 66.4715792,57.3871784 C66.2872115,57.5277802 66.1198951,57.6928808 65.9930757,57.8973925 C65.874782,58.0869919 65.7564882,58.2765913 65.6381945,58.4651256 C64.4062343,60.4452678 66.9277029,63.1625044 68.9429594,61.7682031 C76.1258411,56.8002723 75.5620808,42.0850143 68.8033515,37.0031108" id="Fill-10"></path>
                                <path d="M48.1707914,45.959013 C46.0138133,43.8641922 41.7635835,45.1304482 39.2858129,46.1931016 C36.8782494,47.2274466 35.1057902,49.0805573 34.5430533,51.6969057 C34.3173105,52.74976 35.4784279,53.370367 36.2658275,52.7072974 C37.823345,51.3964013 39.9111961,50.6494953 41.8888761,50.2716872 C44.0048101,49.8677482 46.644597,50.5177524 48.1707914,48.7321463 C48.8469398,47.941689 48.9733125,46.7385825 48.1707914,45.959013" id="Fill-12"></path>
                                <path d="M54.3829742,50.4625061 C54.1207524,49.8033022 53.591883,49.0637839 52.7742377,48.9459199 C51.4963211,48.7633871 50.3677714,49.1899922 49.9417992,50.4625061 C49.6740453,51.263564 49.8687754,52.1772707 49.796858,52.9981465 C49.7072379,54.002598 49.3753115,54.9976621 48.8541871,55.8759053 C47.9624116,57.379975 46.5495116,58.2801221 45.1045254,59.2605837 C44.6730211,59.5536791 43.2059065,60.4517401 43.7834584,61.1766558 C45.5437747,63.3826942 49.678471,61.3424998 51.3325708,59.9667246 C53.9603213,57.780504 55.6608908,53.6771682 54.3829742,50.4625061" id="Fill-14"></path>
                                <path d="M53.3786054,72.4385247 C49.1856484,72.3537252 45.0182582,72.0742012 40.8988058,71.2576143 C37.1170483,70.5080294 32.2625501,69.6725981 29.3308891,67.0521915 C23.4739588,61.8145191 22.4598086,50.6021523 22.5865774,43.3429037 C22.5972302,42.7199944 21.6043858,42.5660992 21.4637683,43.1931961 C19.6282843,51.3465027 19.3236132,62.8718945 25.441538,69.5689544 C28.3529586,72.7567842 32.686533,74.066464 36.7697658,75.1238394 C42.1888644,76.525647 47.7762779,77.319202 53.3786054,77.4333148 C56.6500919,77.4992699 56.6500919,72.5044798 53.3786054,72.4385247" id="Fill-16"></path>
                                <path d="M93.1764341,1.99627646 C92.9114939,1.14145721 92.2491436,0.288807548 91.3460343,0.107646615 C90.0949281,-0.144026059 89.2265133,0.0121845662 88.2792472,0.934261172 C87.4928376,1.69795756 87.4003189,3.08324206 87.9775099,4.01074265 C87.9396613,4.14959654 87.9070694,4.29062002 87.8671181,4.42947391 C87.4223972,6.00351291 86.8904143,7.55368641 86.2154478,9.03985694 C85.9179158,9.69290413 85.5909461,10.3307642 85.2492574,10.9599459 C85.1546359,11.134598 84.6216016,11.9330079 84.6920421,12.1911893 C84.6783745,12.1857654 84.6626043,12.1792566 84.6478854,12.1738326 C84.6142422,11.9189055 84.5027991,11.6704873 84.2820157,11.4600368 C83.2779767,10.4989076 82.1509299,9.72002403 81.0354479,8.90208784 C79.9010415,8.0722189 78.5059005,9.94240721 79.5456853,10.8937733 C79.6718473,11.0087617 79.7969579,11.1237501 79.9220685,11.2387384 C79.2944128,11.6976072 79.0357807,12.6402949 79.4426531,13.3931433 C81.516966,17.234406 86.1586749,19.1002551 88.9037489,15.0387789 C90.2053198,13.1143507 91.1851778,10.9208932 92.0167954,8.74479242 C92.7958455,6.70754552 93.8514006,4.17563164 93.1764341,1.99627646" id="Fill-18"></path>
                                <path d="M23.0508735,71.2165195 C24.2911723,70.6064204 22.9554659,70.4295649 22.0760568,69.6541216 C21.365685,69.0283252 20.6978318,68.3491582 20.0828676,67.628132 C18.7440501,66.0584086 17.6520479,64.2417155 16.7923424,62.3632799 C15.1195983,58.7058245 14.3781153,54.6172184 14.4579674,50.6039591 C14.6415233,41.2735235 19.6058296,34.2610461 22.6744283,25.8630262 C23.1058366,24.6825943 21.5399075,24.0515655 20.7517578,24.7338719 C12.2988519,32.0592475 8.47010345,46.2265239 10.2164773,57.0387783 C11.0523309,62.2146794 13.1720388,67.183377 16.5548605,71.1882645 C17.391751,72.1792832 18.9908654,73.8892352 20.6988688,75.0016458 C19.8930894,75.8388315 18.53042,76.8434545 18.1508637,77.2180951 C16.9333797,78.4225962 15.7283403,79.6386085 14.5181156,80.8493885 C12.3310001,83.0386293 9.76847644,85.1901967 8.2751401,87.9382591 C7.70373154,88.9899737 8.83203011,90.0395954 9.84936549,89.5257726 C13.5681878,87.6483835 16.6056754,83.9637196 19.6110148,81.1246133 C21.1603512,79.6616311 23.7653935,77.9820272 24.6479138,75.8503428 C25.2058408,75.5950012 25.7077678,75.1083869 26.1132501,74.307828 C27.1616966,72.2389327 25.0741369,70.2213149 23.0508735,71.2165195" id="Fill-20"></path>
                                <path d="M57.3793086,38.0703325 C51.7718345,32.3058579 41.1768981,32.4473631 34.8125677,36.7542278 C34.4072969,37.0276626 34.3757173,37.8469032 34.9652021,37.9373389 C40.7442584,38.8150966 46.8612157,36.5201591 52.1549997,39.9950158 C58.9224956,44.4359381 55.4519039,52.0708347 52.407636,57.6065603 C50.9055024,60.3366529 54.7897861,62.5464745 56.5045553,60.0270438 C60.8035836,53.7146356 63.3773163,44.2369797 57.3793086,38.0703325" id="Fill-22"></path>
                                <path d="M84.2535193,50.7873724 C84.3198768,45.6011979 82.9916563,40.5355114 80.9067462,35.789741 C79.1803807,31.8603803 77.0248319,27.254833 73.9392077,23.8925965 C76.6748496,21.3000286 79.2221217,18.4945294 81.9920125,15.9279288 C84.0983283,13.976232 80.924941,10.9172927 78.8036413,12.833674 C76.0498046,15.3202957 73.3783798,18.4405176 71.685193,21.8214505 C71.1339976,21.4392129 70.42333,21.8224892 70.5496234,22.5059466 C70.6256134,22.9172675 70.7326417,23.3233949 70.843951,23.7274449 C70.8182642,23.7970371 70.7840152,23.8645519 70.7593987,23.9331054 C70.5517639,24.5126939 70.8600053,24.9749105 71.3170158,25.1951126 C72.4472341,28.2509358 74.3309311,31.1426462 75.7019629,34.0343565 C77.8896201,38.6450973 79.5838771,43.640153 79.8610803,48.7432323 C80.1190183,53.5118538 79.0027138,58.1070143 76.392295,62.1620564 C73.7957899,66.195286 69.9909359,68.7161844 66.8261109,72.1563225 C65.5695993,70.8403035 64.3805156,69.3809454 63.2096266,68.2560451 C61.2659938,66.3874435 59.3373449,64.4492497 57.0769085,62.9389958 C56.3394839,62.4466572 55.5613886,63.3845934 55.9242143,64.0576639 C58.3312794,68.5198721 62.1404145,72.4814322 65.4283221,76.3463942 C66.4879016,77.5917824 67.607417,78.93273 69.4290377,78.2835493 C71.0762023,77.6956513 71.8628599,75.7553801 72.4119147,74.2773256 C72.5210835,73.9812992 72.5403486,73.708124 72.5007482,73.4577999 C79.446881,68.129325 84.1486316,59.0729951 84.2535193,50.7873724" id="Fill-24"></path>
                            </g>
                            <g id="preto" opacity="0.65" fill="#000000">
                                <path d="M45.0022841,95.6232339 C44.9102319,95.6232339 44.8181798,95.6232339 44.7271619,95.6221892 C38.1852521,95.5824891 31.8760585,94.164778 25.9723082,91.4066666 C25.4230981,91.1496607 25.1831418,90.4904303 25.4375782,89.934629 C25.6920145,89.3788278 26.344654,89.1364483 26.8948985,89.3944989 C32.5100808,92.017839 38.5141576,93.367642 44.7395734,93.4052526 C44.8264541,93.4062974 44.9154034,93.4062974 45.0022841,93.4062974 C56.6432635,93.4062974 67.4992136,88.8178028 75.5977359,80.4661578 C83.9124257,71.8919833 88.3112782,60.3089599 87.983407,47.8514899 C87.9389323,46.1694598 87.8044741,44.4351927 87.5831352,42.6977915 C86.8818838,37.1982844 85.018086,31.9589174 82.0413877,27.1259539 C81.7207566,26.6056738 81.8779693,25.9224143 82.3930477,25.5995899 C82.9081261,25.2757208 83.5845544,25.4345211 83.9041513,25.9548013 C87.0494395,31.0593969 89.0187353,36.5975594 89.7603241,42.4146671 C89.9909717,44.2262449 90.1316357,46.0357332 90.1781789,47.7919397 C90.5215645,60.8553585 85.9003388,73.0098542 77.1657257,82.0175955 C68.6514172,90.7975836 57.2379825,95.6232339 45.0022841,95.6232339" id="Fill-26"></path>
                                <path d="M9.56301443,77.2956278 C9.22187314,77.2956278 8.88490484,77.137723 8.66790977,76.8396906 C2.87059439,68.8764747 -0.125606761,59.1282018 0.00375568389,48.6489653 C0.311513114,23.7826081 20.3272218,4.40213803 45.6259257,4.40213803 C45.7281638,4.40213803 45.8272721,4.40213803 45.9295102,4.40318376 C52.4237136,4.44396714 58.6988354,5.77308695 64.5806537,8.35185127 C66.3312197,9.11941535 68.0504883,10.0124667 69.6904703,11.0038165 C70.2131363,11.320672 70.3821421,12.0035321 70.0660387,12.5274417 C69.748892,13.0523969 69.0686959,13.2207591 68.5460299,12.9039036 C66.9884644,11.961703 65.3557851,11.1136179 63.6928518,10.3847458 C58.0885368,7.92728586 52.1076102,6.66195543 45.915948,6.62221778 C45.8199694,6.62117205 45.7229476,6.62117205 45.626969,6.62117205 C21.551992,6.62117205 2.51067468,25.0406184 2.21856593,48.6761542 C2.09441972,58.6722646 4.94352325,67.9583259 10.4570758,75.5314853 C10.8169956,76.0271602 10.708498,76.7215234 10.2150429,77.0822994 C10.0178695,77.2266098 9.78939871,77.2956278 9.56301443,77.2956278" id="Fill-28"></path>
                                <path d="M46.0995189,85.4505495 C46.0250454,85.4505495 45.9516208,85.4505495 45.8781962,85.4495668 C41.495796,85.4249999 37.2119947,84.6683408 33.1432225,83.2002255 C32.5694617,82.9928812 32.2841546,82.3895193 32.5044284,81.8519965 C32.7257512,81.3154563 33.368741,81.0462036 33.9435507,81.2535479 C37.7595325,82.6312571 41.7800542,83.3407479 45.8907832,83.3643321 C50.9256134,83.4242752 55.7391209,82.4150688 60.2379514,80.4615124 C60.7970274,80.2187919 61.4578488,80.4457897 61.7158839,80.9685723 C61.9749679,81.491355 61.7326667,82.1104398 61.1746396,82.3531603 C56.4418993,84.4079321 51.3703568,85.4505495 46.0995189,85.4505495" id="Fill-31"></path>
                                <path d="M60.6756865,19.3281005 C60.530242,19.3281005 60.3815653,19.3001154 60.2382756,19.2409161 C55.9557425,17.4703204 51.4060225,16.5575756 46.7173221,16.5274378 C43.0133351,16.4962237 39.385841,17.0268642 35.9339578,18.0763055 C35.329555,18.2635903 34.6906765,17.9202347 34.5064467,17.3174787 C34.3232944,16.7136464 34.6637423,16.0753708 35.2681451,15.891315 C38.9408885,14.7740637 42.7935522,14.2068273 46.7313279,14.2434232 C51.7173815,14.2746373 56.5558358,15.2465814 61.1130974,17.1301938 C61.6970302,17.3712962 61.9739135,18.0397096 61.7325833,18.6220149 C61.5505083,19.062242 61.1249484,19.3281005 60.6756865,19.3281005" id="Fill-33"></path>
                                <path d="M68.7400457,62.0533752 C68.5828075,62.0533752 68.4223819,62.0201258 68.2693934,61.9493367 C67.7041855,61.686559 67.4566415,61.0108451 67.7169346,60.4391696 C70.4377941,54.465 70.3570501,47.2348605 67.5002007,41.0998067 C66.0595582,38.0065383 64.0292722,35.2757958 61.4667133,32.9826585 C55.170808,27.3517088 46.7479364,25.3417279 38.9359566,27.6026883 C38.3356889,27.7764433 37.7131104,27.4267881 37.5409982,26.8229358 C37.3699485,26.2180109 37.7152352,25.5884171 38.3144405,25.4146621 C46.8711772,22.9359716 56.0855523,25.128288 62.9626017,31.2794303 C65.7557059,33.779572 67.9687283,36.7570037 69.5400486,40.1312833 C72.677377,46.8669718 72.7613083,54.8146552 69.7652818,61.390532 C69.5751084,61.8077585 69.1671389,62.0533752 68.7400457,62.0533752" id="Fill-35"></path>
                                <path d="M47.3022435,76.2951331 C41.0193617,76.296184 34.8688514,74.0282491 30.0282897,69.7740319 C20.5939068,61.47999 18.5299701,47.7599295 25.1199538,37.1517111 C25.4461172,36.6272905 26.138685,36.4643944 26.6660531,36.7880848 C27.1944802,37.1107243 27.3586209,37.798041 27.0335165,38.3214106 C20.9211292,48.1613897 22.7647997,60.4090791 31.5182635,68.1040835 C37.4876896,73.3503909 45.6364803,75.2914825 53.3172053,73.2946909 C53.9208195,73.1391513 54.5318464,73.4964719 54.6885743,74.0913057 C54.8463611,74.6871903 54.4863106,75.2967372 53.8858734,75.4533278 C51.7096856,76.0187351 49.4974928,76.2951331 47.3022435,76.2951331" id="Fill-37"></path>
                                <path d="M46.1100088,63.0706436 C45.6085999,63.0706436 45.1523913,62.7232246 45.0273018,62.2042405 C44.8801378,61.5930403 45.2459456,60.977551 45.8440623,60.8274316 C46.63139,60.6301319 47.3934896,60.3041585 48.1103888,59.8548727 C48.3595165,59.6993919 48.6075931,59.5256824 48.8493626,59.3380332 C50.7183461,57.8850923 51.70855,55.4338578 51.4373476,52.9418765 C51.3206676,51.879246 50.9958555,50.8627235 50.4702695,49.9212607 C48.4267915,46.2572763 44.0707355,44.9608884 40.5566681,46.9714155 C38.2409365,48.2946103 36.8302639,50.5228104 36.6862534,53.0844899 C36.6505136,53.7117744 36.1186206,54.1900117 35.5078898,54.1546264 C34.8929543,54.1192412 34.4230805,53.5809561 34.4588203,52.9536716 C34.6480312,49.601721 36.4728655,46.6969115 39.4655517,44.9855509 C44.0654796,42.3541731 49.7523192,44.0290762 52.4096816,48.7964379 C53.085585,50.0081155 53.5050026,51.318443 53.654269,52.6898905 C54.0127186,55.9721429 52.6903444,59.2125763 50.2022207,61.1469714 C49.9015856,61.3818009 49.5893876,61.6005463 49.2761384,61.7957014 C48.36267,62.3672273 47.3871826,62.7843446 46.3770065,63.0384752 C46.2876569,63.0599208 46.1972561,63.0706436 46.1100088,63.0706436" id="Fill-39"></path>
                                <path d="M10.2265951,89.5196232 C9.95154241,89.5196232 9.67544784,89.4176718 9.46082337,89.2116882 C9.02011392,88.7903581 9.00656966,88.0912622 9.42852552,87.6512064 C12.5384965,84.4147672 17.2873232,79.6573784 21.022414,76.2836168 C13.6897588,69.4903195 9.74004355,59.9994693 9.87131871,49.4121206 C9.9984264,39.1826424 14.576387,29.5950424 22.4310173,23.1075995 C22.8915222,22.7289225 23.5718609,22.7819789 23.9667282,23.2313977 C28.2310871,28.081375 32.0578621,32.5714013 35.6377148,36.9251454 C41.8128565,32.3529338 50.3446998,32.764901 56.3343893,38.0653374 C58.0993109,39.6268595 59.4964536,41.4869538 60.4883104,43.5936042 C62.8533469,48.6162749 62.4678564,54.4972106 59.4818675,58.9404223 C59.1161724,59.4855506 58.7244307,60.0098725 58.3181028,60.4988235 C57.8992726,61.0033792 57.4543956,61.4829673 56.9886814,61.935507 C60.53832,65.5090103 65.6049159,70.473423 68.838869,73.6297575 C75.3786639,67.0310002 78.8272414,58.1341734 78.5699005,48.4560654 C78.5355189,47.1619059 78.4302904,45.8282141 78.2583824,44.4914014 C77.3644611,37.5639026 73.9325534,31.0119598 68.5919467,26.0423455 C68.3731547,25.8374022 68.246047,25.5523542 68.2408377,25.2537821 C68.2356284,24.9541696 68.3523174,24.6649603 68.5648581,24.4527347 C73.2480473,19.7827329 77.4238475,15.5163758 81.1120543,10.6143823 C81.4798331,10.1264717 82.1726742,10.0276412 82.6602676,10.3938343 C83.148903,10.7600273 83.2468384,11.4518409 82.8801014,11.9397515 C79.3179605,16.6763339 75.346366,20.7939251 70.9246854,25.2194515 C76.1704823,30.4345816 79.539878,37.1363306 80.451511,44.2094744 C80.6327958,45.6201499 80.7432336,47.0287448 80.7796989,48.3967671 C81.0641284,59.0777447 77.0935759,68.8723687 69.6004733,75.9736011 C69.1691406,76.3824473 68.4919275,76.378286 68.066846,75.9631979 C64.6859898,72.6674604 58.4420849,66.557654 54.6048912,62.6678931 C54.3892249,62.4483854 54.2746196,62.1498132 54.2881639,61.8429184 C54.3017081,61.537064 54.4423601,61.2499354 54.6778219,61.051234 C55.370663,60.4634525 56.0228713,59.8038889 56.6167351,59.0891883 C56.9740953,58.6584953 57.3210368,58.194512 57.6450572,57.7107627 C60.2007553,53.9073484 60.5237338,48.8586697 58.4868852,44.5330143 C57.623178,42.698928 56.4062781,41.0791479 54.8684834,39.7173675 C49.4216063,34.8996401 41.5659342,34.7259064 36.1909458,39.3064406 C35.9648608,39.4999404 35.6731382,39.5946096 35.3741226,39.5665209 C35.0782326,39.5405129 34.8052636,39.3959082 34.6166858,39.1659973 C31.0555867,34.8132934 27.2559002,30.3367914 23.0238392,25.5065801 C16.1704425,31.5581284 12.1967643,40.2198426 12.0832009,49.4402093 C11.9540095,59.8059696 15.9745716,69.041941 23.4041204,75.4482389 C23.6447915,75.6563031 23.7844016,75.9590366 23.7864853,76.2784152 C23.7875272,76.5967535 23.6520846,76.9015676 23.4124553,77.1117125 C19.61902,80.4501031 14.3680138,85.6995638 11.0246647,89.1794382 C10.8079565,89.4062282 10.5172758,89.5196232 10.2265951,89.5196232" id="Fill-41"></path>
                                <path d="M80.3016845,7.78314551 L86.5196209,12.3045182 L89.2436488,3.28902262 L80.3016845,7.78314551 Z M87.1481603,15.2590267 C86.9072381,15.2590267 86.6695281,15.1835657 86.4703657,15.0389321 L77.4802169,8.50316939 C77.1654118,8.2746902 76.9930186,7.90157738 77.0251415,7.51903194 C77.0583353,7.13543843 77.2896207,6.79586385 77.639761,6.62083621 L90.5671152,0.122804055 C90.9718646,-0.0805214669 91.4601338,-0.0281179818 91.8113449,0.255908907 C92.1614853,0.539935797 92.3049679,1.0000384 92.176476,1.42765083 L88.2381998,14.4624937 C88.132194,14.8104529 87.8602195,15.0871433 87.5079376,15.2013829 C87.3901534,15.2401614 87.2691569,15.2590267 87.1481603,15.2590267 Z" id="Fill-43"></path>
                            </g>
                        </g>
                    </g>
                </g>
            </g>
        </g>
    </g>
</svg>