<?xml version="1.0" encoding="UTF-8"?>
<svg width="56px" height="56px" viewBox="0 0 56 56" version="1.1" xmlns="http://www.w3.org/2000/svg" xmlns:xlink="http://www.w3.org/1999/xlink">
    <!-- Generator: Sketch 52.6 (67491) - http://www.bohemiancoding.com/sketch -->
    <title>icon 7</title>
    <desc>Created with Sketch.</desc>
    <g id="LP-SPRINT" stroke="none" stroke-width="1" fill="none" fill-rule="evenodd" opacity="0.362523321">
        <g id="Desktop-HD" transform="translate(-693.000000, -1923.000000)">
            <g id="2-Nós-Conduzimos" transform="translate(264.000000, 1217.000000)">
                <g id="7" transform="translate(337.000000, 706.000000)">
                    <g id="icon-7" transform="translate(92.000000, 0.000000)">
                        <path d="M50.0762782,52.4248972 L49.1444382,52.3469157 L49.1444382,28.3526097 C49.1444382,27.8997172 48.7674108,27.5308047 48.3045561,27.5308047 C47.8417014,27.5308047 47.464674,27.8997172 47.464674,28.3526097 L47.464674,54.2424659 L7.97182346,54.2424659 L7.97182346,6.84171431 L47.464674,6.84171431 L47.464674,24.5225186 C47.464674,24.9754111 47.8417014,25.3413243 48.3045561,25.3413243 C48.7674108,25.3413243 49.1444382,24.9754111 49.1444382,24.5225186 L49.1444382,6.01990932 C49.1444382,5.5670168 48.7674108,5.19810434 48.3045561,5.19810434 L43.1120003,5.19810434 L42.9893898,4.25632783 L54.1990571,5.19510505 L50.0762782,52.4248972 Z M1.80451399,6.68275203 L6.29205925,6.13088299 L6.29205925,41.6214609 L1.80451399,6.68275203 Z M14.8472087,1.90488584 L22.1915793,2.51973993 L14.7154024,3.44052142 L14.8472087,1.90488584 Z M41.419975,5.19810434 L13.8663245,5.19810434 L40.9908382,1.8628958 L41.419975,5.19810434 Z M55.747015,3.91740826 C55.6060129,3.74944811 55.4006403,3.64747231 55.1768761,3.62947658 L42.7748214,2.59172285 L42.5510571,0.843137794 C42.4928171,0.393244555 42.0728761,0.07532 41.6130866,0.129307189 L30.109154,1.54497125 C30.063175,1.53597338 30.0171961,1.52697552 29.9681519,1.52097694 L14.1544593,0.201290107 C13.7008003,0.162299359 13.2869898,0.504218221 13.2471414,0.948112883 L13.0111161,3.6504716 L0.762324517,5.15611431 C0.308665569,5.21310078 -0.0223828517,5.63000185 0.0358571483,6.07389651 L6.28592873,54.7343492 C6.31658136,54.9562965 6.26753715,55.169246 6.35949504,55.3851947 C6.4882361,55.6851236 6.79782767,55.8860759 7.13194136,55.8860759 L48.3045561,55.8860759 C48.7674108,55.8860759 49.1444382,55.5171634 49.1444382,55.0642709 L49.1444382,53.9965243 L50.7690277,54.1314922 C51.2257519,54.170483 51.6395624,53.8285641 51.6763456,53.3816702 L55.9431919,4.51726591 C55.9615835,4.29831786 55.8910824,4.0853684 55.747015,3.91740826 Z" id="Fill-91" fill="#231F20"></path>
                        <path d="M40.2735666,21.8390554 L30.3482445,21.8390554 L30.3482445,12.12736 C32.3835793,12.2803237 34.2595203,12.991155 35.8258698,14.0978924 L35.0779456,15.1986312 C34.8419203,15.54055 34.9124214,16.0174369 35.234274,16.2813742 C35.6113014,16.5933002 36.1998319,16.5123194 36.4726403,16.1104148 L37.1132803,15.1686383 C38.8972635,16.9022269 40.068194,19.2416717 40.2735666,21.8390554 M43.8292719,9.57796498 L39.3539877,9.57796498 C39.0750487,9.57796498 38.8114361,9.71593224 38.6581729,9.94387815 L36.7577098,12.7302169 C34.7131793,11.2995564 32.2088593,10.4537572 29.5083624,10.4537572 C29.0455077,10.4537572 28.6715456,10.8226696 28.6715456,11.2755621 L28.6715456,22.6608604 C28.6715456,23.1137529 29.0455077,23.4826653 29.5083624,23.4826653 L41.1441014,23.4826653 C41.6069561,23.4826653 41.9839835,23.1137529 41.9839835,22.6608604 C41.9839835,19.1636902 40.4728087,16.008439 38.0604466,13.7799678 L39.8045814,11.2215749 L43.8292719,11.2215749 C44.2921266,11.2215749 44.669154,10.8526625 44.669154,10.39977 C44.669154,9.94687744 44.2921266,9.57796498 43.8292719,9.57796498" id="Fill-93" fill="#231F20"></path>
                        <path d="M25.9287481,36.7275223 C19.976007,36.7275223 15.1328913,31.9886468 15.1328913,26.164029 C15.1328913,20.6153458 19.5254134,16.050429 25.088866,15.6305287 L25.088866,26.164029 C25.088866,26.6169216 25.4658934,26.9828347 25.9287481,26.9828347 L36.6939523,26.9828347 C36.5069713,29.358271 35.513826,31.5147593 33.9811944,33.1913614 L32.0102302,30.1080931 C31.7650091,29.7211849 31.2469797,29.6042127 30.854626,29.847155 C30.4622723,30.0870981 30.342727,30.5939778 30.5879481,30.9778867 L32.7428281,34.352086 C30.8822134,35.8367337 28.5096997,36.7275223 25.9287481,36.7275223 M43.8298849,36.7275223 L36.2402934,36.7275223 L34.9007734,34.6340191 C37.0679144,32.4355408 38.4043691,29.451249 38.4043691,26.164029 C38.4043691,25.7111365 38.0273418,25.3422241 37.564487,25.3422241 L26.7686302,25.3422241 L26.7686302,14.7787308 C26.7686302,14.3258383 26.3916028,13.9569258 25.9287481,13.9569258 C19.0502976,13.9569258 13.453127,19.4336262 13.453127,26.164029 C13.453127,32.8944319 19.0502976,38.3711322 25.9287481,38.3711322 C28.8376828,38.3711322 31.5136576,37.390365 33.6378849,35.7527536 L35.0632323,37.9842241 C35.2164955,38.2241671 35.4862386,38.3711322 35.7743734,38.3711322 L43.8298849,38.3711322 C44.2927397,38.3711322 44.669767,38.0022198 44.669767,37.5493273 C44.669767,37.0964347 44.2927397,36.7275223 43.8298849,36.7275223" id="Fill-95" fill="#009CD5"></path>
                        <path d="M11.6078386,42.7485935 L18.7682934,42.7485935 C19.2311481,42.7485935 19.6081755,42.379681 19.6081755,41.9267885 C19.6081755,41.4738959 19.2311481,41.1049835 18.7682934,41.1049835 L11.6078386,41.1049835 C11.1449839,41.1049835 10.7679565,41.4738959 10.7679565,41.9267885 C10.7679565,42.379681 11.1449839,42.7485935 11.6078386,42.7485935" id="Fill-97" fill="#009CD5"></path>
                        <path d="M29.5089755,41.1064831 L22.3485207,41.1064831 C21.885666,41.1064831 21.5086386,41.4753956 21.5086386,41.9282881 C21.5086386,42.3811806 21.885666,42.7500931 22.3485207,42.7500931 L29.5089755,42.7500931 C29.9718302,42.7500931 30.3488576,42.3811806 30.3488576,41.9282881 C30.3488576,41.4753956 29.9718302,41.1064831 29.5089755,41.1064831" id="Fill-99" fill="#009CD5"></path>
                        <path d="M11.6078386,47.1275543 L23.2435776,47.1275543 C23.7064323,47.1275543 24.0834597,46.7586419 24.0834597,46.3057493 C24.0834597,45.8528568 23.7064323,45.4869436 23.2435776,45.4869436 L11.6078386,45.4869436 C11.1449839,45.4869436 10.7679565,45.8528568 10.7679565,46.3057493 C10.7679565,46.7586419 11.1449839,47.1275543 11.6078386,47.1275543" id="Fill-101" fill="#009CD5"></path>
                        <path d="M29.5089755,45.485444 L26.8238049,45.485444 C26.3609502,45.485444 25.9839228,45.8543564 25.9839228,46.307249 C25.9839228,46.7601415 26.3609502,47.1260547 26.8238049,47.1260547 L29.5089755,47.1260547 C29.9718302,47.1260547 30.3488576,46.7601415 30.3488576,46.307249 C30.3488576,45.8543564 29.9718302,45.485444 29.5089755,45.485444" id="Fill-103" fill="#009CD5"></path>
                        <path d="M15.188066,49.8644048 L11.6078386,49.8644048 C11.1449839,49.8644048 10.7679565,50.2333173 10.7679565,50.6862098 C10.7679565,51.1391023 11.1449839,51.5080148 11.6078386,51.5080148 L15.188066,51.5080148 C15.6509207,51.5080148 16.0279481,51.1391023 16.0279481,50.6862098 C16.0279481,50.2333173 15.6509207,49.8644048 15.188066,49.8644048" id="Fill-105" fill="#009CD5"></path>
                        <path d="M18.7682934,49.8644048 C18.3054386,49.8644048 17.9284113,50.2333173 17.9284113,50.6862098 C17.9284113,51.1391023 18.3054386,51.5080148 18.7682934,51.5080148 L29.5089755,51.5080148 C29.9718302,51.5080148 30.3488576,51.1391023 30.3488576,50.6862098 C30.3488576,50.2333173 29.9718302,49.8644048 29.5089755,49.8644048 L18.7682934,49.8644048 Z" id="Fill-107" fill="#009CD5"></path>
                    </g>
                </g>
            </g>
        </g>
    </g>
</svg>