<?xml version="1.0" encoding="UTF-8"?>
<svg width="70px" height="46px" viewBox="0 0 70 46" version="1.1" xmlns="http://www.w3.org/2000/svg" xmlns:xlink="http://www.w3.org/1999/xlink">
    <!-- Generator: Sketch 52.6 (67491) - http://www.bohemiancoding.com/sketch -->
    <title>icon 4</title>
    <desc>Created with Sketch.</desc>
    <g id="LP-SPRINT" stroke="none" stroke-width="1" fill="none" fill-rule="evenodd" opacity="0.362523321">
        <g id="Desktop-HD" transform="translate(-350.000000, -1650.000000)">
            <g id="2-Nós-Conduzimos" transform="translate(264.000000, 1217.000000)">
                <g id="4" transform="translate(0.000000, 433.000000)">
                    <g id="icon-4" transform="translate(85.000000, 0.000000)">
                        <path d="M65.0829464,43.8674491 C63.8475177,43.8674491 62.843732,42.8558179 62.843732,41.6107333 C62.843732,40.3691859 63.8475177,39.3575547 65.0829464,39.3575547 C66.318375,39.3575547 67.3221608,40.3691859 67.3221608,41.6107333 C67.3221608,42.8558179 66.318375,43.8674491 65.0829464,43.8674491 Z M34.5762827,43.8674491 L36.8786724,43.8674491 L36.8786724,41.5470642 L34.5762827,41.5470642 L34.5762827,43.8674491 Z M32.4037534,39.4848929 L32.4037534,34.6495788 C33.4952826,34.8618091 34.6078703,34.9749986 35.7274775,34.9749986 C36.8470847,34.9749986 37.9596724,34.8618091 39.0547114,34.6495788 L39.0547114,39.4848929 L32.4037534,39.4848929 Z M5.28398915,25.2407012 C4.05207027,25.2407012 3.04828451,24.22907 3.04828451,22.9839855 C3.04828451,21.7389009 4.05207027,20.7272698 5.28398915,20.7272698 C6.51941778,20.7272698 7.52320354,21.7389009 7.52320354,22.9839855 C7.52320354,24.22907 6.51941778,25.2407012 5.28398915,25.2407012 Z M6.37200868,6.61395343 C5.13658006,6.61395343 4.1327943,5.60232223 4.1327943,4.35723768 C4.1327943,3.11215313 5.13658006,2.10052194 6.37200868,2.10052194 C7.60743731,2.10052194 8.61122307,3.11215313 8.61122307,4.35723768 C8.61122307,5.60232223 7.60743731,6.61395343 6.37200868,6.61395343 Z M66.1709659,20.7272698 C67.4028848,20.7272698 68.4066706,21.7389009 68.4066706,22.9839855 C68.4066706,24.22907 67.4028848,25.2407012 66.1709659,25.2407012 C64.9355373,25.2407012 63.9317515,24.22907 63.9317515,22.9839855 C63.9317515,21.7389009 64.9355373,20.7272698 66.1709659,20.7272698 Z M65.0829464,37.2918463 C63.0718651,37.2918463 61.38368,38.6961036 60.923904,40.5814163 L58.4951636,40.5814163 L58.4951636,24.0168397 L62.0084138,24.0168397 C62.4681898,25.9021524 64.1598846,27.3028725 66.1709659,27.3028725 C68.5330212,27.3028725 70.456359,25.3645023 70.456359,22.9839855 C70.456359,20.6034687 68.5330212,18.6650985 66.1709659,18.6650985 C64.1598846,18.6650985 62.4681898,20.0693558 62.0084138,21.9511313 L58.4951636,21.9511313 L58.4951636,14.2188733 L58.4846344,14.2188733 C58.449537,13.6812231 58.0108194,13.2567625 57.4703194,13.2567625 C56.9298194,13.2567625 56.4911018,13.6812231 56.4595142,14.2188733 L56.448985,14.2188733 L56.448985,21.9511313 L52.4899978,21.9511313 C52.8690497,20.5079651 53.0585757,19.0188157 53.0585757,17.504906 C53.0585757,13.6918346 51.8617542,10.0662333 49.5909522,7.02426538 L49.5839327,7.03133972 C49.3979165,6.79081203 49.1101177,6.63163929 48.7802021,6.63163929 C48.2186437,6.63163929 47.7623774,7.09147165 47.7623774,7.66095634 C47.7623774,7.88379818 47.836082,8.09249133 47.9589229,8.26227558 L47.9554131,8.26227558 C49.9559652,10.9469891 51.012397,14.1410555 51.012397,17.504906 C51.012397,19.2699549 50.7175788,20.9960948 50.1349619,22.6408798 C48.4748547,27.3806903 44.6141403,31.013366 39.8057959,32.3539542 C37.1559419,33.0932231 34.2990132,33.0896859 31.6526689,32.3574913 C29.3994156,31.7278747 27.2865518,30.5606079 25.5387011,28.9830292 L25.5351914,28.9830292 L24.3383699,27.7733164 C23.0011588,26.2664811 21.9833341,24.5403412 21.3199931,22.6373426 C20.7373762,20.9960948 20.442558,19.2699549 20.442558,17.504906 C20.442558,9.01215605 27.3005908,2.10052194 35.7274775,2.10052194 C39.493429,2.10052194 43.1119714,3.49416771 45.916254,6.02678287 L45.9197637,6.0232457 C46.0987605,6.17888127 46.3304033,6.27792208 46.5831046,6.27792208 C47.1481728,6.27792208 47.6044391,5.81808972 47.6044391,5.24860503 C47.6044391,4.95148258 47.4745787,4.68619468 47.2745235,4.49872456 L47.281543,4.48811305 C44.1017182,1.61946655 39.9988316,0.038350656 35.7274775,0.038350656 C26.1704544,0.038350656 18.3963794,7.87318666 18.3963794,17.504906 C18.3963794,19.0188157 18.5859053,20.5115023 18.9649573,21.9511313 L15.0059701,21.9511313 L15.0059701,4.36077485 L15.0024604,4.36077485 C15.0024604,4.35723768 15.0059701,4.35370051 15.0059701,4.34662617 C15.0059701,3.78067864 14.5497039,3.31730911 13.9846356,3.31730911 C13.9635772,3.31730911 13.9425188,3.32438345 13.9214603,3.32438345 L10.5345608,3.32438345 C10.0712751,1.43907077 8.38308994,0.038350656 6.37200868,0.038350656 C4.00995338,0.038350656 2.08661563,1.97672092 2.08661563,4.35723768 C2.08661563,6.73775445 4.00995338,8.67612471 6.37200868,8.67612471 C8.38308994,8.67612471 10.0712751,7.27186742 10.5345608,5.39009191 L12.9597914,5.39009191 L12.9597914,21.9511313 L9.44654129,21.9511313 C8.98676529,20.0693558 7.29507041,18.6650985 5.28398915,18.6650985 C2.92193385,18.6650985 0.998596104,20.6034687 0.998596104,22.9839855 C0.998596104,25.3645023 2.92193385,27.3028725 5.28398915,27.3028725 C7.29507041,27.3028725 8.98676529,25.9021524 9.44654129,24.0168397 L12.9597914,24.0168397 L12.9597914,29.5595883 L12.9668109,29.5595883 C12.9668109,29.5666626 12.9633012,29.573737 12.9633012,29.5772741 C12.9633012,30.1467588 13.4195674,30.6065912 13.9846356,30.6065912 C14.5461941,30.6065912 15.0059701,30.1467588 15.0059701,29.5772741 C15.0059701,29.573737 15.0024604,29.5666626 15.0024604,29.5595883 L15.0059701,29.5595883 L15.0059701,24.0168397 L19.6458469,24.0168397 C20.3969314,25.8986152 21.4603827,27.6247552 22.8151425,29.1492763 L24.1734121,30.5181619 L24.1734121,30.5216991 C24.1804316,30.5287734 24.1909608,30.5358477 24.20149,30.5464593 L24.2085095,30.5499964 C25.9879479,32.1487982 28.0973019,33.3691225 30.354065,34.1154658 L30.354065,40.1711043 C30.3470455,40.2276991 30.3365162,40.287831 30.3365162,40.3515001 C30.3365162,41.0094141 30.8699968,41.5470642 31.5228085,41.5470642 C31.543867,41.5470642 31.5649254,41.5399899 31.5859838,41.5399899 L31.5894936,41.5470642 L32.530104,41.5470642 L32.530104,44.6031808 C32.5265943,44.6456269 32.516065,44.688073 32.516065,44.730519 C32.516065,45.3919702 33.0495456,45.9296203 33.7023573,45.9296203 C33.7128865,45.9296203 33.719906,45.9260832 33.7304352,45.9260832 L33.7304352,45.9296203 L37.5981692,45.9296203 C37.6473055,45.9366947 37.6964419,45.9473062 37.749088,45.9473062 C38.4054095,45.9473062 38.9353803,45.409656 38.9353803,44.7482049 C38.9353803,44.709296 38.9283608,44.6703871 38.924851,44.627941 L38.924851,41.5470642 L39.9321465,41.5470642 L39.9321465,41.543527 C40.5849583,41.5399899 41.1114193,41.0058769 41.1114193,40.3515001 C41.1114193,40.3055168 41.1043998,40.2630708 41.0973804,40.2206247 L41.1008901,40.2206247 L41.1008901,34.1154658 C45.9724098,32.5095897 49.8998093,28.8097078 51.8055984,24.0168397 L56.448985,24.0168397 L56.448985,41.5647501 L56.4560044,41.5647501 C56.4560044,41.5824359 56.4524947,41.6001218 56.4524947,41.6178077 C56.4524947,42.1837552 56.9087609,42.6471247 57.4703194,42.6471247 C57.4983973,42.6471247 57.5229655,42.6400504 57.5510434,42.6365132 L57.5510434,42.6435875 L60.923904,42.6435875 C61.38368,44.5289002 63.0718651,45.9296203 65.0829464,45.9296203 C67.4450017,45.9296203 69.3683394,43.9947872 69.3683394,41.6107333 C69.3683394,39.2302165 67.4450017,37.2918463 65.0829464,37.2918463 Z" id="Fill-38" fill="#231F20"></path>
                        <path d="M7.97827858,43.0811849 C6.83138746,43.0811849 5.89953842,42.1398793 5.89953842,40.9813494 C5.89953842,39.8261108 6.83138746,38.8848053 7.97827858,38.8848053 C9.1251697,38.8848053 10.0570187,39.8261108 10.0570187,40.9813494 C10.0570187,42.1398793 9.1251697,43.0811849 7.97827858,43.0811849 Z M15.9934836,33.8952276 L15.9804507,33.8952276 C15.9511268,33.3949534 15.5438501,33 15.0420853,33 C14.5370622,33 14.1297855,33.3949534 14.1004616,33.8952276 L14.0939452,33.8952276 L14.0939452,40.0235875 L11.8425197,40.0235875 C11.4124355,38.2693363 9.84523486,36.9626988 7.97827858,36.9626988 C5.78550095,36.9626988 4,38.7663193 4,40.9813494 C4,43.1963796 5.78550095,45 7.97827858,45 C9.84523486,45 11.4124355,43.6966539 11.8425197,41.9424026 L15.0029867,41.9424026 C15.0192778,41.9424026 15.0355688,41.9456939 15.0518599,41.9456939 C15.5764323,41.9456939 16,41.5178278 16,40.9912233 C16,40.9681843 15.9934836,40.9484366 15.9934836,40.9253977 L15.9934836,33.8952276 Z" id="Fill-41" fill="#231F20"></path>
                        <path d="M46.0449714,17 C45.5183974,17 45.0932134,17.4231082 45.0932134,17.9471115 C45.0932134,17.9536208 45.0932134,17.9601302 45.0932134,17.9698942 C45.0932134,23.004882 40.9754702,27.1025224 35.9125102,27.1025224 L35.9125102,27.1090317 C35.4055601,27.1285598 35,27.541904 35,28.0496338 C35,28.5606184 35.4055601,28.9739626 35.9125102,28.9934906 L35.9125102,29 C42.0253475,29 47,24.0496338 47,17.9698942 L46.9967294,17.9698942 C46.9967294,17.9601302 46.9967294,17.9536208 46.9967294,17.9471115 C46.9967294,17.4231082 46.5715454,17 46.0449714,17" id="Fill-43" fill="#009CD5"></path>
                        <path d="M36,19 C36.5532646,19 37,18.5524957 37,17.9982788 C37,17.4475043 36.5532646,17 36,17 C35.4501718,17 35,17.4475043 35,17.9982788 C35,18.5524957 35.4501718,19 36,19" id="Fill-45" fill="#009CD5"></path>
                        <path d="M35.050829,8.91072401 C35.57271,8.91072401 36,8.48285248 36,7.9569951 C36,7.42787153 35.57271,7 35.050829,7 C35.037782,7 35.024735,7.00326619 35.011688,7.00326619 C28.9350367,7.02612956 24,11.9842134 24,18.0724007 L24.0032618,18.0724007 C24.0163088,18.5884594 24.4338135,19 24.949171,19 C25.4645284,19 25.8820332,18.5884594 25.8950802,18.0724007 L25.9016037,18.0724007 C25.9016037,13.0261296 29.9951074,8.92052259 35.0312585,8.90745781 C35.037782,8.90745781 35.0443055,8.91072401 35.050829,8.91072401" id="Fill-47" fill="#009CD5"></path>
                        <path d="M30,18 C30,18.5532646 30.4475043,19 31.0017212,19 C31.5524957,19 32,18.5532646 32,18 C32,17.4501718 31.5524957,17 31.0017212,17 C30.4475043,17 30,17.4501718 30,18" id="Fill-49" fill="#009CD5"></path>
                        <path d="M40,18 C40,17.4501718 39.5524957,17 38.9982788,17 C38.4475043,17 38,17.4501718 38,18 C38,18.5532646 38.4475043,19 38.9982788,19 C39.5524957,19 40,18.5532646 40,18" id="Fill-51" fill="#009CD5"></path>
                        <path d="M62.0195599,2.91272966 C63.1670742,2.91272966 64.0994295,3.85104987 64.0994295,5.00590551 C64.0994295,6.15748031 63.1670742,7.09580052 62.0195599,7.09580052 C60.8720456,7.09580052 59.9396903,6.15748031 59.9396903,5.00590551 C59.9396903,3.85104987 60.8720456,2.91272966 62.0195599,2.91272966 M54.00326,10.0485564 C54.00326,10.5734908 54.4270579,11 54.9486553,11 C55.4735126,11 55.8973105,10.5734908 55.8973105,10.0485564 C55.8973105,10.0452756 55.8973105,10.0419948 55.8973105,10.0354331 L55.9005705,10.0354331 L55.9005705,5.96062992 L58.1532192,5.96062992 C58.5835371,7.70931759 60.1515892,9.01181102 62.0195599,9.01181102 C64.2135289,9.01181102 66,7.21391076 66,5.00590551 C66,2.79461942 64.2135289,1 62.0195599,1 C60.1515892,1 58.5835371,2.2992126 58.1532192,4.04790026 L55.0171149,4.04790026 L55.0138549,4.05774278 C54.991035,4.05774278 54.9714751,4.0511811 54.9486553,4.0511811 C54.4335778,4.0511811 54.0162999,4.46456693 54.00326,4.97965879 L54,4.98293963 L54,10.0354331 L54.00326,10.0354331 C54.00326,10.0419948 54.00326,10.0452756 54.00326,10.0485564" id="Fill-53" fill="#231F20"></path>
                    </g>
                </g>
            </g>
        </g>
    </g>
</svg>