<?xml version="1.0" encoding="UTF-8"?>
<svg width="72px" height="43px" viewBox="0 0 72 43" version="1.1" xmlns="http://www.w3.org/2000/svg" xmlns:xlink="http://www.w3.org/1999/xlink">
    <!-- Generator: Sketch 52.6 (67491) - http://www.bohemiancoding.com/sketch -->
    <title>icon 1</title>
    <desc>Created with Sketch.</desc>
    <g id="LP-SPRINT" stroke="none" stroke-width="1" fill="none" fill-rule="evenodd" opacity="0.362523321">
        <g id="Desktop-HD" transform="translate(-348.000000, -1373.000000)">
            <g id="2-Nós-Conduzimos" transform="translate(264.000000, 1217.000000)">
                <g id="1" transform="translate(0.000000, 156.000000)">
                    <g id="icon-1" transform="translate(84.000000, 0.000000)">
                        <rect id="Rectangle-4" fill="#231F20" x="0" y="42" width="72" height="1"></rect>
                        <path d="M58.539992,18.765475 C56.6077948,18.0087746 52.9850635,18 52.831792,18 C52.372421,18 52,18.2917336 52,18.651579 C52,19.0114244 52.372421,19.303158 52.831792,19.303158 C53.7666152,19.3032449 56.4808078,19.4160115 57.7960373,19.9311064 C57.9154826,19.9779332 58.0423586,20 58.1673492,20 C58.4724505,20 58.7662394,19.8679467 58.9119694,19.6397203 C59.1174775,19.3178402 58.9508973,18.9264585 58.539992,18.765475" id="Fill-1" fill="#231F20"></path>
                        <path d="M20.2306096,29.6080696 L20.2307286,28.6280871 C21.268561,27.9699815 22.0937122,27.0442295 22.5860433,25.9495414 C22.6929787,26.657057 22.8508244,27.3273234 23.0939567,27.912574 C22.7386552,28.3112499 21.8976838,29.0552478 20.2306096,29.6080696 Z M16.4774029,28.0569694 C13.8134148,28.0569694 11.6462779,26.0608508 11.6462779,23.607334 C11.6462779,23.1535512 11.2468462,22.7856606 10.7541583,22.7856606 C10.7041996,22.7856606 10.6554304,22.7903716 10.6077317,22.7977118 C10.6103486,22.7270479 10.6128465,22.6562745 10.6154634,22.5862679 C10.6353279,22.0212853 10.6544788,21.4876358 10.6898067,21.0299089 C10.8037601,19.5535262 11.444302,18.1930541 12.4934347,17.1989389 C13.5519643,16.19584 14.9667471,15.6434563 16.477165,15.6434563 C17.987583,15.6434563 19.4022468,16.19584 20.4608954,17.1989389 C21.5100281,18.1930541 22.15057,19.5535262 22.2645234,21.0299089 C22.2997324,21.4875262 22.3190021,22.0210661 22.3392235,22.5859392 C22.3410078,22.6344727 22.342792,22.6836636 22.3445762,22.7325257 C21.3739501,21.355182 19.8749513,20.3401415 17.9381001,19.7669421 C16.1487461,19.2374558 14.6097803,19.2702132 14.544834,19.271747 C14.3112176,19.2777726 14.0894961,19.367828 13.9273682,19.5227408 L12.3177466,21.060256 C11.9757674,21.3869534 11.985997,21.9071274 12.3407038,22.2221022 C12.6954105,22.537077 13.2601817,22.5275456 13.6021609,22.2009578 L14.9415298,20.9216671 C16.094981,20.9735969 19.8058417,21.3710677 21.2490534,24.2980875 C20.8859012,26.4551445 18.8730415,28.0569694 16.4774029,28.0569694 Z M17.8339005,31.8291076 C17.072982,32.4949917 15.8809912,32.4948821 15.1203106,31.828998 L14.2906394,31.1028579 C14.4306427,30.8612859 14.5076028,30.5873947 14.5076028,30.3004664 L14.5076028,29.4246721 C15.1299455,29.6037969 15.7915414,29.7004257 16.477165,29.7004257 C17.1619561,29.7004257 17.8231951,29.6033587 18.4466083,29.4252199 L18.4464893,30.3003568 C18.4464893,30.5873947 18.5233306,30.8613954 18.6634528,31.103077 L17.8339005,31.8291076 Z M12.7232447,29.6053307 C11.0545052,29.0522897 10.2174591,28.3149748 9.86013547,27.9123548 C10.1037436,27.3257896 10.2617082,26.6539894 10.3686436,25.9448305 C10.8606179,27.0313018 11.6845795,27.9588068 12.7232447,28.6205277 L12.7232447,29.6053307 Z M22.3501669,31.3116725 L21.4882604,30.9147494 C24.0539964,29.8861239 24.8667768,28.4394309 24.9057922,28.3675619 C25.0314026,28.1362882 25.0314026,27.8639309 24.9057922,27.6326572 C24.2626334,26.4479137 24.1847216,24.2763953 24.1221543,22.5315992 C24.1013382,21.9507309 24.0815926,21.4019626 24.0438857,20.9133408 C23.7397324,16.972157 20.4867074,14 16.4769271,14 C12.4671469,14 9.21400297,16.9720475 8.90996861,20.9133408 C8.87226169,21.4020722 8.85251611,21.9508405 8.83169998,22.5318183 C8.76913266,24.2765048 8.69110193,26.4478042 8.04806212,27.6325477 C7.92245168,27.8638213 7.92245168,28.1361787 8.04806212,28.3674523 C8.08707748,28.4393214 8.89819263,29.8830563 11.4690434,30.912887 L9.07495126,32.0153536 C7.795057,32.6050959 7,33.789949 7,35.1079131 L7,41.1783266 C7,41.6321094 7.39943169,42 7.89211961,42 C8.38480753,42 8.78423922,41.6321094 8.78423922,41.1783266 L8.78423922,35.1079131 C8.78423922,34.4163928 9.20139435,33.7946599 9.87286304,33.485382 L12.8540889,32.1125301 L13.8910887,33.0202053 C14.6162035,33.6548659 15.5463869,33.9720318 16.4769271,33.9720318 C17.4072295,33.9720318 18.3378887,33.6546468 19.0627656,33.0202053 L20.0996465,32.1126397 L21.0717,32.5602874 C21.0297109,32.6221867 22.6857228,31.0931073 22.3501669,31.3116725 Z" id="Fill-3" fill="#231F20"></path>
                        <path d="M57.9333888,26.8007043 C56.9878673,27.6458095 55.7387891,28.0921355 54.4200071,28.0546678 C51.838349,27.9833477 49.7380754,25.8889897 49.7380754,23.3862118 L49.7380754,21.8501448 C49.7380754,21.7225135 49.7058404,21.5967447 49.6438682,21.4826982 L49.0927798,20.467564 C48.8909242,20.0956256 48.7842274,19.6793176 48.7842274,19.2634478 L48.7842274,19.2144769 C48.7842274,17.24534 50.5236113,15.6434306 52.6614726,15.6434306 L60.3542286,15.6434306 L60.3542286,19.0560607 C60.3542286,19.6075593 60.2126799,20.1598247 59.9449268,20.6531497 L59.4945878,21.4826982 C59.4326157,21.5968542 59.4003806,21.7225135 59.4003806,21.8501448 L59.4003806,23.6071837 C59.4003806,24.8210502 58.8793862,25.9551608 57.9333888,26.8007043 Z M54.5691686,32.1090696 L52.5446652,30.2445575 C52.5799929,30.0967681 52.5999762,29.9349558 52.5998573,29.7564911 L52.5997383,29.4097504 C53.1615321,29.5795602 53.7536577,29.6803506 54.3663614,29.697222 C54.4351136,29.699194 54.5032711,29.7000704 54.5717854,29.7000704 C55.2488403,29.7000704 55.9097181,29.6058534 56.5387177,29.426074 L56.5387177,29.7569293 C56.5387177,29.9208232 56.5610801,30.0814305 56.6031878,30.2357931 L54.5691686,32.1090696 Z M50.5691686,31.7900462 C50.7914833,31.7315439 51.094802,31.6514594 51.3993101,31.5139682 L53.6770548,33.6118319 L53.6770548,41.1783395 C53.6770548,41.6321152 54.0764839,42 54.5691686,42 C55.0618532,42 55.4612823,41.6321152 55.4612823,41.1783395 L55.4612823,33.6118319 L57.7232069,31.528539 C57.8434638,31.5848501 57.9697871,31.6323969 58.1027715,31.6673449 L61.7873201,32.6369043 C62.628286,32.8582049 63.2157726,33.5754597 63.2157726,34.3811253 L63.2157726,41.1783395 C63.2157726,41.6321152 63.6152016,42 64.1078863,42 C64.600571,42 65,41.6321152 65,41.1783395 L65,34.3811253 C65,32.8452774 63.8804568,31.4782534 62.2775068,31.0563581 L58.5930772,30.0867987 C58.4340431,30.0449487 58.3229452,29.90932 58.3229452,29.7569293 L58.3229452,28.6242429 C58.6226954,28.4329603 58.9086476,28.2188904 59.1759248,27.9799515 C60.4712739,26.822177 61.1846081,25.2692386 61.1846081,23.6070741 L61.1846081,22.0440567 L61.5408588,21.3879333 C61.9318425,20.6676109 62.138456,19.8611785 62.138456,19.0559512 L62.138456,14.8216605 C62.138456,14.3678848 61.739027,14 61.2463423,14 L52.6614726,14 C49.5397883,14 47,16.3392128 47,19.2143673 L47,19.2633383 C47,19.9329368 47.1718806,20.6035214 47.4969668,21.2023476 L47.953848,22.0439471 L47.953848,23.3859926 C47.953848,25.5128883 49.0918282,27.4212223 50.8155109,28.5695751 L50.8157488,29.7567102 C50.8157488,29.9397762 50.8157488,30.0155881 50.0791007,30.2095 L48.2813132,30.6825573 L50.5691686,31.7900462 Z" id="Fill-5" fill="#231F20"></path>
                        <path d="M61,35 C60.4477333,35 60,35.3724313 60,35.8318149 L60,41.1681851 C60,41.6275687 60.4477333,42 61,42 C61.5522667,42 62,41.6275687 62,41.1681851 L62,35.8318149 C62,35.3724313 61.5522667,35 61,35" id="Fill-7" fill="#231F20"></path>
                        <path d="M12,36 C11.4477333,36 11,36.3787147 11,36.8458488 L11,41.1541512 C11,41.6212853 11.4477333,42 12,42 C12.5522667,42 13,41.6212853 13,41.1541512 L13,36.8458488 C13,36.3787147 12.5522667,36 12,36" id="Fill-9" fill="#231F20"></path>
                        <g id="Group" transform="translate(20.000000, 0.000000)" fill="#009CD5">
                            <path d="M19.4778691,32.6186178 C19.473308,32.6255457 19.4626285,32.6415248 19.4354845,32.6442066 C19.4082294,32.6476706 19.3948799,32.6332559 19.3889839,32.6275571 L17.301239,30.5305015 L21.2376622,27.8276944 L22.0727824,28.7090008 L19.4778691,32.6186178 Z M16.0001112,29.3933067 L11.4818739,26.2911349 L11.4818739,24.7267517 C12.6509532,25.3615561 13.9599794,25.7585742 15.3522173,25.8490849 C15.5721497,25.8633878 15.7907472,25.8704276 16.0086772,25.8704276 C17.6040493,25.8704276 19.1394602,25.4873772 20.5183486,24.7602742 L20.5183486,26.2911349 L16.0001112,29.3933067 Z M12.6112386,32.6274453 C12.6054538,32.6332559 12.5919931,32.6470001 12.5647379,32.6440949 C12.537594,32.6414131 12.5269145,32.625434 12.5223534,32.618506 L9.92755135,28.708889 L10.7625603,27.8275826 L14.6989835,30.530278 L12.6112386,32.6274453 Z M7.91345098,15.7644007 L7.91345098,13.685112 C7.91345098,13.5589557 7.88508336,13.4343638 7.83046181,13.3207225 C7.29359087,12.2039764 7.02137305,11.0190679 7.02137305,9.79884906 L7.02137305,8.00662468 C7.02137305,4.51592718 9.84867826,1.6761248 13.3237662,1.6761248 L24.9788494,1.6761248 L24.9788494,9.79884906 C24.9788494,11.0190679 24.7066316,12.2039764 24.1697607,13.3207225 C24.1151391,13.4343638 24.0867715,13.5589557 24.0867715,13.685112 L24.0867715,16.071355 C24.0867715,18.3409397 23.1784517,20.4460408 21.5291255,21.9989145 C21.32321,22.1926745 21.1095073,22.3743665 20.8885737,22.5436551 C20.8836789,22.5470073 20.8790066,22.5506948 20.874223,22.5541588 C19.3291338,23.7324745 17.4366248,24.3051505 15.4602367,24.1765358 C11.2283454,23.9013162 7.91345098,20.2062432 7.91345098,15.7644007 Z M30.0064801,31.075242 L28.8323947,30.4566402 L23.9686288,28.6801714 C23.9860943,28.4496484 23.9086674,28.2152144 23.7412429,28.0385509 L22.1870316,26.3984069 L22.1870316,23.6450925 C22.3513412,23.509103 22.5133147,23.3694259 22.6702821,23.2217034 C24.6309847,21.3757313 25.7554545,18.769469 25.7554545,16.0712433 L25.7554545,13.872391 C26.3475032,12.5783109 26.6475324,11.208917 26.6475324,9.79862558 L26.6475324,0.8380624 C26.6475324,0.375228472 26.2739699,0 25.8131909,0 L13.3237662,0 C8.92845522,0 5.35269006,3.5918237 5.35269006,8.00662468 L5.35269006,9.79884906 C5.35269006,11.2091405 5.65271926,12.5785344 6.24476798,13.8726145 L6.24476798,15.7645124 C6.24476798,18.8973014 7.6315548,21.7196721 9.81319094,23.5803941 L9.81319094,26.3985186 L8.2589796,28.0386626 C8.09155507,28.2153262 8.01412818,28.4497602 8.03159373,28.6802832 L2.89816862,30.5551964 C2.52616356,30.6910742 2.18052369,30.8751127 1.86670004,31.0980373 L0.748904927,32.1181269 C0.303922796,32.732706 0,33.8663251 0,34.7114272 L0,41.1617141 C0,41.624548 0.373562499,41.9997765 0.834341496,41.9997765 C1.29512049,41.9997765 1.66868299,41.624548 1.66868299,41.1617141 L1.66868299,34.7114272 C1.66868299,33.5609351 2.3918902,32.5237491 3.46841322,32.1305302 L8.88073088,30.1537086 L11.1337867,33.5485318 C11.4218013,33.9825364 11.8833591,34.2608848 12.4000946,34.312286 C12.4577197,34.3179848 12.5150112,34.3207784 12.5721914,34.3207784 C13.0280756,34.3207784 13.4647143,34.1405391 13.7911087,33.8128008 L15.1656585,32.4321209 L15.1656585,41.1618259 C15.1656585,41.6246598 15.539221,41.9998883 16,41.9998883 C16.460779,41.9998883 16.8343415,41.6246598 16.8343415,41.1618259 L16.8343415,32.4321209 L18.2088913,33.8128008 C18.5351744,34.1406508 18.9718132,34.3208901 19.4278086,34.3208901 C19.4848776,34.3208901 19.5422803,34.3180966 19.5997942,34.3123977 C20.1166409,34.2609966 20.5781987,33.9826481 20.8662133,33.5486435 L23.1193804,30.1539321 L28.5315868,32.1307537 C29.6079986,32.5239726 30.331317,33.5611586 30.331317,34.7116507 L30.331317,41.1619376 C30.331317,41.6247715 30.7048795,42 31.1656585,42 C31.6264375,42 32,41.6247715 32,41.1619376 L32,34.7116507 C32,33.6130067 31.5902827,32.578726 30.8953319,31.7865894 C30.853281,31.7386522 30.0506445,31.1213913 30.0064801,31.075242 Z" id="Fill-11"></path>
                            <path d="M10.7679124,10.1250334 C10.7679124,10.0954472 10.787713,10.0701539 10.8141138,10.0662091 C11.9534744,9.89716166 14.2143987,9.636339 16.5568826,9.79007122 C19.3134116,9.97072108 21.309974,10.6518999 22.4910573,11.8146956 C22.8362717,12.1545308 23.3959927,12.1545308 23.7410892,11.8146956 C24.0863036,11.4748603 24.0863036,10.9238609 23.7410892,10.5841417 C20.397849,7.29299585 13.4029269,7.92219572 10.5504592,8.34545244 C9.65200609,8.47876438 9,9.22723725 9,10.1251494 L9,12.1298176 C9,12.6103903 9.39577665,13 9.8839562,13 C10.3721357,13 10.7679124,12.6103903 10.7679124,12.1298176 L10.7679124,10.1250334 Z" id="Fill-13"></path>
                            <path d="M6,37 C5.44773333,37 5,37.3566497 5,37.7965673 L5,41.2034327 C5,41.6433503 5.44773333,42 6,42 C6.55226667,42 7,41.6433503 7,41.2034327 L7,37.7965673 C7,37.3566497 6.55226667,37 6,37" id="Fill-15"></path>
                            <path d="M26,37 C25.4477333,37 25,37.3566497 25,37.7965673 L25,41.2034327 C25,41.6433503 25.4477333,42 26,42 C26.5522667,42 27,41.6433503 27,41.2034327 L27,37.7965673 C27,37.3566497 26.5522667,37 26,37" id="Fill-17"></path>
                        </g>
                    </g>
                </g>
            </g>
        </g>
    </g>
</svg>