<?xml version="1.0" encoding="UTF-8"?>
<svg width="65px" height="52px" viewBox="0 0 65 52" version="1.1" xmlns="http://www.w3.org/2000/svg" xmlns:xlink="http://www.w3.org/1999/xlink">
    <!-- Generator: Sketch 52.6 (67491) - http://www.bohemiancoding.com/sketch -->
    <title>icon 2</title>
    <desc>Created with Sketch.</desc>
    <g id="LP-SPRINT" stroke="none" stroke-width="1" fill="none" fill-rule="evenodd" opacity="0.36">
        <g id="Desktop-HD" transform="translate(-689.000000, -1368.000000)">
            <g id="2-Nós-Conduzimos" transform="translate(264.000000, 1217.000000)">
                <g id="2" transform="translate(337.000000, 151.000000)">
                    <g id="icon-2" transform="translate(88.000000, 0.000000)">
                        <path d="M62.8332222,21.6666667 C62.8332222,24.06 60.8931227,26 58.4996666,26 C57.9029694,26 57.4162778,26.4833333 57.4162778,27.0833333 L57.4162778,28.8 L54.9328171,26.3166667 C54.7294733,26.1133333 54.4527925,26 54.1661111,26 L41.1654444,26 C41.1621109,22.41 38.2552951,19.5033333 34.665111,19.5 L25.9979999,19.5 L25.9979999,6.5 C25.9979999,4.10666667 27.9380994,2.16666667 30.3315555,2.16666667 L58.4996666,2.16666667 C60.8931227,2.16666667 62.8332222,4.10666667 62.8332222,6.5 L62.8332222,21.6666667 Z M38.9986666,41.1666667 C38.9986666,43.56 37.0585671,45.5 34.665111,45.5 L10.8305554,45.5 C10.543874,45.5 10.2705267,45.6133333 10.0671829,45.8166667 L7.58038874,48.3 L7.58038874,46.5833333 C7.58038874,45.9833333 7.09703062,45.5 6.49699985,45.5 C4.10687728,45.5 2.16677778,43.56 2.16677778,41.1666667 L2.16677778,26 C2.16677778,23.6066667 4.10687728,21.6666667 6.49699985,21.6666667 L34.665111,21.6666667 C37.0585671,21.6666667 38.9986666,23.6066667 38.9986666,26 L38.9986666,41.1666667 Z M58.4996666,0 L30.3315555,0 C26.7447049,0.00333333333 23.8345556,2.91333333 23.8312221,6.5 L23.8312221,19.5 L6.49699985,19.5 C2.91014924,19.5033333 0.00333350428,22.41 0,26 L0,41.1666667 C0.00333350428,44.3366667 2.29011744,47.0433333 5.41361095,47.5766667 L5.41361095,50.9166667 C5.41694446,51.5133333 5.90030258,52 6.50033335,52 C6.78701472,52 7.06036207,51.8833333 7.26370583,51.6833333 L11.2805785,47.6666667 L34.665111,47.6666667 C38.2552951,47.6633333 41.1621109,44.7533333 41.1654444,41.1666667 L41.1654444,28.1666667 L53.7194215,28.1666667 L57.7329607,32.1833333 C58.1563157,32.6066667 58.8430176,32.6066667 59.2663726,32.1833333 C59.4697164,31.98 59.5830555,31.7033333 59.5830555,31.4166667 L59.5830555,28.0766667 C62.7098826,27.5433333 64.9966665,24.8366667 65,21.6666667 L65,6.5 C64.9966665,2.91333333 62.0898508,0.00333333333 58.4996666,0 Z" id="Fill-16" fill="#231F20"></path>
                        <path d="M12,34 C11.4492308,34 11,33.5507692 11,33 C11,32.4492308 11.4492308,32 12,32 C12.5507692,32 13,32.4492308 13,33 C13,33.5507692 12.5507692,34 12,34 M12,30 C10.3446154,30 9,31.3446154 9,33 C9,34.6553846 10.3446154,36 12,36 C13.6553846,36 15,34.6553846 15,33 C15,31.3446154 13.6553846,30 12,30" id="Fill-18" fill="#009CD5"></path>
                        <path d="M20,34 C19.4492308,34 19,33.5507692 19,33 C19,32.4492308 19.4492308,32 20,32 C20.5507692,32 21,32.4492308 21,33 C21,33.5507692 20.5507692,34 20,34 M20,30 C18.3446154,30 17,31.3446154 17,33 C17,34.6553846 18.3446154,36 20,36 C21.6553846,36 23,34.6553846 23,33 C23,31.3446154 21.6553846,30 20,30" id="Fill-20" fill="#009CD5"></path>
                        <path d="M29,34 C28.4492308,34 28,33.5507692 28,33 C28,32.4492308 28.4492308,32 29,32 C29.5507692,32 30,32.4492308 30,33 C30,33.5507692 29.5507692,34 29,34 M29,30 C27.3446154,30 26,31.3446154 26,33 C26,34.6553846 27.3446154,36 29,36 C30.6553846,36 32,34.6553846 32,33 C32,31.3446154 30.6553846,30 29,30" id="Fill-22" fill="#009CD5"></path>
                        <path d="M30.0512224,11 L30.0512224,11.0123077 C29.4644936,11.0492308 29,11.4738462 29,12 C29,12.5261538 29.4644936,12.9538462 30.0512224,12.9876923 L30.0512224,13 L36.8614668,13 L36.8614668,12.9938462 C36.8649593,12.9938462 36.8649593,12.9969231 36.8684517,12.9969231 C37.4935972,12.9969231 38,12.5507692 38,12 C38,11.4523077 37.4935972,11.0061538 36.8684517,11.0061538 C36.8649593,11.0061538 36.8649593,11.0061538 36.8614668,11.0061538 L36.8614668,11 L30.0512224,11 Z" id="Fill-24" fill="#009CD5"></path>
                        <path d="M58.9357271,11.0092308 L58.9357271,11 L55.3335727,11 L54.7775583,11 L42.0301616,11 L42.0301616,11.0123077 C41.4570916,11.0461538 41,11.4738462 41,12 C41,12.5292308 41.4570916,12.9538462 42.0301616,12.9907692 L42.0301616,13 L54.7775583,13 L55.3335727,13 L58.9357271,13 L58.9357271,12.9938462 C59.5258528,12.9753846 60,12.5384615 60,12 C60,11.4646154 59.5258528,11.0276923 58.9357271,11.0092308" id="Fill-26" fill="#009CD5"></path>
                        <path d="M57.9577998,7.01230769 L57.9577998,7 L53.0106892,7 L51.7146198,7 L30.005456,7 L30.005456,7.01538462 C29.4442712,7.05230769 29,7.47692308 29,8.00307692 C29,8.52923077 29.4442712,8.95692308 30.005456,8.99384615 L30.005456,9 L51.7146198,9 L53.0106892,9 L57.9577998,9 L57.9577998,8.99692308 C58.5356864,8.97846154 59,8.54153846 59,8.00307692 C59,7.46769231 58.5356864,7.03076923 57.9577998,7.01230769" id="Fill-28" fill="#009CD5"></path>
                        <path d="M58.9415756,20.0061538 L58.9415756,20 L53.3678854,20 L52.6012062,20 L42.9566528,20 L42.9566528,20.0153846 C42.4172635,20.08 42,20.4923077 42,20.9969231 C42,21.5046154 42.4172635,21.9169231 42.9566528,21.9815385 L42.9566528,22 L52.6012062,22 L53.3678854,22 L58.9415756,22 L58.9415756,21.9907692 C59.5284583,21.9723077 60,21.5353846 60,20.9969231 C60,20.4615385 59.5284583,20.0246154 58.9415756,20.0061538" id="Fill-30" fill="#009CD5"></path>
                        <path d="M57.9577998,15.0061538 L57.9577998,15 L30.005456,15 L30.005456,15.0092308 C29.4442712,15.0461538 29,15.4707692 29,15.9969231 C29,16.5230769 29.4442712,16.9507692 30.005456,16.9876923 L30.005456,17 L57.9577998,17 L57.9577998,16.9907692 C58.5356864,16.9723077 59,16.5353846 59,15.9969231 C59,15.4615385 58.5356864,15.0246154 57.9577998,15.0061538" id="Fill-32" fill="#009CD5"></path>
                    </g>
                </g>
            </g>
        </g>
    </g>
</svg>