<?xml version="1.0" encoding="UTF-8"?>
<svg width="60px" height="58px" viewBox="0 0 60 58" version="1.1" xmlns="http://www.w3.org/2000/svg" xmlns:xlink="http://www.w3.org/1999/xlink">
    <!-- Generator: Sketch 52.6 (67491) - http://www.bohemiancoding.com/sketch -->
    <title>icon 5</title>
    <desc>Created with Sketch.</desc>
    <defs>
        <polygon id="path-1" points="0.142314494 0.0887261905 59.3640284 0.0887261905 59.3640284 57.6309474 0.142314494 57.6309474"></polygon>
        <polygon id="path-3" points="0 58 60.4867564 58 60.4867564 0.0887261905 0 0.0887261905"></polygon>
    </defs>
    <g id="LP-SPRINT" stroke="none" stroke-width="1" fill="none" fill-rule="evenodd" opacity="0.362523321">
        <g id="Desktop-HD" transform="translate(-706.000000, -1644.000000)">
            <g id="2-Nós-Conduzimos" transform="translate(264.000000, 1217.000000)">
                <g id="5" transform="translate(337.000000, 427.000000)">
                    <g id="icon-5" transform="translate(104.000000, 0.000000)">
                        <g id="Group-58" transform="translate(1.015169, 0.000000)">
                            <mask id="mask-2" fill="white">
                                <use xlink:href="#path-1"></use>
                            </mask>
                            <g id="Clip-57"></g>
                            <path d="M56.4030955,48.0409236 L3.1032474,48.0409236 C2.55934022,48.0409236 2.11626977,47.6104117 2.11626977,47.0819212 L2.11626977,42.2869093 L57.3900731,42.2869093 L57.3900731,47.0819212 C57.3900731,47.6104117 56.9470026,48.0409236 56.4030955,48.0409236 Z M37.2563404,55.7129426 L22.2500024,55.7129426 L24.2759039,49.9589283 L35.2334946,49.9589283 L37.2563404,55.7129426 Z M49.494252,36.529926 L53.4421625,36.529926 L53.4421625,18.3088807 L49.494252,18.3088807 L49.494252,36.529926 Z M49.494252,16.390876 L53.4421625,16.390876 L53.4421625,13.5138688 L49.494252,13.5138688 L49.494252,16.390876 Z M6.06418032,36.532895 L6.06418032,13.5138688 L10.0120909,13.5138688 L10.0120909,16.390876 L9.02511323,16.390876 C8.48120605,16.390876 8.03813559,16.8213879 8.03813559,17.3498783 C8.03813559,17.8813379 8.48120605,18.3088807 9.02511323,18.3088807 L10.0120909,18.3088807 L10.0120909,20.2298545 L9.02511323,20.2298545 C8.48120605,20.2298545 8.03813559,20.6573974 8.03813559,21.1888569 C8.03813559,21.7173474 8.48120605,22.1478593 9.02511323,22.1478593 L10.0120909,22.1478593 L10.0120909,24.065864 L9.02511323,24.065864 C8.48120605,24.065864 8.03813559,24.4934069 8.03813559,25.0248664 C8.03813559,25.5533569 8.48120605,25.9838688 9.02511323,25.9838688 L10.0120909,25.9838688 L10.0120909,27.9018736 L9.02511323,27.9018736 C8.48120605,27.9018736 8.03813559,28.3294164 8.03813559,28.860876 C8.03813559,29.3893664 8.48120605,29.8198783 9.02511323,29.8198783 L10.0120909,29.8198783 L10.0120909,31.7378831 L9.02511323,31.7378831 C8.48120605,31.7378831 8.03813559,32.165426 8.03813559,32.6968855 C8.03813559,33.225376 8.48120605,33.6558879 9.02511323,33.6558879 L10.0120909,33.6558879 L10.0120909,36.532895 L6.06418032,36.532895 Z M3.1032474,9.67785929 L13.9600014,9.67785929 L13.9600014,36.532895 L11.9860461,36.532895 L11.9860461,12.5548664 C11.9860461,12.026376 11.5460313,11.595864 10.9990685,11.595864 L5.07720268,11.595864 C4.5332955,11.595864 4.09022504,12.026376 4.09022504,12.5548664 L4.09022504,37.4918974 C4.09022504,38.0203879 4.5332955,38.4508998 5.07720268,38.4508998 L54.4291402,38.4508998 C54.9730474,38.4508998 55.4161178,38.0203879 55.4161178,37.4918974 L55.4161178,12.5548664 C55.4161178,12.026376 54.9730474,11.595864 54.4291402,11.595864 L48.5072744,11.595864 C47.9603115,11.595864 47.5202967,12.026376 47.5202967,12.5548664 L47.5202967,36.532895 L45.5463414,36.532895 L45.5463414,9.67785929 L56.4030955,9.67785929 C56.9470026,9.68082833 57.3900731,10.1083712 57.3900731,10.6368617 L57.3900731,40.3689045 L2.11626977,40.3689045 L2.11626977,10.6368617 C2.11626977,10.1083712 2.55934022,9.68082833 3.1032474,9.67785929 Z M15.9339567,36.532895 L43.5693305,36.532895 L43.5693305,2.00584024 L15.9339567,2.00584024 L15.9339567,36.532895 Z M56.4030955,7.75985452 L45.5463414,7.75985452 L45.5463414,2.00584024 C45.5432858,0.948859286 44.6602005,0.0908045238 43.5723862,0.0878354762 L15.9339567,0.0878354762 C14.8461423,0.0908045238 13.9630571,0.948859286 13.9600014,2.00584024 L13.9600014,7.75985452 L3.1032474,7.75985452 C1.4684702,7.76282357 0.145370153,9.04842119 0.142314494,10.6368617 L0.142314494,47.0819212 C0.145370153,48.6703617 1.4684702,49.9559593 3.1032474,49.9589283 L22.1888893,49.9589283 L20.1629878,55.7129426 L18.8948896,55.7129426 C18.3509824,55.7129426 17.907912,56.1434545 17.907912,56.671945 C17.907912,57.2034045 18.3509824,57.6309474 18.8948896,57.6309474 L40.6114533,57.6309474 C41.1553604,57.6309474 41.5984309,57.2034045 41.5984309,56.671945 C41.5984309,56.1434545 41.1553604,55.7129426 40.6114533,55.7129426 L39.3433551,55.7129426 L37.3174536,49.9589283 L56.4030955,49.9589283 C58.0378727,49.9559593 59.3609727,48.6703617 59.3640284,47.0819212 L59.3640284,10.6368617 C59.3609727,9.04842119 58.0378727,7.76282357 56.4030955,7.75985452 Z" id="Fill-56" fill="#231F20" mask="url(#mask-2)"></path>
                        </g>
                        <mask id="mask-4" fill="white">
                            <use xlink:href="#path-3"></use>
                        </mask>
                        <g id="Clip-60"></g>
                        <path d="M20.8976472,6.80174286 L32.7413789,6.80174286 L32.7413789,5.84274048 L20.8976472,5.84274048 L20.8976472,6.80174286 Z M19.9106696,8.71974762 L33.7283565,8.71974762 C34.2753194,8.71974762 34.7153342,8.28923571 34.7153342,7.76074524 L34.7153342,4.8837381 C34.7153342,4.35524762 34.2753194,3.92473571 33.7283565,3.92473571 L19.9106696,3.92473571 C19.3667624,3.92473571 18.923692,4.35524762 18.923692,4.8837381 L18.923692,7.76074524 C18.923692,8.28923571 19.3667624,8.71974762 19.9106696,8.71974762 Z" id="Fill-59" fill="#009CD5" mask="url(#mask-4)"></path>
                        <path d="M23.1252222,14.95356 L20.8976472,16.4677743 L20.8976472,13.4393457 L23.1252222,14.95356 Z M24.8455578,13.7837552 L23.0427194,12.5545695 L26.6514519,12.5545695 L24.8455578,13.7837552 Z M26.6514519,17.3525505 L23.0427194,17.3525505 L24.8455578,16.1233648 L26.6514519,17.3525505 Z M28.7934683,16.4677743 L26.5658934,14.95356 L28.7934683,13.4393457 L28.7934683,16.4677743 Z M18.9817495,18.5936124 C19.0031391,18.6559624 19.03064,18.7153433 19.0611966,18.7717552 C19.0734192,18.8014457 19.0886975,18.8311362 19.1039758,18.8608267 C19.1161984,18.878641 19.1406437,18.8875481 19.155922,18.9053624 C19.3362058,19.13101 19.6142707,19.2646171 19.9106696,19.2705552 L29.780446,19.2705552 C30.0737892,19.252741 30.3487984,19.1221029 30.5382492,18.9053624 C30.5535275,18.8875481 30.5749171,18.878641 30.5901954,18.8608267 C30.6054737,18.8311362 30.6176963,18.8014457 30.629919,18.7717552 C30.6971435,18.6589314 30.736867,18.5342314 30.7490897,18.4065624 C30.7582566,18.3739029 30.7643679,18.3412433 30.7674236,18.3115529 L30.7674236,11.5955671 C30.7643679,11.5658767 30.7582566,11.5332171 30.7490897,11.5005576 C30.736867,11.3728886 30.6971435,11.2481886 30.629919,11.1353648 C30.6176963,11.1056743 30.6054737,11.0759838 30.5901954,11.0462933 C30.5749171,11.022541 30.5474162,11.0136338 30.5290823,10.9898814 C30.3610211,10.7998624 30.1226797,10.6781314 29.8660044,10.654379 C29.8354478,10.65141 29.8110026,10.6365648 29.780446,10.6365648 L19.9106696,10.6365648 C19.880113,10.6365648 19.8556678,10.65141 19.8281668,10.654379 C19.6998292,10.6692243 19.5745472,10.7018838 19.4584322,10.7582957 C19.3484285,10.8176767 19.2475917,10.897841 19.1620333,10.9898814 C19.1436994,11.0136338 19.1192541,11.02551 19.1039758,11.0462933 C19.0886975,11.0759838 19.0734192,11.1056743 19.0611966,11.1353648 C18.9970278,11.2481886 18.9573042,11.3728886 18.9450816,11.5005576 C18.9359146,11.5332171 18.9298033,11.5658767 18.923692,11.5955671 L18.923692,18.3115529 C18.9298033,18.3412433 18.9359146,18.3739029 18.9450816,18.4065624 C18.9511929,18.4689124 18.9634155,18.5342314 18.9817495,18.5936124 Z" id="Fill-61" fill="#009CD5" mask="url(#mask-4)"></path>
                        <path d="M23.1252222,25.50318 L20.8976472,27.0173943 L20.8976472,23.9889657 L23.1252222,25.50318 Z M24.8455578,24.3333752 L23.0427194,23.1041895 L26.6514519,23.1041895 L24.8455578,24.3333752 Z M26.6514519,27.9021705 L23.0427194,27.9021705 L24.8455578,26.6729848 L26.6514519,27.9021705 Z M28.7934683,27.0173943 L26.5658934,25.50318 L28.7934683,23.9889657 L28.7934683,27.0173943 Z M18.9817495,29.1432324 C19.0031391,29.2055824 19.03064,29.2649633 19.0611966,29.3213752 C19.0734192,29.3510657 19.0886975,29.3807562 19.1039758,29.4104467 C19.1161984,29.428261 19.1406437,29.4371681 19.155922,29.4549824 C19.3362058,29.68063 19.6142707,29.8142371 19.9106696,29.8201752 L29.780446,29.8201752 C30.0737892,29.802361 30.3487984,29.6717229 30.5382492,29.4549824 C30.5535275,29.4371681 30.5749171,29.428261 30.5901954,29.4104467 C30.6054737,29.3807562 30.6176963,29.3510657 30.629919,29.3213752 C30.6971435,29.2085514 30.736867,29.0838514 30.7490897,28.9561824 C30.7582566,28.9235229 30.7643679,28.8908633 30.7674236,28.8611729 L30.7674236,22.1451871 C30.7643679,22.1154967 30.7582566,22.0828371 30.7490897,22.0501776 C30.736867,21.9225086 30.6971435,21.7978086 30.629919,21.6849848 C30.6176963,21.6552943 30.6054737,21.6256038 30.5901954,21.5959133 C30.5749171,21.572161 30.5474162,21.5632538 30.5290823,21.5395014 C30.3610211,21.3494824 30.1226797,21.2277514 29.8629487,21.203999 C29.8354478,21.20103 29.8110026,21.1861848 29.780446,21.1861848 L19.9106696,21.1861848 C19.8831687,21.1861848 19.8587234,21.20103 19.8281668,21.203999 C19.763998,21.2099371 19.6967735,21.2218133 19.6326047,21.2425967 C19.513434,21.2722871 19.4034303,21.328699 19.3117606,21.4058943 C19.2567587,21.4444919 19.2078682,21.4919967 19.1620333,21.5395014 C19.1436994,21.5632538 19.1192541,21.572161 19.1039758,21.5959133 C19.0886975,21.6256038 19.0734192,21.6552943 19.0611966,21.6849848 C18.9970278,21.7978086 18.9573042,21.9225086 18.9450816,22.0501776 C18.9359146,22.0828371 18.9298033,22.1154967 18.923692,22.1451871 L18.923692,28.8611729 C18.9298033,28.8908633 18.9359146,28.9235229 18.9450816,28.9561824 C18.9511929,29.0185324 18.9634155,29.0838514 18.9817495,29.1432324 Z" id="Fill-62" fill="#009CD5" mask="url(#mask-4)"></path>
                        <path d="M32.7426011,11.5970517 C32.7426011,12.1255421 33.1856716,12.556054 33.7295788,12.556054 L38.664467,12.556054 C39.2114298,12.556054 39.6514446,12.1255421 39.6514446,11.5970517 C39.6514446,11.0685612 39.2114298,10.6380493 38.664467,10.6380493 L33.7295788,10.6380493 C33.1856716,10.6380493 32.7426011,11.0685612 32.7426011,11.5970517" id="Fill-63" fill="#009CD5" mask="url(#mask-4)"></path>
                        <path d="M32.7426011,15.4333581 C32.7426011,15.9618486 33.1856716,16.3923605 33.7295788,16.3923605 L42.6123775,16.3923605 C43.1593404,16.3923605 43.5993551,15.9618486 43.5993551,15.4333581 C43.5993551,14.9048676 43.1593404,14.4743557 42.6123775,14.4743557 L33.7295788,14.4743557 C33.1856716,14.4743557 32.7426011,14.9048676 32.7426011,15.4333581" id="Fill-64" fill="#009CD5" mask="url(#mask-4)"></path>
                        <path d="M33.7295788,23.105674 L38.664467,23.105674 C39.2083741,23.105674 39.6514446,22.6751621 39.6514446,22.1466717 C39.6514446,21.6181812 39.2083741,21.1876693 38.664467,21.1876693 L33.7295788,21.1876693 C33.1856716,21.1876693 32.7426011,21.6181812 32.7426011,22.1466717 C32.7426011,22.6751621 33.1856716,23.105674 33.7295788,23.105674" id="Fill-65" fill="#009CD5" mask="url(#mask-4)"></path>
                        <path d="M33.7295788,26.9419805 L42.6123775,26.9419805 C43.1593404,26.9419805 43.5993551,26.5114686 43.5993551,25.9829781 C43.5993551,25.4544876 43.1593404,25.0239757 42.6123775,25.0239757 L33.7295788,25.0239757 C33.1856716,25.0239757 32.7426011,25.4544876 32.7426011,25.9829781 C32.7426011,26.5114686 33.1856716,26.9419805 33.7295788,26.9419805" id="Fill-66" fill="#009CD5" mask="url(#mask-4)"></path>
                        <path d="M19.9112807,33.655294 L42.6117664,33.655294 C43.1587292,33.655294 43.598744,33.2247821 43.598744,32.6962917 C43.598744,32.1678012 43.1587292,31.7372893 42.6117664,31.7372893 L19.9112807,31.7372893 C19.3673736,31.7372893 18.9243031,32.1678012 18.9243031,32.6962917 C18.9243031,33.2247821 19.3673736,33.655294 19.9112807,33.655294" id="Fill-67" fill="#009CD5" mask="url(#mask-4)"></path>
                        <path d="M52.1078357,20.3049714 C51.8603274,20.3940429 51.6647653,20.5810929 51.5761512,20.8215857 C51.524205,20.9373786 51.4967041,21.0620786 51.4967041,21.1867786 C51.4997597,21.4421167 51.6036521,21.6855786 51.783936,21.8696595 C51.8786614,21.9527929 51.9886651,22.021081 52.1078357,22.0685857 C52.2239508,22.1249976 52.3522884,22.14875 52.4836817,22.145781 C52.8809173,22.145781 53.241485,21.9112262 53.3942679,21.5519714 C53.5470508,21.1956857 53.464548,20.7829881 53.1834275,20.5068667 C52.8992512,20.2337143 52.4745147,20.15355 52.1078357,20.3049714" id="Fill-68" fill="#009CD5" mask="url(#mask-4)"></path>
                        <path d="M53.3912122,24.6590798 C53.3698226,24.5967298 53.339266,24.5403179 53.3025981,24.486875 C53.2659302,24.4364012 53.2262067,24.3888964 53.1834275,24.3443607 C52.8961956,24.0801155 52.4775704,23.9999512 52.1078357,24.1424655 C51.9886651,24.1899702 51.8786614,24.2582583 51.783936,24.3443607 C51.4019787,24.7214298 51.4019787,25.3271155 51.783936,25.7041845 C51.8786614,25.7902869 51.9886651,25.858575 52.1078357,25.9060798 C52.2270064,25.9565536 52.3553441,25.980306 52.4836817,25.983275 C52.7464683,25.986244 52.9970323,25.8852964 53.1834275,25.7041845 C53.3698226,25.5230726 53.473715,25.2796107 53.4706593,25.0242726 C53.4676037,24.9589536 53.4614924,24.8966036 53.4492697,24.8312845 C53.4401028,24.7719036 53.4187132,24.7125226 53.3912122,24.6590798" id="Fill-69" fill="#009CD5" mask="url(#mask-4)"></path>
                        <path d="M53.1840386,28.1791826 C52.8998624,27.9060302 52.4751259,27.825866 52.1084469,27.9772874 C51.8609385,28.0663588 51.6653764,28.2534088 51.5737067,28.4939017 C51.5248161,28.6096945 51.4973152,28.7343945 51.4973152,28.8590945 C51.5003709,29.1144326 51.6012076,29.3578945 51.7814914,29.5419755 C51.8792725,29.6251088 51.9892762,29.6933969 52.1084469,29.7438707 C52.2245619,29.7973136 52.3528995,29.821066 52.4842928,29.8180969 C52.7470795,29.821066 52.9976434,29.7201183 53.1840386,29.5419755 C53.3704338,29.3608636 53.4743261,29.1144326 53.4712705,28.8590945 C53.4743261,28.7343945 53.4468252,28.6096945 53.3918234,28.4939017 C53.3398772,28.3781088 53.269597,28.2712231 53.1840386,28.1791826" id="Fill-70" fill="#009CD5" mask="url(#mask-4)"></path>
                        <path d="M52.1078357,31.8135938 C51.9886651,31.8610986 51.8786614,31.9293867 51.783936,32.015489 C51.4019787,32.3925581 51.4019787,32.9982438 51.783936,33.3782819 C51.8786614,33.4614152 51.9886651,33.5297033 52.1078357,33.5772081 C52.2270064,33.6276819 52.3553441,33.6544033 52.4836817,33.6544033 C52.7434127,33.6514343 52.9939766,33.5534557 53.1834275,33.3782819 C53.2262067,33.3307771 53.2659302,33.2832724 53.3025981,33.2327986 C53.339266,33.1793557 53.3698226,33.1229438 53.3912122,33.0605938 C53.4187132,33.007151 53.4401028,32.94777 53.4492697,32.888389 C53.4614924,32.82307 53.4676037,32.76072 53.4706593,32.695401 C53.4676037,32.4430319 53.3637113,32.19957 53.1834275,32.015489 C52.8992512,31.7423367 52.4745147,31.6621724 52.1078357,31.8135938" id="Fill-71" fill="#009CD5" mask="url(#mask-4)"></path>
                    </g>
                </g>
            </g>
        </g>
    </g>
</svg>