<?xml version="1.0" encoding="UTF-8"?>
<svg width="59px" height="59px" viewBox="0 0 59 59" version="1.1" xmlns="http://www.w3.org/2000/svg" xmlns:xlink="http://www.w3.org/1999/xlink">
    <!-- Generator: Sketch 52.6 (67491) - http://www.bohemiancoding.com/sketch -->
    <title>icon</title>
    <desc>Created with Sketch.</desc>
    <g id="LP-SPRINT" stroke="none" stroke-width="1" fill="none" fill-rule="evenodd" opacity="0.36">
        <g id="Desktop-HD" transform="translate(-1019.000000, -1364.000000)">
            <g id="2-Nós-Conduzimos" transform="translate(264.000000, 1217.000000)">
                <g id="3" transform="translate(664.000000, 147.000000)">
                    <g id="icon" transform="translate(91.000000, 0.000000)">
                        <g id="Group-3" fill="#231F20">
                            <path d="M53.980989,52.7511437 L52.018411,54.5218682 C47.9218975,57.4819471 42.3768788,57.4819471 38.2803653,54.5218682 L36.3177873,52.7482137 C32.0262426,47.8898312 32.5043757,40.4885351 37.3856751,36.2171385 C42.2670971,31.9457419 49.7031823,32.4216302 53.994727,37.2801347 C55.8856709,39.4207775 56.9274318,42.1742882 56.9248559,45.0246125 C56.9242426,47.8715184 55.8772073,50.6197794 53.980989,52.7511437 Z M36.3177873,23.2680444 C32.2212738,26.2281234 26.6762551,26.2281234 22.5797416,23.2680444 L20.6171636,21.49439 C16.3155607,16.6397921 16.7824089,9.2334905 21.6600285,4.95208291 C26.5375254,0.670675315 33.9787624,1.13533177 38.2803653,5.99005169 C42.2055212,10.4199149 42.2055212,17.0645267 38.2803653,21.49439 L36.3177873,23.2680444 Z M15.7107187,35.9326798 C16.9794027,37.3644956 17.6774672,39.2089596 17.6732967,41.1178845 C17.6729287,43.0158218 16.9748642,44.8479551 15.7107187,46.2689053 L13.7481407,47.8745705 C11.3230077,49.2841668 8.32296195,49.2841668 5.8978289,47.8745705 L3.93525094,46.2689053 C1.06755655,43.0324254 1.37887048,38.0949317 4.63049418,35.2407006 C7.88224054,32.3864696 12.8430243,32.696322 15.7107187,35.9326798 Z M21.5984526,54.7914324 C22.1403694,54.7914324 22.5797416,55.2287417 22.5797416,55.7681144 C22.5797416,56.307487 22.1403694,56.7447964 21.5984526,56.7447964 C21.0565358,56.7447964 20.6171636,56.307487 20.6171636,55.7681144 C20.6171636,55.2287417 21.0565358,54.7914324 21.5984526,54.7914324 Z M2.95396195,4.00396886 C2.41204511,4.00396886 1.97267297,3.5666595 1.97267297,3.02728687 C1.97267297,2.48791424 2.41204511,2.05060488 2.95396195,2.05060488 C3.49587879,2.05060488 3.93525094,2.48791424 3.93525094,3.02728687 C3.93525094,3.5666595 3.49587879,4.00396886 2.95396195,4.00396886 Z M55.9435669,2.05060488 C56.4854838,2.05060488 56.9248559,2.48791424 56.9248559,3.02728687 C56.9248559,3.5666595 56.4854838,4.00396886 55.9435669,4.00396886 C55.4016501,4.00396886 54.962278,3.5666595 54.962278,3.02728687 C54.962278,2.48791424 55.4016501,2.05060488 55.9435669,2.05060488 Z M56.9248559,20.6075627 C56.9248559,22.2258027 55.6068622,23.5376087 53.980989,23.5376087 C52.3551158,23.5376087 51.037122,22.2258027 51.037122,20.6075627 C51.037122,18.9893227 52.3551158,17.6775167 53.980989,17.6775167 C55.6068622,17.6775167 56.9248559,18.9893227 56.9248559,20.6075627 Z M45.6518081,31.3735283 L39.2822613,23.303205 C41.5440098,20.9953055 42.9098414,17.9635625 43.1367644,14.7474708 L52.9997,14.7474708 L52.9997,15.821821 C50.7166085,16.288797 49.07712,18.2876988 49.0745441,20.6075627 C49.0751574,23.3045479 51.2722634,25.4904843 53.9819703,25.489996 C56.6917998,25.4893856 58.8880472,23.3025946 58.8874339,20.6056093 C58.8869432,18.2853792 57.2463507,16.285867 54.962278,15.821821 L54.962278,13.7707888 C54.962278,13.2314161 54.5229058,12.7941068 53.980989,12.7941068 L43.1367644,12.7941068 C42.9449225,10.0880872 41.943517,7.50110082 40.2615877,5.36644024 L41.6304859,4.00396886 L53.1802572,4.00396886 C53.722174,5.52966822 55.404226,6.32920451 56.9369994,5.7897098 C58.4698954,5.25033717 59.2732031,3.57630424 58.7312863,2.05060488 C58.1893694,0.524905527 56.5073175,-0.274630767 54.9744214,0.264863947 C54.1361553,0.559821909 53.4766064,1.21615221 53.1802572,2.05060488 L41.2242322,2.05060488 C40.9639453,2.05060488 40.7144526,2.15364483 40.5304609,2.33677271 L38.9456792,3.91411412 C33.492411,-1.31308789 24.8141366,-1.15059243 19.5621553,4.27707357 C17.3299682,6.58399643 15.984253,9.59901373 15.7607644,12.7941068 L7.51793701,12.7941068 L4.31010333,5.6125641 C5.74413451,4.86149565 6.29488295,3.09553253 5.54014906,1.66835597 C4.78553784,0.241057324 3.01136736,-0.307105443 1.57733617,0.443963007 C0.14330499,1.19503146 -0.407443451,2.96099458 0.347290437,4.38829323 C0.743853846,5.138385 1.44841933,5.67995516 2.27785385,5.87236151 L5.98221975,14.1682983 C6.13996195,14.5207585 6.49150873,14.7477149 6.87911788,14.7474708 L15.7607644,14.7474708 C15.9867062,17.9265706 17.3261657,20.925961 19.545596,23.2231171 L11.2615545,31.4682664 C5.9050659,30.6694627 0.912144906,34.3437403 0.109573181,39.675081 C-0.692998545,45.0064218 2.9986106,49.9759018 8.35509917,50.7747056 C8.51676653,50.7987564 8.67904719,50.8189005 8.84169584,50.8348936 L8.84169584,55.7681144 C8.84169584,56.307487 9.28106798,56.7447964 9.82298482,56.7447964 L18.8351428,56.7447964 C19.3770597,58.2704957 21.0591116,59.070032 22.591885,58.5305373 C24.1247811,57.9911647 24.9280888,56.3171317 24.3861719,54.7914324 C23.8442551,53.265733 22.1622031,52.4661967 20.6293071,53.0056914 C19.791041,53.3006494 19.1314921,53.9569797 18.8351428,54.7914324 L10.8042738,54.7914324 L10.8042738,50.8348936 C16.1937582,50.3001602 20.1273778,45.5180811 19.590122,40.1537773 C19.2265545,36.5239387 16.8596854,33.3986784 13.4537541,32.0513456 L21.0096792,24.5308943 C25.9303528,28.3870789 32.8565358,28.4147923 37.8083653,24.5982853 L43.2525565,31.4956135 C35.7352696,32.5393203 30.491384,39.4506884 31.5400139,46.9325607 C32.5886439,54.4145552 39.5326127,59.6338217 47.0497769,58.5901149 C54.5670638,57.5465302 59.8109495,50.6351622 58.7623195,43.1531677 C57.8412572,36.5813188 52.314147,31.6152571 45.6518081,31.3735283 Z" id="Fill-1"></path>
                        </g>
                        <path d="M28.9986905,15.4092143 C26.7686414,15.0466027 24.9135375,13.5702642 24.1384008,11.5413577 C25.8501507,11.4067654 28.940699,10.9113514 30.377489,9.10342432 L33.9509668,11.1509447 C33.5500254,13.4876952 30.5334662,15.4092143 28.9986905,15.4092143 Z M28.9986905,21.6959132 L28.1728112,20.9064962 L28.9986905,18.9334312 L29.8245698,20.9064962 L28.9986905,21.6959132 Z M24.0545381,9.62652043 C24.3227489,6.42756817 25.8995185,4.90910989 28.9986905,4.90910989 C31.8362758,4.90910989 33.3980476,6.19012263 33.8449822,8.86287648 L30.5134691,6.95376659 C30.0399133,6.68255366 29.4257531,6.82919717 29.1416696,7.28129825 C29.1043001,7.34095794 29.0736796,7.4041972 29.0506829,7.47018081 C28.5447569,8.91824066 25.8132811,9.46710976 24.0545381,9.62652043 Z M37.9886267,21.0858332 C37.9926261,21.0724695 37.9961256,21.0591057 38,21.0457419 C37.9991251,21.0466965 37.9982503,21.0477704 37.9973754,21.0487249 L37.9973754,20.4683555 C38.0027496,17.9177847 36.0125405,15.7650247 33.361053,15.4531238 C34.920825,14.2812883 35.8805598,12.5280095 35.9976676,10.6364396 C35.9976676,4.32492226 32.1912239,3 28.9986905,3 C25.8061571,3 21.9997134,4.32492226 21.9997134,10.6364396 C22.1159464,12.5290834 23.0758061,14.2835554 24.6363281,15.4559875 C21.9859654,15.767769 19.9961312,17.9188586 20.0000056,20.4683555 L20.0000056,20.9910937 C20.5950437,21.6416229 21.2661956,22.227123 21.9997134,22.7355428 L21.9997134,20.4683555 C21.9997134,18.7286791 23.4769975,17.3183242 25.2992312,17.3183242 L27.5189068,17.3183242 L26.0681188,20.7814495 C25.9195155,21.136186 26.0068778,21.5413946 26.2900864,21.8114143 L28.2897941,23.7205242 C28.6802371,24.0931586 29.3131446,24.0931586 29.7035875,23.7205242 L31.7032952,21.8114143 C31.9865039,21.5413946 32.0738661,21.136186 31.9252628,20.7814495 L30.4754747,17.3183242 L32.6981499,17.3183242 C34.5203835,17.3183242 35.9976676,18.7286791 35.9976676,20.4683555 L35.9976676,22.7821967 C35.9228036,22.8341006 35.8471896,22.8843341 35.7713257,22.9342096 C35.7725755,22.9352834 35.7739503,22.9363573 35.7752001,22.9374312 C36.590581,22.4081305 37.3333474,21.7852834 37.9886267,21.0858332 Z" id="Fill-4" fill="#009CD5"></path>
                        <path d="M45.9986905,46.4092143 C43.7686414,46.0466027 41.9135375,44.5702642 41.1384008,42.5413577 C42.8501507,42.4067654 45.940699,41.9113514 47.377489,40.1034243 L50.9509668,42.1509447 C50.5500254,44.4876952 47.5334662,46.4092143 45.9986905,46.4092143 Z M45.9986905,52.6959132 L45.1728112,51.9064962 L45.9986905,49.9334312 L46.8245698,51.9064962 L45.9986905,52.6959132 Z M41.0545381,40.6265204 C41.3227489,37.4275682 42.8995185,35.9091099 45.9986905,35.9091099 C48.8362758,35.9091099 50.3980476,37.1901226 50.8449822,39.8628765 L47.5134691,37.9537666 C47.0399133,37.6825537 46.4257531,37.8291972 46.1416696,38.2812983 C46.1043001,38.3409579 46.0736796,38.4041972 46.0506829,38.4701808 C45.5447569,39.9182407 42.8132811,40.4671098 41.0545381,40.6265204 Z M54.9886267,52.0858332 C54.9926261,52.0724695 54.9961256,52.0591057 55,52.0457419 C54.9991251,52.0466965 54.9982503,52.0477704 54.9973754,52.0487249 L54.9973754,51.4683555 C55.0027496,48.9177847 53.0125405,46.7650247 50.361053,46.4531238 C51.920825,45.2812883 52.8805598,43.5280095 52.9976676,41.6364396 C52.9976676,35.3249223 49.1912239,34 45.9986905,34 C42.8061571,34 38.9997134,35.3249223 38.9997134,41.6364396 C39.1159464,43.5290834 40.0758061,45.2835554 41.6363281,46.4559875 C38.9859654,46.767769 36.9961312,48.9188586 37.0000056,51.4683555 L37.0000056,51.9910937 C37.5950437,52.6416229 38.2661956,53.227123 38.9997134,53.7355428 L38.9997134,51.4683555 C38.9997134,49.7286791 40.4769975,48.3183242 42.2992312,48.3183242 L44.5189068,48.3183242 L43.0681188,51.7814495 C42.9195155,52.136186 43.0068778,52.5413946 43.2900864,52.8114143 L45.2897941,54.7205242 C45.6802371,55.0931586 46.3131446,55.0931586 46.7035875,54.7205242 L48.7032952,52.8114143 C48.9865039,52.5413946 49.0738661,52.136186 48.9252628,51.7814495 L47.4754747,48.3183242 L49.6981499,48.3183242 C51.5203835,48.3183242 52.9976676,49.7286791 52.9976676,51.4683555 L52.9976676,53.7821967 C52.9228036,53.8341006 52.8471896,53.8843341 52.7713257,53.9342096 C52.7725755,53.9352834 52.7739503,53.9363573 52.7752001,53.9374312 C53.590581,53.4081305 54.3333474,52.7852834 54.9886267,52.0858332 Z" id="Fill-6" fill="#009CD5"></path>
                        <path d="M10.0162821,40.032397 C8.91792683,40.032397 8.02763392,39.1344041 8.02763392,38.0265494 C8.02763392,36.9186946 8.91792683,36.0207017 10.0162821,36.0207017 C11.1146373,36.0207017 12.0049302,36.9186946 12.0049302,38.0265494 C12.0049302,39.1344041 11.1146373,40.032397 10.0162821,40.032397 M15.9995028,46.3040558 C15.9936612,46.3109509 15.9881924,46.3179714 15.9822265,46.3247411 L15.9822265,46.04994 C15.9809836,43.8572978 14.797365,41.8387882 12.8928616,40.7815811 C14.4094544,39.1789089 14.3509135,36.6395057 12.7619837,35.1096708 C11.1729295,33.5799612 8.65530099,33.6391337 7.13870821,35.241806 C5.67170734,36.7919501 5.67170734,39.231437 7.13870821,40.7815811 C5.23457762,41.8390389 4.05145627,43.8574231 4.05033766,46.04994 L4.05033766,46.3247411 C4.03293698,46.304808 4.01690351,46.2841227 4,46.2639389 C4.00012429,46.2644403 4.00012429,46.2649418 4.00024858,46.2654432 C4.01205618,46.2868807 4.0210051,46.309948 4.02784107,46.3337674 C4.60330613,46.9941928 5.28392095,47.5583374 6.04395741,48 C6.04905332,47.9951107 6.05377636,47.9895947 6.05899656,47.9848308 C6.05240916,47.9809444 6.04557319,47.9774342 6.03898579,47.9735479 L6.03898579,46.04994 C6.03898579,43.8343559 7.8196959,42.0382447 10.0162821,42.0382447 C12.2128682,42.0382447 13.9935783,43.8343559 13.9935783,46.04994 L13.9935783,47.9735479 C13.9888553,47.9763059 13.9841322,47.9788132 13.9795335,47.9815713 C13.9816464,47.9844547 13.9842565,47.9868366 13.9863695,47.98972 C14.7459088,47.5454248 15.426275,46.9793996 16,46.3159655 C16,46.3119538 15.9995028,46.3080675 15.9995028,46.3040558" id="Fill-10" fill="#009CD5"></path>
                    </g>
                </g>
            </g>
        </g>
    </g>
</svg>