<?xml version="1.0" encoding="UTF-8"?>
<svg width="52px" height="52px" viewBox="0 0 52 52" version="1.1" xmlns="http://www.w3.org/2000/svg" xmlns:xlink="http://www.w3.org/1999/xlink">
    <!-- Generator: Sketch 52.6 (67491) - http://www.bohemiancoding.com/sketch -->
    <title>icon 6</title>
    <desc>Created with Sketch.</desc>
    <g id="LP-SPRINT" stroke="none" stroke-width="1" fill="none" fill-rule="evenodd" opacity="0.362523321">
        <g id="Desktop-HD" transform="translate(-1021.000000, -1647.000000)">
            <g id="2-Nós-Conduzimos" transform="translate(264.000000, 1217.000000)">
                <g id="6" transform="translate(664.000000, 430.000000)">
                    <g id="icon-6" transform="translate(93.000000, 0.000000)">
                        <path d="M49.9688301,8.12564339 L23.8816335,8.12564339 C22.6950746,8.12564339 21.6247781,7.46680744 21.094759,6.4030619 L18.9097126,2.03141085 L49.9688301,2.03141085 L49.9688301,8.12564339 Z M49.9688301,41.8395143 L31.678043,41.8395143 L31.678043,35.5634156 C31.678043,33.847697 30.2794766,32.451102 28.5560597,32.451102 C27.8961005,32.451102 27.3011113,32.6123796 26.8155455,32.8971889 C26.2308148,32.0839382 25.3246531,31.5383397 24.3466824,31.5383397 C24.0115736,31.5383397 23.6901427,31.5932427 23.3892286,31.689323 C23.8269218,30.6942062 24.0697047,29.5927148 24.0697047,28.4363204 C24.0697047,23.9582948 20.4245413,20.310677 15.9450253,20.310677 C11.4655093,20.310677 7.82034589,23.9582948 7.82034589,28.4363204 C7.82034589,31.8025604 9.87887157,34.695262 12.8025252,35.9271479 L12.8025252,40.6247855 C12.8025252,40.7689059 12.8025252,41.1841098 12.0194647,41.25617 C12.0194647,41.25617 8.64444006,39.1870133 8.64444006,39.1835819 C7.15354771,38.2673881 5.13263629,38.9433813 4.36667324,40.4738023 C4.15124614,40.9061634 4.06233971,41.3728389 4.07259815,41.8395143 L2.03116986,41.8395143 L2.03116986,2.03141085 L16.6357598,2.03141085 L17.6513448,4.0628217 L9.14026435,4.0628217 C8.57946998,4.0628217 8.12467942,4.51920285 8.12467942,5.07852712 C8.12467942,5.63785139 8.57946998,6.09423255 9.14026435,6.09423255 L18.6669297,6.09423255 L19.2755968,7.30896133 C20.1544026,9.0658572 21.9188532,10.1570542 23.8816335,10.1570542 L49.9688301,10.1570542 L49.9688301,41.8395143 Z M21.5358716,30.8589151 C21.1152759,30.6495975 20.6399684,30.5260657 20.1338857,30.5260657 C19.7509042,30.5260657 19.3850201,30.5981259 19.0464917,30.7250891 L19.0464917,27.4858123 C19.0464917,25.7700937 17.6445058,24.3734987 15.9245085,24.3734987 C14.2045111,24.3734987 12.8025252,25.7700937 12.8025252,27.4858123 L12.8025252,33.6555365 C11.0346551,32.5883595 9.85151575,30.6495975 9.85151575,28.4363204 C9.85151575,25.0769434 12.5836786,22.3420879 15.9450253,22.3420879 C19.3063721,22.3420879 22.0385349,25.0769434 22.0385349,28.4363204 C22.0385349,29.2976112 21.8573026,30.1177247 21.5358716,30.8589151 Z M29.6468732,46.2386169 C29.6468732,46.2386169 28.8501348,48.0435529 28.8467153,48.0572786 C28.6689025,48.4553253 28.5628987,48.7332717 28.5628987,49.1724957 C28.5628987,49.3543619 28.5628987,49.6117197 28.5628987,49.9685892 L16.529756,49.9651577 C16.064707,48.7984691 14.7584665,47.9989442 12.8572368,46.8356869 C12.665746,46.7190181 6.82527783,43.1091461 6.82527783,43.1091461 C6.81159992,43.1022832 6.79792201,43.0919889 6.7842441,43.085126 C6.31577563,42.8243368 5.92595515,41.8978488 6.18241599,41.3797017 C6.3978431,40.9576349 7.06122181,40.5664511 7.5262708,40.8821433 C7.53994871,40.8890062 11.2193069,43.1503233 11.2193069,43.1503233 C11.3800224,43.249835 11.5646742,43.3013066 11.749326,43.3013066 C13.595844,43.3013066 14.833695,42.2238353 14.833695,40.6247855 L14.833695,27.4858123 C14.833695,26.8887422 15.3226803,26.4049096 15.9245085,26.4049096 C16.5263366,26.4049096 17.0153219,26.8887422 17.0153219,27.4858123 L17.0153219,36.7712815 C17.0153219,37.3340372 17.4701124,37.7869869 18.0309068,37.7869869 C18.5917012,37.7869869 19.0464917,37.3340372 19.0464917,36.7712815 L19.0464917,33.6383793 C19.0464917,33.0447407 19.5354771,32.5574766 20.1338857,32.5574766 C20.7357138,32.5574766 21.2246992,33.0447407 21.2246992,33.6383793 L21.2246992,37.0217764 C21.2246992,37.5845321 21.6794897,38.0374819 22.2402841,38.0374819 C22.8010785,38.0374819 23.255869,37.5845321 23.255869,37.0217764 L23.255869,34.6506533 C23.255869,34.0535832 23.7448543,33.5697506 24.3466824,33.5697506 C24.88696,33.5697506 25.4374959,34.2423123 25.4374959,34.9011482 L25.4374959,37.4781576 C25.4374959,38.0409133 25.888867,38.493863 26.4530808,38.493863 C27.0104557,38.493863 27.4686657,38.0409133 27.4686657,37.4781576 L27.4686657,35.3129207 C27.4686657,34.5202587 28.3748274,34.4825129 28.5560597,34.4825129 C29.1578878,34.4825129 29.6468732,34.9663455 29.6468732,35.5634156 L29.6468732,46.2386169 Z M50.9844151,0 L1.01558493,0 C0.454790557,0 0,0.456381153 0,1.01570542 L0,42.8552197 C0,43.4179755 0.454790557,43.8709252 1.01558493,43.8709252 L4.74965476,43.8709252 C5.03005195,44.2826976 5.38567765,44.6258414 5.77549813,44.8488848 C5.77549813,44.8488848 11.6057079,48.4518939 11.7971987,48.5685628 C13.7975932,49.7935859 14.683238,50.359773 14.683238,50.9808631 C14.683238,51.5401874 15.1380285,51.9965686 15.6988229,51.9965686 L29.5750641,52 C30.1290195,52 30.5940685,51.536756 30.5940685,50.9842946 C30.5940685,50.2396727 30.5940685,49.5293652 30.5940685,49.127887 L31.5925561,46.859707 C31.6472677,46.7327438 31.678043,46.5920549 31.678043,46.451366 L31.678043,43.8709252 L50.9844151,43.8709252 C51.5452094,43.8709252 52,43.4179755 52,42.8552197 L52,1.01570542 C52,0.456381153 51.5452094,0 50.9844151,0 Z" id="Fill-73" fill="#231F20"></path>
                        <path d="M39,6 C39.5521886,6 40,5.55067568 40,5 C40,4.44932432 39.5521886,4 39,4 C38.4478114,4 38,4.44932432 38,5 C38,5.55067568 38.4478114,6 39,6" id="Fill-75" fill="#009CD5"></path>
                        <path d="M47,6 C47.5521886,6 48,5.55067568 48,5 C48,4.44932432 47.5521886,4 47,4 C46.4478114,4 46,4.44932432 46,5 C46,5.55067568 46.4478114,6 47,6" id="Fill-77" fill="#009CD5"></path>
                        <path d="M43,6 C43.5521886,6 44,5.55067568 44,5 C44,4.44932432 43.5521886,4 43,4 C42.4478114,4 42,4.44932432 42,5 C42,5.55067568 42.4478114,6 43,6" id="Fill-79" fill="#009CD5"></path>
                        <path d="M6,5 C6,4.44932432 5.55218855,4 5,4 C4.44781145,4 4,4.44932432 4,5 C4,5.55067568 4.44781145,6 5,6 C5.55218855,6 6,5.55067568 6,5" id="Fill-81" fill="#009CD5"></path>
                        <path d="M7.04982746,16 L43.9501725,16 L43.9501725,14 L7.04982746,14 L7.04982746,16 Z M5,13 L5,17 C5,17.5506757 5.4589681,18 6.02491373,18 L44.9750863,18 C45.5410319,18 46,17.5506757 46,17 L46,13 C46,12.4493243 45.5410319,12 44.9750863,12 L6.02491373,12 C5.4589681,12 5,12.4493243 5,13 Z" id="Fill-83" fill="#009CD5"></path>
                        <path d="M45,21 C44.4478114,21 44,21.4493243 44,22 C44,22.5506757 44.4478114,23 45,23 C45.5521886,23 46,22.5506757 46,22 C46,21.4493243 45.5521886,21 45,21" id="Fill-85" fill="#009CD5"></path>
                        <path d="M31,23 L41,23 C41.5521886,23 42,22.5506757 42,22 C42,21.4493243 41.5521886,21 41,21 L31,21 C30.4478114,21 30,21.4493243 30,22 C30,22.5506757 30.4478114,23 31,23" id="Fill-86" fill="#009CD5"></path>
                        <path d="M45,25 L31,25 C30.4478114,25 30,25.4459459 30,26 C30,26.5506757 30.4478114,27 31,27 L45,27 C45.5521886,27 46,26.5506757 46,26 C46,25.4459459 45.5521886,25 45,25" id="Fill-87" fill="#009CD5"></path>
                        <path d="M45,29 L41,29 C40.4478114,29 40,29.4459459 40,30 C40,30.5506757 40.4478114,31 41,31 L45,31 C45.5521886,31 46,30.5506757 46,30 C46,29.4459459 45.5521886,29 45,29" id="Fill-88" fill="#009CD5"></path>
                        <path d="M37,29 L31,29 C30.4478114,29 30,29.4459459 30,30 C30,30.5506757 30.4478114,31 31,31 L37,31 C37.5521886,31 38,30.5506757 38,30 C38,29.4459459 37.5521886,29 37,29" id="Fill-89" fill="#009CD5"></path>
                    </g>
                </g>
            </g>
        </g>
    </g>
</svg>